{"glyphs":{"0":{"ha":750,"x_min":107,"x_max":642,"o":"m 107 342 l 107 650 q 167 908 107 828 q 375 1003 239 1003 q 593 892 524 1003 q 642 650 642 814 l 642 342 q 582 83 642 164 q 375 -11 511 -11 q 157 100 226 -11 q 107 342 107 178 m 192 353 q 202 220 193 267 q 232 139 211 174 q 375 63 278 63 q 519 142 476 63 q 557 353 557 211 l 557 639 q 507 869 557 800 q 375 929 464 929 q 231 850 274 929 q 192 639 192 781 l 192 353 z "},"1":{"ha":750,"x_min":150,"x_max":439,"o":"m 353 0 l 353 900 l 176 821 l 150 890 l 378 992 l 439 992 l 439 0 l 353 0 z "},"2":{"ha":750,"x_min":88,"x_max":611,"o":"m 88 0 l 88 58 l 361 422 q 486 631 446 538 q 515 768 515 697 q 351 931 515 931 q 169 776 211 931 l 92 785 q 183 953 106 894 q 356 1004 253 1004 q 546 933 482 1004 q 601 765 601 872 q 563 592 601 676 q 421 367 525 507 l 203 74 l 611 74 l 611 0 l 88 0 z "},"3":{"ha":750,"x_min":71,"x_max":635,"o":"m 239 486 l 239 558 l 326 558 q 474 617 418 558 q 522 744 522 668 q 469 886 522 838 q 349 929 425 929 q 232 893 278 929 q 178 807 193 861 l 100 815 q 189 961 117 913 q 351 1003 251 1003 q 550 928 483 1003 q 608 747 608 861 q 574 610 608 663 q 463 524 540 557 q 635 267 635 458 q 549 51 635 124 q 343 -11 475 -11 q 71 182 103 -11 l 154 192 q 343 63 185 63 q 500 124 446 63 q 547 268 547 178 q 479 433 547 371 q 332 486 421 486 l 239 486 z "},"4":{"ha":750,"x_min":79,"x_max":668,"o":"m 486 0 l 486 188 l 79 188 l 79 243 l 401 992 l 492 992 l 178 261 l 486 261 l 486 590 l 567 590 l 567 261 l 668 261 l 668 188 l 567 188 l 567 0 l 486 0 z "},"5":{"ha":750,"x_min":93,"x_max":640,"o":"m 136 486 l 185 992 l 611 992 l 611 918 l 256 918 l 219 563 q 381 610 293 610 q 592 510 524 610 q 640 297 640 438 q 579 79 640 154 q 354 -11 504 -11 q 167 46 235 -11 q 93 182 108 94 l 176 192 q 357 63 207 63 q 510 131 458 63 q 554 293 554 189 q 368 538 554 538 q 199 474 278 538 l 136 486 z "},"6":{"ha":750,"x_min":113,"x_max":642,"o":"m 281 574 q 401 606 332 606 q 593 513 525 606 q 642 299 642 444 q 578 65 642 136 q 376 -11 506 -11 q 165 79 235 -11 q 113 300 113 147 q 126 428 113 376 q 183 560 140 479 l 408 992 l 506 992 l 281 574 m 376 535 q 199 299 199 535 q 376 63 199 63 q 554 299 554 63 q 376 535 554 535 z "},"7":{"ha":750,"x_min":126,"x_max":633,"o":"m 221 0 l 542 918 l 126 918 l 126 992 l 633 992 l 633 939 l 313 0 l 221 0 z "},"8":{"ha":750,"x_min":94,"x_max":656,"o":"m 235 524 q 147 609 172 560 q 121 744 121 658 q 375 1004 121 1004 q 628 744 628 1004 q 601 609 628 661 q 515 524 575 557 q 622 435 589 496 q 656 274 656 375 q 375 -12 656 -12 q 94 272 94 -12 q 133 444 94 382 q 235 524 167 499 m 375 933 q 206 744 206 933 q 375 554 206 554 q 544 744 544 554 q 375 933 544 933 m 375 485 q 181 272 181 485 q 375 61 181 61 q 568 272 568 61 q 375 485 568 485 z "},"9":{"ha":750,"x_min":108,"x_max":638,"o":"m 474 454 q 347 428 414 428 q 108 713 108 428 q 182 940 108 869 q 374 1003 247 1003 q 583 918 514 1003 q 638 715 638 853 q 627 601 638 646 q 585 493 617 557 l 342 0 l 244 0 l 474 454 m 372 929 q 194 713 194 929 q 372 496 194 496 q 550 713 550 496 q 372 929 550 929 z "}," ":{"ha":278,"x_min":0,"x_max":0,"o":""},"!":{"ha":415,"x_min":161,"x_max":256,"o":"m 172 258 l 161 992 l 256 992 l 243 258 l 172 258 m 168 0 l 168 121 l 251 121 l 251 0 l 168 0 z "},"\"":{"ha":547,"x_min":124,"x_max":424,"o":"m 129 642 l 124 992 l 210 992 l 204 642 l 129 642 m 343 642 l 338 992 l 424 992 l 418 642 l 343 642 z "},"#":{"ha":750,"x_min":25,"x_max":726,"o":"m 211 394 l 233 568 l 61 568 l 71 629 l 244 629 l 282 896 l 356 896 l 319 629 l 478 629 l 515 896 l 590 896 l 553 629 l 726 629 l 717 568 l 542 568 l 519 394 l 692 394 l 681 333 l 508 333 l 471 58 l 397 58 l 433 333 l 275 333 l 238 58 l 163 58 l 200 333 l 25 333 l 36 394 l 211 394 m 286 394 l 444 394 l 467 568 l 308 568 l 286 394 z "},"$":{"ha":750,"x_min":44,"x_max":700,"o":"m 44 149 l 113 194 q 367 86 181 86 q 558 140 493 86 q 615 269 615 188 q 549 401 615 357 q 494 430 518 422 q 358 464 471 438 q 131 571 196 503 q 72 729 72 631 q 103 854 72 799 q 189 942 133 910 q 339 976 242 971 l 339 1126 l 419 1126 l 419 975 q 646 865 581 961 l 579 822 q 367 906 518 906 q 206 854 261 906 q 157 735 157 810 q 219 608 157 653 q 400 539 274 568 q 536 503 501 515 q 607 465 571 490 q 700 276 700 404 q 619 86 700 153 q 419 15 547 28 l 419 -183 l 339 -183 l 339 14 q 179 44 240 21 q 44 149 89 79 z "},"%":{"ha":1192,"x_min":65,"x_max":1126,"o":"m 65 657 l 65 789 q 119 958 65 907 q 264 1003 168 1003 q 417 943 369 1003 q 458 789 458 890 l 458 657 q 404 488 458 539 q 261 443 357 443 q 107 501 154 443 q 65 657 65 554 m 138 665 q 263 501 139 501 q 386 665 386 501 l 386 781 q 263 944 386 944 q 138 781 138 944 l 138 665 m 733 203 l 733 335 q 788 504 733 451 q 929 549 835 549 q 1085 489 1038 549 q 1126 335 1126 438 l 1126 203 q 1071 33 1126 86 q 929 -11 1024 -11 q 774 49 821 -11 q 733 203 733 100 m 806 211 q 929 47 806 47 q 1053 211 1053 47 l 1053 326 q 929 490 1053 490 q 806 326 806 490 l 806 211 m 400 0 l 711 992 l 790 992 l 481 0 l 400 0 z "},"&":{"ha":1140,"x_min":160,"x_max":965,"o":"m 439 543 q 326 712 350 665 q 303 811 303 758 q 376 971 303 911 q 536 1021 439 1021 q 719 953 653 1021 q 778 804 778 894 q 722 653 778 719 q 560 519 674 593 l 774 228 q 881 446 849 326 l 965 446 q 824 169 918 289 l 954 0 l 853 0 l 767 117 q 594 -6 694 39 q 424 -43 507 -43 q 222 33 293 -43 q 160 208 160 100 q 294 454 160 351 q 439 543 342 489 m 510 581 q 651 690 608 639 q 694 801 694 742 q 646 915 694 874 q 539 950 604 950 q 424 907 465 950 q 386 811 386 869 q 403 737 386 769 q 510 581 421 704 m 490 482 q 360 401 401 432 q 246 208 246 324 q 304 72 246 121 q 436 31 354 31 q 719 172 583 31 l 490 482 z "},"'":{"ha":333,"x_min":124,"x_max":210,"o":"m 129 642 l 124 992 l 210 992 l 204 642 l 129 642 z "},"(":{"ha":596,"x_min":208,"x_max":472,"o":"m 472 -125 l 408 -164 q 249 169 296 8 q 208 479 208 310 q 263 829 208 669 q 408 1121 310 969 l 472 1083 q 375 890 411 976 q 294 478 294 708 q 385 42 294 240 q 472 -125 419 -33 z "},")":{"ha":596,"x_min":124,"x_max":388,"o":"m 124 1083 l 186 1121 q 346 789 299 951 q 388 479 388 646 q 333 126 388 288 q 186 -164 285 -15 l 124 -125 q 221 67 182 -22 q 300 479 300 249 q 210 915 300 717 q 124 1083 175 992 z "},"*":{"ha":750,"x_min":81,"x_max":668,"o":"m 375 740 l 244 525 l 168 572 l 319 781 l 81 832 l 103 917 l 339 842 l 329 1078 l 419 1078 l 410 842 l 646 917 l 668 832 l 429 781 l 582 572 l 506 525 l 375 740 z "},"+":{"ha":750,"x_min":44,"x_max":707,"o":"m 44 474 l 44 543 l 338 543 l 338 842 l 414 842 l 414 543 l 707 543 l 707 474 l 414 474 l 414 176 l 338 176 l 338 474 l 44 474 z "},",":{"ha":385,"x_min":89,"x_max":250,"o":"m 89 -261 l 154 121 l 250 121 l 160 -261 l 89 -261 z "},"-":{"ha":665,"x_min":146,"x_max":518,"o":"m 146 472 l 146 546 l 518 546 l 518 472 l 146 472 z "},".":{"ha":386,"x_min":150,"x_max":236,"o":"m 150 0 l 150 121 l 236 121 l 236 0 l 150 0 z "},"/":{"ha":571,"x_min":79,"x_max":494,"o":"m 79 -31 l 410 1022 l 494 1022 l 164 -31 l 79 -31 z "},":":{"ha":386,"x_min":150,"x_max":236,"o":"m 150 0 l 150 121 l 236 121 l 236 0 l 150 0 m 150 571 l 150 692 l 236 692 l 236 571 l 150 571 z "},";":{"ha":386,"x_min":89,"x_max":250,"o":"m 89 -261 l 154 121 l 250 121 l 160 -261 l 89 -261 m 157 571 l 157 692 l 243 692 l 243 571 l 157 571 z "},"<":{"ha":750,"x_min":63,"x_max":638,"o":"m 163 511 l 638 271 l 638 189 l 63 485 l 63 538 l 638 833 l 638 751 l 163 511 z "},"=":{"ha":750,"x_min":61,"x_max":688,"o":"m 61 369 l 61 438 l 688 438 l 688 369 l 61 369 m 61 581 l 61 649 l 688 649 l 688 581 l 61 581 z "},">":{"ha":750,"x_min":113,"x_max":688,"o":"m 588 511 l 113 751 l 113 833 l 688 538 l 688 485 l 113 189 l 113 271 l 588 511 z "},"?":{"ha":815,"x_min":115,"x_max":708,"o":"m 365 257 l 365 303 q 390 431 365 385 q 497 549 414 476 q 579 631 560 603 q 622 751 622 688 q 558 886 622 836 q 422 931 503 931 q 246 849 308 931 q 196 724 214 807 l 115 738 q 425 1004 169 1004 q 640 924 561 1004 q 708 749 708 854 q 678 626 708 679 q 565 503 647 574 q 458 394 482 431 q 435 299 435 357 l 435 257 l 365 257 m 358 0 l 358 121 l 443 121 l 443 0 l 358 0 z "},"@":{"ha":1228,"x_min":81,"x_max":1147,"o":"m 832 725 l 892 725 l 818 376 q 808 304 808 333 q 878 242 808 242 q 1026 340 968 242 q 1076 544 1076 426 q 1053 692 1076 621 q 990 810 1031 763 q 826 915 931 878 q 631 946 736 946 q 265 788 396 946 q 153 426 153 649 q 290 68 153 183 q 631 -33 410 -33 q 810 -15 731 -33 q 976 43 890 3 l 1004 -11 q 831 -77 917 -57 q 635 -97 744 -97 q 204 53 344 -97 q 81 421 81 185 q 250 871 81 711 q 636 1008 397 1008 q 1026 865 886 1008 q 1147 542 1147 740 q 1058 269 1147 374 q 871 179 982 179 q 781 207 808 179 q 751 297 753 235 q 553 176 675 176 q 415 232 460 176 q 375 368 375 281 q 463 643 375 529 q 656 740 538 740 q 750 717 714 740 q 813 640 786 693 l 832 725 m 657 678 q 513 589 571 678 q 467 486 483 546 q 450 371 450 426 q 561 240 450 240 q 721 346 658 240 q 782 547 782 447 q 743 646 782 611 q 657 678 710 678 z "},"A":{"ha":824,"x_min":8,"x_max":817,"o":"m 643 226 l 182 226 l 103 0 l 8 0 l 372 992 l 453 992 l 817 0 l 722 0 l 643 226 m 619 299 l 413 876 l 206 299 l 619 299 z "},"B":{"ha":890,"x_min":154,"x_max":804,"o":"m 154 0 l 154 992 l 511 992 q 628 978 583 992 q 710 932 674 964 q 785 739 785 863 q 658 518 785 583 q 743 458 721 485 q 804 265 804 386 q 718 53 804 124 q 641 12 683 24 q 532 0 599 0 l 154 0 m 240 547 l 507 547 q 643 589 596 547 q 697 733 697 639 q 635 883 697 835 q 507 919 589 919 l 240 919 l 240 547 m 240 72 l 526 72 q 663 117 617 72 q 718 271 718 169 q 701 367 718 322 q 656 436 683 411 q 526 475 610 475 l 240 475 l 240 72 z "},"C":{"ha":882,"x_min":131,"x_max":767,"o":"m 685 232 l 767 222 q 665 43 758 106 q 454 -12 583 -12 q 189 115 272 -12 q 144 227 157 163 q 131 396 131 292 l 131 594 q 147 777 131 708 q 203 896 164 846 q 456 1003 289 1003 q 681 932 600 1003 q 758 765 751 869 l 678 760 q 601 890 667 846 q 457 929 544 929 q 267 839 322 929 q 217 593 217 758 l 217 399 q 282 131 217 208 q 457 61 339 61 q 621 113 560 61 q 685 232 675 157 z "},"D":{"ha":944,"x_min":154,"x_max":814,"o":"m 154 0 l 154 992 l 461 992 q 701 921 617 992 q 788 801 763 871 q 814 617 814 731 l 814 375 q 788 192 814 261 q 701 71 763 122 q 461 0 617 0 l 154 0 m 240 72 l 449 72 q 644 132 581 72 q 708 233 689 174 q 728 385 728 293 l 728 607 q 708 759 728 700 q 644 860 689 818 q 449 919 581 919 l 240 919 l 240 72 z "},"E":{"ha":803,"x_min":154,"x_max":719,"o":"m 154 0 l 154 992 l 719 992 l 719 918 l 240 918 l 240 539 l 650 539 l 650 465 l 240 465 l 240 74 l 719 74 l 719 0 l 154 0 z "},"F":{"ha":757,"x_min":154,"x_max":717,"o":"m 154 0 l 154 992 l 717 992 l 717 918 l 240 918 l 240 531 l 646 531 l 646 457 l 240 457 l 240 0 l 154 0 z "},"G":{"ha":922,"x_min":131,"x_max":808,"o":"m 500 439 l 500 510 l 808 510 l 808 360 q 791 201 808 263 q 732 92 774 139 q 471 -12 642 -12 q 190 115 278 -12 q 144 227 158 163 q 131 396 131 292 l 131 594 q 147 778 131 710 q 204 896 164 846 q 464 1003 293 1003 q 696 932 613 1003 q 775 765 768 869 l 694 760 q 615 890 682 846 q 465 929 556 929 q 268 839 326 929 q 217 593 217 758 l 217 399 q 285 131 217 208 q 468 61 344 61 q 671 149 604 61 q 711 230 700 186 q 722 344 722 274 l 722 439 l 500 439 z "},"H":{"ha":946,"x_min":154,"x_max":792,"o":"m 154 0 l 154 992 l 240 992 l 240 539 l 706 539 l 706 992 l 792 992 l 792 0 l 706 0 l 706 465 l 240 465 l 240 0 l 154 0 z "},"I":{"ha":394,"x_min":154,"x_max":240,"o":"m 154 0 l 154 992 l 240 992 l 240 0 l 154 0 z "},"J":{"ha":635,"x_min":-7,"x_max":489,"o":"m 403 992 l 489 992 l 489 386 q 481 205 489 260 q 453 110 474 150 q 219 -11 388 -11 q 99 8 151 -11 q -7 75 46 28 l 42 135 q 217 63 117 63 q 385 175 343 63 q 403 382 403 224 l 403 992 z "},"K":{"ha":860,"x_min":156,"x_max":847,"o":"m 156 0 l 156 992 l 242 992 l 242 404 l 707 992 l 808 992 l 488 594 l 847 0 l 749 0 l 432 533 l 242 294 l 242 0 l 156 0 z "},"L":{"ha":735,"x_min":154,"x_max":722,"o":"m 154 0 l 154 992 l 240 992 l 240 74 l 722 74 l 722 0 l 154 0 z "},"M":{"ha":1133,"x_min":154,"x_max":979,"o":"m 154 0 l 154 992 l 239 992 l 567 308 l 893 992 l 979 992 l 979 0 l 894 0 l 894 824 l 594 199 l 539 199 l 238 824 l 238 0 l 154 0 z "},"N":{"ha":1006,"x_min":154,"x_max":851,"o":"m 154 0 l 154 992 l 236 992 l 767 149 l 767 992 l 851 992 l 851 0 l 769 0 l 239 843 l 239 0 l 154 0 z "},"O":{"ha":942,"x_min":131,"x_max":813,"o":"m 131 372 l 131 619 q 149 787 131 722 q 211 901 168 851 q 471 1004 303 1004 q 744 883 653 1004 q 797 776 781 838 q 813 619 813 714 l 813 372 q 794 204 813 269 q 731 90 775 139 q 471 -12 639 -12 q 197 107 289 -12 q 146 216 161 154 q 131 372 131 278 m 217 382 q 231 240 217 292 q 278 144 244 188 q 471 61 343 61 q 675 158 610 61 q 715 250 703 200 q 726 382 726 300 l 726 610 q 713 751 726 697 q 665 847 699 804 q 471 931 599 931 q 267 833 333 931 q 228 742 239 792 q 217 610 217 692 l 217 382 z "},"P":{"ha":844,"x_min":156,"x_max":778,"o":"m 242 397 l 242 0 l 156 0 l 156 992 l 469 992 q 612 974 557 992 q 707 913 667 956 q 778 694 778 836 q 694 464 778 542 q 469 397 622 397 l 242 397 m 240 471 l 469 471 q 692 694 692 471 q 626 872 692 814 q 469 919 575 919 l 240 919 l 240 471 z "},"Q":{"ha":942,"x_min":131,"x_max":881,"o":"m 717 75 q 610 8 667 29 q 471 -12 553 -12 q 197 107 289 -12 q 146 216 161 154 q 131 372 131 278 l 131 619 q 149 787 131 722 q 211 901 168 851 q 471 1004 303 1004 q 744 883 653 1004 q 797 776 781 838 q 813 619 813 714 l 813 372 q 760 131 813 213 l 881 32 l 835 -21 l 717 75 m 650 128 l 499 251 l 544 304 l 692 186 q 719 269 711 226 q 726 382 726 311 l 726 610 q 713 751 726 697 q 665 847 699 804 q 471 931 599 931 q 267 833 333 931 q 228 742 239 792 q 217 610 217 692 l 217 382 q 231 241 217 294 q 278 144 244 188 q 471 61 343 61 q 650 128 586 61 z "},"R":{"ha":899,"x_min":156,"x_max":793,"o":"m 242 440 l 242 0 l 156 0 l 156 992 l 485 992 q 624 975 569 992 q 715 919 678 958 q 786 719 786 849 q 574 450 786 479 l 793 0 l 697 0 l 489 440 l 242 440 m 240 513 l 493 513 q 699 715 699 513 q 478 919 699 919 l 240 919 l 240 513 z "},"S":{"ha":807,"x_min":78,"x_max":733,"o":"m 78 125 l 146 169 q 400 63 214 63 q 592 121 526 63 q 649 258 649 172 q 583 399 649 351 q 526 429 551 421 q 393 465 501 438 q 167 575 232 504 q 108 740 108 638 q 197 942 108 872 q 404 1003 275 1003 q 679 890 601 1003 l 611 846 q 403 931 553 931 q 242 875 297 931 q 193 746 193 826 q 256 610 193 658 q 435 538 310 568 q 571 500 538 513 q 642 463 604 488 q 733 264 733 399 q 635 51 733 124 q 399 -11 549 -11 q 78 125 165 -11 z "},"T":{"ha":769,"x_min":50,"x_max":719,"o":"m 343 0 l 343 918 l 50 918 l 50 992 l 719 992 l 719 918 l 429 918 l 429 0 l 343 0 z "},"U":{"ha":961,"x_min":150,"x_max":811,"o":"m 150 992 l 236 992 l 236 363 q 245 236 236 281 q 278 157 254 192 q 475 63 340 63 q 609 88 557 63 q 693 172 661 114 q 725 363 725 229 l 725 992 l 811 992 l 811 363 q 799 203 811 258 q 751 104 786 149 q 481 -11 664 -11 q 197 121 282 -11 q 160 215 171 163 q 150 363 150 267 l 150 992 z "},"V":{"ha":771,"x_min":21,"x_max":750,"o":"m 350 0 l 21 992 l 108 992 l 386 133 l 663 992 l 750 992 l 421 0 l 350 0 z "},"W":{"ha":1193,"x_min":43,"x_max":1149,"o":"m 292 0 l 43 992 l 131 992 l 332 144 l 568 992 l 625 992 l 861 144 l 1063 992 l 1149 992 l 900 0 l 829 0 l 596 832 l 363 0 l 292 0 z "},"X":{"ha":772,"x_min":46,"x_max":729,"o":"m 336 521 l 69 992 l 165 992 l 396 585 l 618 992 l 710 992 l 440 508 l 729 0 l 633 0 l 382 444 l 138 0 l 46 0 l 336 521 z "},"Y":{"ha":732,"x_min":10,"x_max":725,"o":"m 325 0 l 325 358 l 10 992 l 101 992 l 368 449 l 633 992 l 725 992 l 411 358 l 411 0 l 325 0 z "},"Z":{"ha":743,"x_min":69,"x_max":665,"o":"m 69 0 l 69 64 l 547 918 l 96 918 l 96 992 l 643 992 l 643 928 l 165 74 l 665 74 l 665 0 l 69 0 z "},"[":{"ha":596,"x_min":233,"x_max":478,"o":"m 233 -136 l 233 1093 l 478 1093 l 478 1029 l 317 1029 l 317 -72 l 478 -72 l 478 -136 l 233 -136 z "},"\\":{"ha":571,"x_min":76,"x_max":492,"o":"m 492 -31 l 407 -31 l 76 1022 l 161 1022 l 492 -31 z "},"]":{"ha":596,"x_min":118,"x_max":363,"o":"m 363 1093 l 363 -136 l 118 -136 l 118 -72 l 279 -72 l 279 1029 l 118 1029 l 118 1093 l 363 1093 z "},"^":{"ha":750,"x_min":64,"x_max":686,"o":"m 375 904 l 158 533 l 64 533 l 353 1000 l 397 1000 l 686 533 l 592 533 l 375 904 z "},"_":{"ha":653,"x_min":-35,"x_max":688,"o":"m -35 -237 l -35 -174 l 688 -174 l 688 -237 l -35 -237 z "},"`":{"ha":694,"x_min":201,"x_max":410,"o":"m 410 810 l 346 810 l 201 1000 l 308 1000 l 410 810 z "},"a":{"ha":724,"x_min":72,"x_max":597,"o":"m 515 397 l 515 457 q 488 579 515 542 q 349 633 447 633 q 172 563 239 633 l 115 608 q 356 703 197 703 q 567 610 508 703 q 591 545 585 581 q 597 446 597 510 l 597 0 l 531 0 l 524 53 q 444 2 490 17 q 317 -12 399 -12 q 119 39 174 -12 q 72 189 72 85 q 139 357 72 313 q 336 397 199 397 l 515 397 m 515 332 l 342 332 q 190 296 233 332 q 153 189 153 263 q 199 83 153 111 q 333 58 239 58 q 494 108 456 58 q 515 208 515 136 l 515 332 z "},"b":{"ha":783,"x_min":132,"x_max":676,"o":"m 132 0 l 132 992 l 215 992 l 215 611 q 300 681 253 660 q 419 703 347 703 q 676 399 676 703 l 676 293 q 604 53 676 128 q 418 -12 540 -12 q 297 7 343 -12 q 211 75 251 26 q 206 82 208 78 l 199 0 l 132 0 m 215 294 q 226 194 217 232 q 257 126 235 157 q 407 58 306 58 q 594 296 594 58 l 594 394 q 407 633 594 633 q 215 396 215 633 l 215 294 z "},"c":{"ha":658,"x_min":107,"x_max":607,"o":"m 544 125 l 607 86 q 382 -12 532 -12 q 107 304 107 -12 l 107 368 q 378 703 107 703 q 593 600 526 703 l 528 563 q 466 617 499 601 q 383 633 433 633 q 231 560 278 633 q 190 372 190 496 l 190 294 q 247 111 190 171 q 385 58 296 58 q 544 125 488 58 z "},"d":{"ha":783,"x_min":107,"x_max":651,"o":"m 585 0 l 579 82 l 578 81 q 574 75 574 76 q 518 24 543 39 q 368 -12 458 -12 q 163 74 226 -12 q 107 293 107 147 l 107 399 q 365 703 107 703 q 484 682 438 703 q 569 611 531 661 l 569 992 l 651 992 l 651 0 l 585 0 m 569 396 q 558 497 568 460 q 526 564 549 533 q 378 633 478 633 q 190 394 190 633 l 190 296 q 378 58 190 58 q 569 294 569 58 l 569 396 z "},"e":{"ha":751,"x_min":107,"x_max":656,"o":"m 190 335 l 190 299 q 253 111 190 174 q 403 58 306 58 q 568 125 511 58 l 631 85 q 397 -12 556 -12 q 107 313 107 -12 l 107 375 q 379 703 107 703 q 597 613 531 703 q 656 375 656 532 l 656 335 l 190 335 m 190 399 l 575 399 l 575 408 q 533 565 575 507 q 382 633 486 633 q 233 567 282 633 q 190 407 190 510 l 190 399 z "},"f":{"ha":453,"x_min":74,"x_max":406,"o":"m 163 621 l 74 621 l 74 690 l 163 690 l 163 819 q 206 961 163 926 q 342 992 243 992 l 397 992 l 397 924 l 360 924 q 264 899 285 924 q 246 810 246 876 l 246 690 l 406 690 l 406 621 l 246 621 l 246 0 l 163 0 l 163 621 z "},"g":{"ha":783,"x_min":107,"x_max":651,"o":"m 569 81 q 363 -12 507 -12 q 107 293 107 -12 l 107 399 q 364 703 107 703 q 492 680 442 703 q 579 604 543 657 l 585 690 l 651 690 l 651 -8 q 364 -324 651 -324 q 132 -226 207 -324 l 194 -186 q 361 -256 254 -256 q 569 -17 567 -256 l 569 81 m 569 396 q 558 497 567 460 q 526 564 549 533 q 376 633 478 633 q 190 394 190 633 l 190 296 q 376 58 190 58 q 569 294 569 58 l 569 396 z "},"h":{"ha":782,"x_min":132,"x_max":658,"o":"m 132 0 l 132 992 l 215 992 l 215 611 q 297 681 250 660 q 414 703 343 703 q 636 569 585 703 q 658 397 658 514 l 658 0 l 575 0 l 575 390 q 528 582 575 526 q 400 631 486 631 q 253 557 296 631 q 215 353 215 492 l 215 0 l 132 0 z "},"i":{"ha":343,"x_min":129,"x_max":213,"o":"m 129 861 l 129 994 l 213 994 l 213 861 l 129 861 m 129 0 l 129 690 l 213 690 l 213 0 l 129 0 z "},"j":{"ha":351,"x_min":-39,"x_max":219,"o":"m 136 690 l 219 690 l 219 -32 q 206 -181 219 -131 q 158 -264 193 -231 q 85 -306 126 -294 q -39 -319 44 -318 l -39 -247 q 54 -236 25 -247 q 106 -193 83 -225 q 130 -135 124 -167 q 136 -40 136 -104 l 136 690 m 136 861 l 136 994 l 219 994 l 219 861 l 136 861 z "},"k":{"ha":697,"x_min":131,"x_max":675,"o":"m 131 0 l 131 992 l 214 992 l 214 267 l 547 690 l 644 690 l 410 399 l 675 0 l 582 0 l 358 336 l 214 154 l 214 0 l 131 0 z "},"l":{"ha":396,"x_min":129,"x_max":368,"o":"m 129 992 l 213 992 l 213 194 q 237 97 213 124 q 328 71 261 71 l 368 71 l 368 0 l 325 0 q 164 49 204 0 q 129 201 129 92 l 129 992 z "},"m":{"ha":1171,"x_min":132,"x_max":1047,"o":"m 132 0 l 132 690 l 197 690 l 206 597 q 393 703 260 703 q 600 576 549 703 q 810 703 653 703 q 1026 569 978 703 q 1047 397 1047 513 l 1047 0 l 964 0 l 964 390 q 944 538 964 489 q 803 631 907 631 q 665 557 706 631 q 631 353 631 492 l 631 0 l 547 0 l 547 392 q 504 582 547 526 q 388 631 465 631 q 250 557 289 631 q 215 349 215 490 l 215 0 l 132 0 z "},"n":{"ha":782,"x_min":132,"x_max":658,"o":"m 132 0 l 132 690 l 197 690 l 206 597 q 408 703 263 703 q 636 569 585 703 q 658 397 658 514 l 658 0 l 575 0 l 575 390 q 554 538 575 489 q 400 631 514 631 q 253 556 294 631 q 215 349 215 490 l 215 0 l 132 0 z "},"o":{"ha":772,"x_min":107,"x_max":665,"o":"m 107 292 l 107 399 q 386 703 107 703 q 665 399 665 703 l 665 292 q 586 53 665 128 q 385 -12 517 -12 q 107 292 107 -12 m 190 294 q 246 107 193 163 q 386 58 293 58 q 582 294 582 58 l 582 394 q 386 633 582 633 q 190 394 190 633 l 190 294 z "},"p":{"ha":783,"x_min":132,"x_max":676,"o":"m 132 -312 l 132 690 l 199 690 l 208 608 q 418 703 275 703 q 676 399 676 703 l 676 293 q 419 -12 676 -12 q 215 76 285 -12 l 215 -312 l 132 -312 m 215 294 q 226 194 217 232 q 257 126 235 157 q 407 58 306 58 q 594 296 594 58 l 594 394 q 407 633 594 633 q 215 396 215 633 l 215 294 z "},"q":{"ha":783,"x_min":107,"x_max":651,"o":"m 569 -312 l 569 76 q 364 -12 500 -12 q 107 293 107 -12 l 107 399 q 365 703 107 703 q 576 608 510 703 l 585 690 l 651 690 l 651 -312 l 569 -312 m 569 396 q 558 497 568 460 q 526 564 549 533 q 378 633 478 633 q 190 394 190 633 l 190 296 q 378 58 190 58 q 569 294 569 58 l 569 396 z "},"r":{"ha":511,"x_min":132,"x_max":508,"o":"m 132 0 l 132 690 l 199 690 l 207 601 q 383 703 260 703 q 508 671 447 703 l 474 599 q 375 629 424 629 q 247 550 285 629 q 215 339 215 482 l 215 0 l 132 0 z "},"s":{"ha":647,"x_min":44,"x_max":576,"o":"m 44 83 l 104 126 q 188 74 142 89 q 303 58 233 58 q 494 188 494 58 q 443 285 494 257 q 308 318 407 304 q 199 341 235 329 q 138 375 163 353 q 83 506 83 422 q 149 658 83 607 q 303 703 206 703 q 544 603 465 703 l 481 563 q 408 617 447 600 q 310 633 368 633 q 197 597 235 633 q 165 510 165 565 q 213 419 165 447 q 331 389 243 401 q 449 366 408 378 q 515 333 489 354 q 576 185 576 289 q 306 -12 576 -12 q 44 83 121 -12 z "},"t":{"ha":457,"x_min":69,"x_max":381,"o":"m 156 621 l 69 621 l 69 690 l 156 690 l 158 919 l 239 919 l 239 690 l 374 690 l 374 621 l 239 621 l 239 194 q 263 97 239 124 q 354 71 288 71 l 381 71 l 381 0 l 354 0 q 190 47 229 0 q 156 201 156 89 l 156 621 z "},"u":{"ha":767,"x_min":125,"x_max":636,"o":"m 125 690 l 208 690 l 208 300 q 229 153 208 203 q 375 60 267 60 q 518 135 476 60 q 553 342 553 200 l 553 690 l 636 690 l 636 0 l 571 0 l 563 93 q 368 -12 508 -12 q 146 121 196 -12 q 125 293 125 178 l 125 690 z "},"v":{"ha":667,"x_min":42,"x_max":625,"o":"m 297 0 l 42 690 l 126 690 l 333 115 l 540 690 l 625 690 l 369 0 l 297 0 z "},"w":{"ha":1067,"x_min":60,"x_max":1008,"o":"m 275 0 l 60 690 l 144 690 l 313 118 l 506 690 l 563 690 l 756 118 l 924 690 l 1008 690 l 793 0 l 728 0 l 533 558 l 340 0 l 275 0 z "},"x":{"ha":631,"x_min":42,"x_max":581,"o":"m 267 354 l 60 690 l 154 690 l 322 417 l 490 690 l 581 690 l 364 349 l 576 0 l 482 0 l 308 285 l 133 0 l 42 0 l 267 354 z "},"y":{"ha":667,"x_min":35,"x_max":622,"o":"m 297 -4 l 35 690 l 119 690 l 342 90 l 538 690 l 622 690 l 340 -136 q 246 -289 300 -254 q 89 -319 197 -319 l 89 -249 q 198 -224 165 -247 q 256 -125 231 -200 l 297 -4 z "},"z":{"ha":656,"x_min":67,"x_max":565,"o":"m 67 0 l 67 54 l 439 619 l 94 619 l 94 690 l 543 690 l 543 636 l 171 71 l 565 71 l 565 0 l 67 0 z "},"{":{"ha":596,"x_min":99,"x_max":482,"o":"m 224 510 q 285 471 265 494 q 313 417 308 443 q 317 293 317 392 l 317 163 q 335 -12 317 32 q 457 -75 358 -75 l 482 -75 l 482 -136 l 442 -136 q 275 -86 319 -136 q 242 -14 250 -57 q 233 126 233 29 l 233 288 q 230 403 233 379 q 210 447 226 426 q 110 483 181 483 l 99 483 l 99 538 l 110 538 q 210 572 181 538 q 230 617 226 593 q 233 733 233 642 l 233 829 q 242 970 233 928 q 275 1043 250 1013 q 442 1093 319 1093 l 482 1093 l 482 1032 l 457 1032 q 335 969 358 1032 q 317 794 317 924 l 317 728 q 313 601 317 626 q 285 549 308 575 q 263 527 272 533 q 224 510 253 521 z "},"|":{"ha":750,"x_min":338,"x_max":414,"o":"m 338 -136 l 338 1093 l 414 1093 l 414 -136 l 338 -136 z "},"}":{"ha":596,"x_min":113,"x_max":496,"o":"m 372 510 q 311 549 329 526 q 283 601 288 575 q 278 728 278 626 l 278 794 q 272 923 278 883 q 253 986 267 963 q 138 1032 224 1032 l 113 1032 l 113 1093 l 153 1093 q 319 1043 276 1093 q 353 970 344 1013 q 363 829 363 928 l 363 733 q 366 617 363 642 q 386 572 369 593 q 486 538 414 538 l 496 538 l 496 483 l 486 483 q 386 447 414 483 q 366 403 369 426 q 363 288 363 379 l 363 126 q 353 -14 363 29 q 319 -86 344 -57 q 153 -136 276 -136 l 113 -136 l 113 -75 l 138 -75 q 256 -24 228 -75 q 273 39 268 0 q 278 163 278 78 l 278 293 q 283 417 278 392 q 310 471 288 443 q 372 510 331 494 z "},"~":{"ha":750,"x_min":64,"x_max":688,"o":"m 122 428 l 64 442 q 133 565 93 528 q 238 603 172 603 q 311 590 279 603 q 396 539 343 576 q 467 493 444 504 q 517 482 490 482 q 629 588 589 482 l 688 571 q 619 451 660 488 q 514 415 579 415 q 444 428 474 415 q 361 479 414 440 q 290 524 313 514 q 239 535 267 535 q 122 428 163 535 z "},"Ä":{"ha":824,"x_min":8,"x_max":817,"o":"m 643 226 l 182 226 l 103 0 l 8 0 l 372 992 l 453 992 l 817 0 l 722 0 l 643 226 m 619 299 l 413 876 l 206 299 l 619 299 m 240 1114 l 240 1247 l 317 1247 l 317 1114 l 240 1114 m 507 1114 l 507 1247 l 585 1247 l 585 1114 l 507 1114 z "},"Å":{"ha":824,"x_min":8,"x_max":817,"o":"m 643 226 l 182 226 l 103 0 l 8 0 l 372 992 l 453 992 l 817 0 l 722 0 l 643 226 m 619 299 l 413 876 l 206 299 l 619 299 m 413 1360 q 515 1318 478 1360 q 547 1226 547 1283 q 506 1124 547 1161 q 413 1092 469 1092 q 310 1133 347 1092 q 276 1226 276 1169 q 318 1328 276 1292 q 413 1360 354 1360 m 413 1311 q 359 1289 378 1311 q 340 1225 340 1267 q 359 1162 340 1185 q 413 1139 378 1139 q 465 1162 446 1139 q 483 1225 483 1185 q 465 1289 483 1267 q 413 1311 446 1311 z "},"Ç":{"ha":882,"x_min":131,"x_max":767,"o":"m 685 232 l 767 222 q 665 43 758 106 q 454 -12 583 -12 q 189 115 272 -12 q 144 227 157 163 q 131 396 131 292 l 131 594 q 147 777 131 708 q 203 896 164 846 q 456 1003 289 1003 q 681 932 600 1003 q 758 765 751 869 l 678 760 q 601 890 667 846 q 457 929 544 929 q 267 839 322 929 q 217 593 217 758 l 217 399 q 282 131 217 208 q 457 61 339 61 q 621 113 560 61 q 685 232 675 157 m 340 -299 l 414 -100 l 507 -100 l 400 -299 l 340 -299 z "},"É":{"ha":803,"x_min":154,"x_max":719,"o":"m 154 0 l 154 992 l 719 992 l 719 918 l 240 918 l 240 539 l 650 539 l 650 465 l 240 465 l 240 74 l 719 74 l 719 0 l 154 0 m 389 1103 l 489 1293 l 597 1293 l 453 1103 l 389 1103 z "},"Ñ":{"ha":1006,"x_min":154,"x_max":851,"o":"m 154 0 l 154 992 l 236 992 l 767 149 l 767 992 l 851 992 l 851 0 l 769 0 l 239 843 l 239 0 l 154 0 m 360 1128 l 303 1128 q 351 1237 324 1206 q 425 1268 378 1268 q 525 1224 475 1268 q 600 1179 575 1179 q 661 1257 639 1179 l 718 1257 q 671 1147 697 1178 q 599 1117 644 1117 q 547 1126 568 1117 q 496 1163 525 1136 q 421 1207 449 1207 q 360 1128 381 1207 z "},"Ö":{"ha":942,"x_min":131,"x_max":813,"o":"m 131 372 l 131 619 q 149 787 131 722 q 211 901 168 851 q 471 1004 303 1004 q 744 883 653 1004 q 797 776 781 838 q 813 619 813 714 l 813 372 q 794 204 813 269 q 731 90 775 139 q 471 -12 639 -12 q 197 107 289 -12 q 146 216 161 154 q 131 372 131 278 m 217 382 q 231 240 217 292 q 278 144 244 188 q 471 61 343 61 q 675 158 610 61 q 715 250 703 200 q 726 382 726 300 l 726 610 q 713 751 726 697 q 665 847 699 804 q 471 931 599 931 q 267 833 333 931 q 228 742 239 792 q 217 610 217 692 l 217 382 m 299 1114 l 299 1247 l 376 1247 l 376 1114 l 299 1114 m 567 1114 l 567 1247 l 643 1247 l 643 1114 l 567 1114 z "},"Ü":{"ha":961,"x_min":150,"x_max":811,"o":"m 150 992 l 236 992 l 236 363 q 245 236 236 281 q 278 157 254 192 q 475 63 340 63 q 609 88 557 63 q 693 172 661 114 q 725 363 725 229 l 725 992 l 811 992 l 811 363 q 799 203 811 258 q 751 104 786 149 q 481 -11 664 -11 q 197 121 282 -11 q 160 215 171 163 q 150 363 150 267 l 150 992 m 308 1114 l 308 1247 l 385 1247 l 385 1114 l 308 1114 m 576 1114 l 576 1247 l 653 1247 l 653 1114 l 576 1114 z "},"á":{"ha":724,"x_min":72,"x_max":597,"o":"m 515 397 l 515 457 q 488 579 515 542 q 349 633 447 633 q 172 563 239 633 l 115 608 q 356 703 197 703 q 567 610 508 703 q 591 545 585 581 q 597 446 597 510 l 597 0 l 531 0 l 524 53 q 444 2 490 17 q 317 -12 399 -12 q 119 39 174 -12 q 72 189 72 85 q 139 357 72 313 q 336 397 199 397 l 515 397 m 515 332 l 342 332 q 190 296 233 332 q 153 189 153 263 q 199 83 153 111 q 333 58 239 58 q 494 108 456 58 q 515 208 515 136 l 515 332 m 310 810 l 410 1000 l 518 1000 l 374 810 l 310 810 z "},"à":{"ha":724,"x_min":72,"x_max":597,"o":"m 515 397 l 515 457 q 488 579 515 542 q 349 633 447 633 q 172 563 239 633 l 115 608 q 356 703 197 703 q 567 610 508 703 q 591 545 585 581 q 597 446 597 510 l 597 0 l 531 0 l 524 53 q 444 2 490 17 q 317 -12 399 -12 q 119 39 174 -12 q 72 189 72 85 q 139 357 72 313 q 336 397 199 397 l 515 397 m 515 332 l 342 332 q 190 296 233 332 q 153 189 153 263 q 199 83 153 111 q 333 58 239 58 q 494 108 456 58 q 515 208 515 136 l 515 332 m 439 810 l 375 810 l 231 1000 l 338 1000 l 439 810 z "},"â":{"ha":724,"x_min":72,"x_max":597,"o":"m 515 397 l 515 457 q 488 579 515 542 q 349 633 447 633 q 172 563 239 633 l 115 608 q 356 703 197 703 q 567 610 508 703 q 591 545 585 581 q 597 446 597 510 l 597 0 l 531 0 l 524 53 q 444 2 490 17 q 317 -12 399 -12 q 119 39 174 -12 q 72 189 72 85 q 139 357 72 313 q 336 397 199 397 l 515 397 m 515 332 l 342 332 q 190 296 233 332 q 153 189 153 263 q 199 83 153 111 q 333 58 239 58 q 494 108 456 58 q 515 208 515 136 l 515 332 m 363 931 l 261 817 l 165 817 l 338 993 l 386 993 l 558 817 l 463 817 l 363 931 z "},"ä":{"ha":724,"x_min":72,"x_max":597,"o":"m 515 397 l 515 457 q 488 579 515 542 q 349 633 447 633 q 172 563 239 633 l 115 608 q 356 703 197 703 q 567 610 508 703 q 591 545 585 581 q 597 446 597 510 l 597 0 l 531 0 l 524 53 q 444 2 490 17 q 317 -12 399 -12 q 119 39 174 -12 q 72 189 72 85 q 139 357 72 313 q 336 397 199 397 l 515 397 m 515 332 l 342 332 q 190 296 233 332 q 153 189 153 263 q 199 83 153 111 q 333 58 239 58 q 494 108 456 58 q 515 208 515 136 l 515 332 m 190 822 l 190 954 l 267 954 l 267 822 l 190 822 m 456 822 l 456 954 l 533 954 l 533 822 l 456 822 z "},"ã":{"ha":724,"x_min":72,"x_max":597,"o":"m 515 397 l 515 457 q 488 579 515 542 q 349 633 447 633 q 172 563 239 633 l 115 608 q 356 703 197 703 q 567 610 508 703 q 591 545 585 581 q 597 446 597 510 l 597 0 l 531 0 l 524 53 q 444 2 490 17 q 317 -12 399 -12 q 119 39 174 -12 q 72 189 72 85 q 139 357 72 313 q 336 397 199 397 l 515 397 m 515 332 l 342 332 q 190 296 233 332 q 153 189 153 263 q 199 83 153 111 q 333 58 239 58 q 494 108 456 58 q 515 208 515 136 l 515 332 m 211 835 l 154 835 q 202 944 175 913 q 278 975 229 975 q 376 931 326 975 q 451 886 426 886 q 486 903 472 886 q 513 964 500 921 l 569 964 q 523 854 549 885 q 450 824 497 824 q 399 833 421 824 q 347 869 376 843 q 274 914 300 914 q 211 835 233 914 z "},"å":{"ha":724,"x_min":72,"x_max":597,"o":"m 515 397 l 515 457 q 488 579 515 542 q 349 633 447 633 q 172 563 239 633 l 115 608 q 356 703 197 703 q 567 610 508 703 q 591 545 585 581 q 597 446 597 510 l 597 0 l 531 0 l 524 53 q 444 2 490 17 q 317 -12 399 -12 q 119 39 174 -12 q 72 189 72 85 q 139 357 72 313 q 336 397 199 397 l 515 397 m 515 332 l 342 332 q 190 296 233 332 q 153 189 153 263 q 199 83 153 111 q 333 58 239 58 q 494 108 456 58 q 515 208 515 136 l 515 332 m 369 1067 q 472 1026 435 1067 q 504 933 504 990 q 463 831 504 868 q 369 799 426 799 q 267 840 304 799 q 233 933 233 876 q 275 1035 233 999 q 369 1067 313 1067 m 369 1019 q 316 997 335 1019 q 297 933 297 974 q 316 869 297 892 q 369 847 335 847 q 422 869 403 847 q 440 933 440 892 q 422 997 440 974 q 369 1019 403 1019 z "},"ç":{"ha":658,"x_min":107,"x_max":607,"o":"m 544 125 l 607 86 q 382 -12 532 -12 q 107 304 107 -12 l 107 368 q 378 703 107 703 q 593 600 526 703 l 528 563 q 466 617 499 601 q 383 633 433 633 q 231 560 278 633 q 190 372 190 496 l 190 294 q 247 111 190 171 q 385 58 296 58 q 544 125 488 58 m 244 -299 l 319 -100 l 411 -100 l 304 -299 l 244 -299 z "},"é":{"ha":751,"x_min":107,"x_max":656,"o":"m 190 335 l 190 299 q 253 111 190 174 q 403 58 306 58 q 568 125 511 58 l 631 85 q 397 -12 556 -12 q 107 313 107 -12 l 107 375 q 379 703 107 703 q 597 613 531 703 q 656 375 656 532 l 656 335 l 190 335 m 190 399 l 575 399 l 575 408 q 533 565 575 507 q 382 633 486 633 q 233 567 282 633 q 190 407 190 510 l 190 399 m 331 810 l 431 1000 l 538 1000 l 394 810 l 331 810 z "},"è":{"ha":751,"x_min":107,"x_max":656,"o":"m 190 335 l 190 299 q 253 111 190 174 q 403 58 306 58 q 568 125 511 58 l 631 85 q 397 -12 556 -12 q 107 313 107 -12 l 107 375 q 379 703 107 703 q 597 613 531 703 q 656 375 656 532 l 656 335 l 190 335 m 190 399 l 575 399 l 575 408 q 533 565 575 507 q 382 633 486 633 q 233 567 282 633 q 190 407 190 510 l 190 399 m 450 810 l 386 810 l 243 1000 l 350 1000 l 450 810 z "},"ê":{"ha":751,"x_min":107,"x_max":656,"o":"m 190 335 l 190 299 q 253 111 190 174 q 403 58 306 58 q 568 125 511 58 l 631 85 q 397 -12 556 -12 q 107 313 107 -12 l 107 375 q 379 703 107 703 q 597 613 531 703 q 656 375 656 532 l 656 335 l 190 335 m 190 399 l 575 399 l 575 408 q 533 565 575 507 q 382 633 486 633 q 233 567 282 633 q 190 407 190 510 l 190 399 m 389 931 l 288 817 l 192 817 l 364 993 l 413 993 l 585 817 l 489 817 l 389 931 z "},"ë":{"ha":751,"x_min":107,"x_max":656,"o":"m 190 335 l 190 299 q 253 111 190 174 q 403 58 306 58 q 568 125 511 58 l 631 85 q 397 -12 556 -12 q 107 313 107 -12 l 107 375 q 379 703 107 703 q 597 613 531 703 q 656 375 656 532 l 656 335 l 190 335 m 190 399 l 575 399 l 575 408 q 533 565 575 507 q 382 633 486 633 q 233 567 282 633 q 190 407 190 510 l 190 399 m 217 822 l 217 954 l 293 954 l 293 822 l 217 822 m 482 822 l 482 954 l 560 954 l 560 822 l 482 822 z "},"í":{"ha":343,"x_min":114,"x_max":322,"o":"m 126 0 l 126 690 l 210 690 l 210 0 l 126 0 m 114 810 l 215 1000 l 322 1000 l 178 810 l 114 810 z "},"ì":{"ha":343,"x_min":21,"x_max":229,"o":"m 131 0 l 131 690 l 214 690 l 214 0 l 131 0 m 229 810 l 165 810 l 21 1000 l 128 1000 l 229 810 z "},"î":{"ha":343,"x_min":-25,"x_max":367,"o":"m 129 0 l 129 690 l 213 690 l 213 0 l 129 0 m 171 931 l 71 817 l -25 817 l 146 993 l 196 993 l 367 817 l 272 817 l 171 931 z "},"ï":{"ha":343,"x_min":-1,"x_max":342,"o":"m 129 0 l 129 690 l 213 690 l 213 0 l 129 0 m -1 822 l -1 954 l 76 954 l 76 822 l -1 822 m 264 822 l 264 954 l 342 954 l 342 822 l 264 822 z "},"ñ":{"ha":782,"x_min":132,"x_max":658,"o":"m 132 0 l 132 690 l 197 690 l 206 597 q 408 703 263 703 q 636 569 585 703 q 658 397 658 514 l 658 0 l 575 0 l 575 390 q 554 538 575 489 q 400 631 514 631 q 253 556 294 631 q 215 349 215 490 l 215 0 l 132 0 m 242 835 l 185 835 q 233 944 206 913 q 307 975 260 975 q 406 931 357 975 q 482 886 456 886 q 517 903 503 886 q 543 964 531 921 l 600 964 q 553 854 579 885 q 479 824 526 824 q 428 833 450 824 q 378 869 407 843 q 303 914 329 914 q 242 835 263 914 z "},"ó":{"ha":772,"x_min":107,"x_max":665,"o":"m 107 292 l 107 399 q 386 703 107 703 q 665 399 665 703 l 665 292 q 586 53 665 128 q 385 -12 517 -12 q 107 292 107 -12 m 190 294 q 246 107 193 163 q 386 58 293 58 q 582 294 582 58 l 582 394 q 386 633 582 633 q 190 394 190 633 l 190 294 m 328 810 l 429 1000 l 536 1000 l 392 810 l 328 810 z "},"ò":{"ha":772,"x_min":107,"x_max":665,"o":"m 107 292 l 107 399 q 386 703 107 703 q 665 399 665 703 l 665 292 q 586 53 665 128 q 385 -12 517 -12 q 107 292 107 -12 m 190 294 q 246 107 193 163 q 386 58 293 58 q 582 294 582 58 l 582 394 q 386 633 582 633 q 190 394 190 633 l 190 294 m 449 810 l 385 810 l 240 1000 l 347 1000 l 449 810 z "},"ô":{"ha":772,"x_min":107,"x_max":665,"o":"m 107 292 l 107 399 q 386 703 107 703 q 665 399 665 703 l 665 292 q 586 53 665 128 q 385 -12 517 -12 q 107 292 107 -12 m 190 294 q 246 107 193 163 q 386 58 293 58 q 582 294 582 58 l 582 394 q 386 633 582 633 q 190 394 190 633 l 190 294 m 386 931 l 286 817 l 190 817 l 361 993 l 411 993 l 582 817 l 488 817 l 386 931 z "},"ö":{"ha":772,"x_min":107,"x_max":665,"o":"m 107 292 l 107 399 q 386 703 107 703 q 665 399 665 703 l 665 292 q 586 53 665 128 q 385 -12 517 -12 q 107 292 107 -12 m 190 294 q 246 107 193 163 q 386 58 293 58 q 582 294 582 58 l 582 394 q 386 633 582 633 q 190 394 190 633 l 190 294 m 214 822 l 214 954 l 292 954 l 292 822 l 214 822 m 481 822 l 481 954 l 557 954 l 557 822 l 481 822 z "},"õ":{"ha":772,"x_min":107,"x_max":665,"o":"m 107 292 l 107 399 q 386 703 107 703 q 665 399 665 703 l 665 292 q 586 53 665 128 q 385 -12 517 -12 q 107 292 107 -12 m 190 294 q 246 107 193 163 q 386 58 293 58 q 582 294 582 58 l 582 394 q 386 633 582 633 q 190 394 190 633 l 190 294 m 235 835 l 179 835 q 227 944 200 913 q 301 975 254 975 q 400 931 350 975 q 476 886 450 886 q 538 964 515 886 l 593 964 q 547 854 574 885 q 474 824 521 824 q 422 833 444 824 q 372 869 400 843 q 297 914 324 914 q 235 835 257 914 z "},"ú":{"ha":767,"x_min":125,"x_max":636,"o":"m 125 690 l 208 690 l 208 300 q 229 153 208 203 q 375 60 267 60 q 518 135 476 60 q 553 342 553 200 l 553 690 l 636 690 l 636 0 l 571 0 l 563 93 q 368 -12 508 -12 q 146 121 196 -12 q 125 293 125 178 l 125 690 m 325 810 l 426 1000 l 533 1000 l 389 810 l 325 810 z "},"ù":{"ha":767,"x_min":125,"x_max":636,"o":"m 125 690 l 208 690 l 208 300 q 229 153 208 203 q 375 60 267 60 q 518 135 476 60 q 553 342 553 200 l 553 690 l 636 690 l 636 0 l 571 0 l 563 93 q 368 -12 508 -12 q 146 121 196 -12 q 125 293 125 178 l 125 690 m 446 810 l 382 810 l 238 1000 l 346 1000 l 446 810 z "},"û":{"ha":767,"x_min":125,"x_max":636,"o":"m 125 690 l 208 690 l 208 300 q 229 153 208 203 q 375 60 267 60 q 518 135 476 60 q 553 342 553 200 l 553 690 l 636 690 l 636 0 l 571 0 l 563 93 q 368 -12 508 -12 q 146 121 196 -12 q 125 293 125 178 l 125 690 m 383 931 l 283 817 l 188 817 l 360 993 l 408 993 l 581 817 l 485 817 l 383 931 z "},"ü":{"ha":767,"x_min":125,"x_max":636,"o":"m 125 690 l 208 690 l 208 300 q 229 153 208 203 q 375 60 267 60 q 518 135 476 60 q 553 342 553 200 l 553 690 l 636 690 l 636 0 l 571 0 l 563 93 q 368 -12 508 -12 q 146 121 196 -12 q 125 293 125 178 l 125 690 m 213 822 l 213 954 l 289 954 l 289 822 l 213 822 m 478 822 l 478 954 l 554 954 l 554 822 l 478 822 z "},"†":{"ha":750,"x_min":97,"x_max":653,"o":"m 333 603 l 97 603 l 97 675 l 333 675 l 333 992 l 417 992 l 417 675 l 653 675 l 653 603 l 417 603 l 417 -221 l 333 -221 l 333 603 z "},"°":{"ha":540,"x_min":42,"x_max":499,"o":"m 271 1032 q 444 961 382 1032 q 499 804 499 901 q 428 631 499 693 q 271 576 367 576 q 96 647 158 576 q 42 804 42 708 q 113 978 42 915 q 271 1032 174 1032 m 269 968 q 150 918 193 968 q 114 804 114 875 q 161 679 114 722 q 269 640 203 640 q 390 690 347 640 q 426 804 426 733 q 379 929 426 886 q 269 968 338 968 z "},"¢":{"ha":750,"x_min":129,"x_max":629,"o":"m 365 54 l 365 211 q 129 522 129 228 l 129 588 q 207 850 129 771 q 365 919 267 913 l 365 1069 l 446 1069 l 446 918 q 549 885 511 907 q 614 819 586 863 l 550 783 q 488 837 521 821 q 404 853 454 853 q 251 781 299 853 q 211 592 211 717 l 211 514 q 268 329 211 390 q 407 276 317 276 q 567 344 511 276 l 629 306 q 446 211 567 226 l 446 54 l 365 54 z "},"£":{"ha":750,"x_min":86,"x_max":693,"o":"m 90 0 l 90 64 q 210 174 164 93 q 250 318 250 243 q 226 435 250 369 l 86 435 l 86 508 l 193 508 q 132 636 147 590 q 117 733 117 682 q 199 940 117 867 q 386 1004 269 1004 q 592 932 519 1004 q 679 746 656 869 l 607 728 q 585 805 594 782 q 558 853 576 828 q 392 932 500 932 q 249 872 300 932 q 203 740 203 821 q 220 647 203 693 q 289 508 238 600 l 528 508 l 528 435 l 314 435 q 333 325 333 372 q 214 74 333 176 l 693 74 l 693 0 l 90 0 z "},"§":{"ha":750,"x_min":111,"x_max":639,"o":"m 239 628 q 172 692 192 656 q 153 786 153 728 q 221 953 153 896 q 381 1003 281 1003 q 486 988 443 1003 q 586 931 529 972 l 531 879 q 388 931 471 931 q 272 890 314 931 q 238 797 238 854 q 263 714 238 743 q 312 678 279 693 q 417 640 344 663 q 531 600 494 617 q 592 560 567 583 q 639 429 639 515 q 612 322 639 363 q 513 239 585 281 q 578 175 560 210 q 597 82 597 140 q 525 -85 597 -28 q 358 -136 463 -136 q 235 -115 289 -136 q 122 -46 181 -94 l 178 6 q 349 -64 253 -64 q 475 -22 431 -64 q 514 71 514 13 q 488 154 514 122 q 440 191 471 176 q 333 226 408 206 q 151 314 196 267 q 111 433 111 356 q 181 590 111 535 q 239 628 194 601 m 301 599 q 215 535 238 565 q 192 453 192 504 q 219 364 192 393 q 263 333 236 346 q 363 296 289 321 l 449 268 q 488 290 456 272 q 558 411 558 331 q 531 501 558 471 q 487 533 514 519 q 388 569 460 546 l 301 599 z "},"•":{"ha":750,"x_min":146,"x_max":603,"o":"m 146 508 q 219 674 146 610 q 375 729 283 729 q 546 658 479 729 q 603 508 603 596 q 529 343 603 407 q 375 288 465 288 q 204 358 271 288 q 146 508 146 421 z "},"¶":{"ha":799,"x_min":22,"x_max":654,"o":"m 333 -189 l 333 482 l 292 482 q 195 488 228 482 q 132 513 163 494 q 51 603 81 543 q 22 739 22 664 q 56 885 22 822 q 133 965 86 940 q 203 988 169 983 q 364 992 238 992 l 654 992 l 654 -189 l 574 -189 l 574 921 l 413 921 l 413 -189 l 333 -189 z "},"ß":{"ha":788,"x_min":131,"x_max":683,"o":"m 131 0 l 131 754 q 381 1001 131 1001 q 576 939 513 1001 q 633 788 633 885 q 618 698 633 732 q 561 622 603 664 q 660 522 635 590 q 683 343 683 463 l 683 288 q 622 56 683 118 q 449 0 569 0 l 378 0 l 378 69 l 440 69 q 571 121 539 69 q 600 283 600 167 l 600 347 q 564 538 600 492 q 446 576 532 576 l 419 576 l 419 640 l 442 640 q 554 778 554 640 q 383 933 554 933 q 249 885 289 933 q 214 754 214 842 l 214 0 l 131 0 z "},"®":{"ha":894,"x_min":61,"x_max":832,"o":"m 367 774 l 367 615 l 307 615 l 307 993 l 469 993 q 619 885 619 993 q 529 779 619 799 l 629 615 l 561 615 l 469 774 l 367 774 m 367 815 l 474 815 q 558 882 558 815 q 467 947 558 947 l 367 947 l 367 815 m 447 1186 q 736 1064 625 1186 q 832 804 832 957 q 708 518 832 628 q 447 422 601 422 q 157 544 268 422 q 61 804 61 651 q 185 1090 61 981 q 447 1186 292 1186 m 447 1126 q 217 1038 303 1126 q 126 804 126 943 q 217 571 126 665 q 447 482 303 482 q 676 571 592 482 q 767 804 767 665 q 743 931 767 869 q 676 1038 719 993 q 447 1126 590 1126 z "},"©":{"ha":1136,"x_min":53,"x_max":1083,"o":"m 703 381 l 768 375 q 578 251 760 251 q 418 314 468 251 q 383 456 383 358 l 383 536 q 393 628 383 594 q 426 688 403 663 q 579 740 478 740 q 764 615 754 740 l 699 611 q 663 666 694 646 q 581 686 632 686 q 483 651 514 686 q 453 542 453 617 l 453 450 q 483 340 453 375 q 581 306 514 306 q 703 381 688 306 m 568 1007 q 835 940 715 1007 q 1017 760 950 875 q 1083 496 1083 642 q 1017 232 1083 350 q 835 51 950 117 q 568 -15 715 -15 q 303 51 422 -15 q 121 232 186 117 q 53 496 53 350 q 121 760 53 642 q 303 940 186 875 q 568 1007 422 1007 m 568 946 q 233 801 361 946 q 122 496 122 676 q 265 157 122 288 q 568 46 389 46 q 904 189 775 46 q 1015 496 1015 314 q 957 728 1015 624 q 799 888 899 829 q 568 946 696 946 z "},"™":{"ha":1206,"x_min":25,"x_max":1096,"o":"m 210 397 l 210 933 l 25 933 l 25 992 l 465 992 l 465 933 l 281 933 l 281 397 l 210 397 m 557 397 l 557 992 l 625 992 l 826 604 l 1026 992 l 1096 992 l 1096 397 l 1026 397 l 1026 856 l 850 513 l 803 513 l 626 856 l 626 397 l 557 397 z "},"´":{"ha":694,"x_min":289,"x_max":497,"o":"m 289 810 l 390 1000 l 497 1000 l 353 810 l 289 810 z "},"¨":{"ha":694,"x_min":175,"x_max":518,"o":"m 175 822 l 175 954 l 253 954 l 253 822 l 175 822 m 440 822 l 440 954 l 518 954 l 518 822 l 440 822 z "},"≠":{"ha":750,"x_min":61,"x_max":688,"o":"m 61 369 l 61 438 l 303 438 l 368 581 l 61 581 l 61 649 l 400 649 l 475 813 l 540 785 l 476 649 l 688 649 l 688 581 l 446 581 l 381 438 l 688 438 l 688 369 l 349 369 l 274 206 l 208 233 l 272 369 l 61 369 z "},"Æ":{"ha":1314,"x_min":-46,"x_max":1232,"o":"m 667 235 l 207 235 l 54 0 l -46 0 l 611 992 l 1232 992 l 1232 918 l 753 918 l 753 539 l 1163 539 l 1163 465 l 753 465 l 753 74 l 1232 74 l 1232 0 l 667 0 l 667 235 m 667 307 l 667 918 l 650 918 l 250 307 l 667 307 z "},"Ø":{"ha":940,"x_min":114,"x_max":826,"o":"m 757 864 q 811 619 811 781 l 811 372 q 792 204 811 268 q 729 90 774 140 q 469 -12 638 -12 q 232 69 322 -12 l 171 -22 l 114 19 l 185 125 q 129 372 129 210 l 129 619 q 148 787 129 722 q 210 901 167 851 q 469 1004 301 1004 q 606 984 549 1004 q 711 919 663 964 l 769 1010 l 826 968 l 757 864 m 701 779 l 279 142 q 469 61 349 61 q 674 158 608 61 q 713 250 701 201 q 725 382 725 299 l 725 610 q 701 779 725 715 m 240 210 l 663 847 q 469 931 597 931 q 265 833 332 931 q 227 741 239 792 q 215 610 215 690 l 215 382 q 240 210 215 276 z "},"∞":{"ha":1007,"x_min":79,"x_max":929,"o":"m 504 453 q 435 363 463 388 q 282 308 372 308 q 128 369 183 308 q 79 510 79 424 q 142 664 79 608 q 282 711 196 711 q 444 647 379 711 q 504 567 465 628 q 574 657 546 633 q 726 711 636 711 q 881 649 825 711 q 929 510 929 594 q 867 356 929 411 q 726 308 813 308 q 564 371 629 308 q 504 453 542 393 m 468 510 l 460 524 q 383 614 429 581 q 289 647 336 647 q 185 604 224 647 q 150 510 150 567 q 194 406 150 444 q 289 371 232 371 q 460 496 389 371 l 468 510 m 540 510 l 549 496 q 626 403 582 436 q 718 371 671 371 q 824 415 785 371 q 857 510 857 453 q 814 614 857 575 q 719 647 776 647 q 625 614 671 647 q 549 524 579 581 l 540 510 z "},"±":{"ha":750,"x_min":44,"x_max":707,"o":"m 44 483 l 44 553 l 338 553 l 338 847 l 414 847 l 414 553 l 707 553 l 707 483 l 414 483 l 414 189 l 338 189 l 338 483 l 44 483 m 44 0 l 44 69 l 707 69 l 707 0 l 44 0 z "},"≤":{"ha":750,"x_min":63,"x_max":638,"o":"m 163 519 l 638 286 l 638 203 l 63 493 l 63 546 l 638 836 l 638 754 l 163 519 m 63 0 l 63 69 l 638 69 l 638 0 l 63 0 z "},"≥":{"ha":750,"x_min":113,"x_max":688,"o":"m 588 519 l 113 754 l 113 836 l 688 546 l 688 493 l 113 203 l 113 286 l 588 519 m 113 0 l 113 69 l 688 69 l 688 0 l 113 0 z "},"¥":{"ha":750,"x_min":29,"x_max":724,"o":"m 333 0 l 333 217 l 115 217 l 115 281 l 333 281 l 333 369 l 115 369 l 115 433 l 306 433 l 29 992 l 121 992 l 376 467 l 632 992 l 724 992 l 447 433 l 638 433 l 638 369 l 419 369 l 419 281 l 638 281 l 638 217 l 419 217 l 419 0 l 333 0 z "},"µ":{"ha":750,"x_min":119,"x_max":629,"o":"m 119 690 l 201 690 l 201 297 q 247 110 201 167 q 368 60 288 60 q 513 135 471 60 q 547 342 547 200 l 547 690 l 629 690 l 629 0 l 569 0 l 558 104 q 365 -12 507 -12 q 201 61 260 -12 l 201 -312 l 119 -312 l 119 690 z "},"∂":{"ha":750,"x_min":96,"x_max":653,"o":"m 522 646 q 464 772 521 649 q 405 841 451 800 q 315 904 358 882 q 203 940 268 928 l 214 996 q 517 824 411 969 q 621 606 583 731 q 653 393 653 496 l 653 292 q 375 -12 653 -12 q 96 292 96 -12 l 96 393 q 361 696 96 696 q 522 646 463 696 m 178 294 q 233 106 181 161 q 375 57 281 57 q 572 294 572 57 l 572 389 q 375 628 572 628 q 178 389 178 628 l 178 294 z "},"∑":{"ha":768,"x_min":88,"x_max":740,"o":"m 88 -287 l 88 -239 l 385 394 l 101 938 l 101 992 l 725 992 l 725 918 l 210 918 l 485 394 l 204 -214 l 740 -214 l 740 -287 l 88 -287 z "},"∏":{"ha":786,"x_min":93,"x_max":692,"o":"m 93 -287 l 93 992 l 692 992 l 692 -287 l 607 -287 l 607 917 l 178 917 l 178 -287 l 93 -287 z "},"∫":{"ha":596,"x_min":136,"x_max":550,"o":"m 136 -132 l 151 -62 q 203 -72 182 -72 q 289 -22 268 -72 q 301 92 301 7 l 301 851 q 328 1025 301 971 q 472 1099 367 1099 q 550 1088 507 1099 l 535 1019 q 483 1028 506 1028 q 397 978 418 1028 q 386 869 386 949 l 386 106 q 358 -68 386 -15 q 214 -142 321 -142 q 136 -132 179 -142 z "},"ª":{"ha":464,"x_min":40,"x_max":389,"o":"m 321 811 l 321 847 q 298 921 321 899 q 222 943 275 943 q 110 900 158 943 l 67 938 q 228 999 125 999 q 357 958 319 999 q 389 842 389 921 l 389 564 l 332 564 l 329 593 q 203 557 289 557 q 76 585 113 557 q 40 681 40 613 q 86 786 40 758 q 221 811 126 811 l 321 811 m 322 760 l 222 760 q 131 743 156 760 q 106 685 106 726 q 129 628 106 644 q 213 613 153 613 q 299 629 275 613 q 322 688 322 646 l 322 760 z "},"º":{"ha":492,"x_min":61,"x_max":431,"o":"m 61 742 l 61 814 q 113 960 61 915 q 246 999 157 999 q 390 947 346 999 q 431 814 431 903 l 431 742 q 379 597 431 642 q 246 557 333 557 q 100 608 144 557 q 61 742 61 653 m 129 744 q 246 614 132 614 q 363 744 363 614 l 363 811 q 246 943 363 943 q 129 811 129 943 l 129 744 z "},"æ":{"ha":1161,"x_min":72,"x_max":1064,"o":"m 568 582 q 793 703 626 703 q 1006 611 940 703 q 1064 375 1064 531 l 1064 335 l 600 335 l 600 299 q 661 111 600 174 q 811 58 715 58 q 978 125 921 58 l 1040 85 q 807 -12 964 -12 q 656 19 714 -12 q 561 119 597 51 q 481 19 539 50 q 315 -12 422 -12 q 119 39 172 -12 q 72 189 72 85 q 139 357 72 313 q 336 397 199 397 l 515 397 l 515 457 q 488 579 515 542 q 349 633 447 633 q 172 563 239 633 l 115 606 q 353 703 199 703 q 568 582 521 703 m 515 332 l 342 332 q 190 296 233 332 q 153 189 153 263 q 199 83 153 111 q 331 58 238 58 q 430 71 394 58 q 486 115 465 83 q 509 167 503 139 q 515 250 515 194 l 515 332 m 600 399 l 983 399 l 983 408 q 943 565 983 507 q 792 633 896 633 q 643 567 692 633 q 600 407 600 510 l 600 399 z "},"ø":{"ha":772,"x_min":106,"x_max":664,"o":"m 613 607 q 664 399 664 535 l 664 293 q 385 -11 664 -11 q 204 38 269 -11 l 158 -25 l 107 14 l 158 85 q 106 293 106 158 l 106 399 q 386 703 106 703 q 565 654 500 703 l 611 717 l 663 676 l 613 607 m 558 531 l 251 104 q 383 60 300 60 q 581 296 581 60 l 581 394 q 558 531 581 476 m 213 161 l 518 588 q 388 633 469 633 q 189 394 189 633 l 189 296 q 213 161 189 217 z "},"¿":{"ha":815,"x_min":111,"x_max":704,"o":"m 456 433 l 456 388 q 431 260 456 306 q 322 142 406 214 q 240 60 260 88 q 197 -61 197 3 q 261 -196 197 -144 q 397 -240 317 -240 q 574 -158 511 -240 q 624 -33 604 -118 l 704 -47 q 394 -314 651 -314 q 181 -233 260 -314 q 111 -58 111 -164 q 142 65 111 11 q 256 188 172 118 q 361 297 338 260 q 385 392 385 333 l 385 433 l 456 433 m 461 690 l 461 569 l 378 569 l 378 690 l 461 690 z "},"¡":{"ha":415,"x_min":161,"x_max":256,"o":"m 243 432 l 256 -301 l 161 -301 l 172 432 l 243 432 m 249 690 l 249 569 l 165 569 l 165 690 l 249 690 z "},"¬":{"ha":750,"x_min":63,"x_max":639,"o":"m 63 474 l 63 543 l 639 543 l 639 167 l 558 167 l 558 474 l 63 474 z "},"√":{"ha":750,"x_min":36,"x_max":960,"o":"m 292 0 l 146 426 l 36 426 l 36 497 l 208 497 l 332 110 l 625 1194 l 960 1194 l 960 1129 l 689 1129 l 381 0 l 292 0 z "},"≈":{"ha":750,"x_min":64,"x_max":688,"o":"m 122 318 l 64 332 q 133 456 93 419 q 238 493 172 493 q 311 480 279 493 q 396 429 343 467 q 468 384 444 394 q 517 374 492 374 q 629 478 589 374 l 688 461 q 619 342 660 379 q 513 306 579 306 q 444 318 474 306 q 361 369 414 331 q 289 415 313 404 q 239 426 265 426 q 122 318 163 426 m 122 538 l 64 550 q 133 674 93 638 q 238 711 172 711 q 312 699 279 711 q 396 649 344 686 q 468 603 444 614 q 518 592 492 592 q 582 616 556 592 q 629 696 608 640 l 688 681 q 619 561 660 597 q 514 525 579 525 q 444 537 474 525 q 361 588 415 549 q 289 633 313 622 q 239 644 265 644 q 122 538 163 644 z "},"∆":{"ha":750,"x_min":-26,"x_max":782,"o":"m 782 0 l -26 0 l 342 992 l 414 992 l 782 0 m 664 71 l 378 868 l 92 71 l 664 71 z "},"«":{"ha":564,"x_min":57,"x_max":508,"o":"m 383 410 l 508 239 l 460 201 l 288 410 l 460 618 l 508 582 l 383 410 m 153 410 l 278 239 l 229 201 l 57 410 l 229 618 l 278 582 l 153 410 z "},"»":{"ha":564,"x_min":54,"x_max":506,"o":"m 181 410 l 54 582 l 103 618 l 275 410 l 103 201 l 54 239 l 181 410 m 411 410 l 285 582 l 333 618 l 506 410 l 333 201 l 285 239 l 411 410 z "},"…":{"ha":1158,"x_min":150,"x_max":1008,"o":"m 150 0 l 150 121 l 236 121 l 236 0 l 150 0 m 536 0 l 536 121 l 622 121 l 622 0 l 536 0 m 922 0 l 922 121 l 1008 121 l 1008 0 l 922 0 z "},"À":{"ha":824,"x_min":8,"x_max":817,"o":"m 643 226 l 182 226 l 103 0 l 8 0 l 372 992 l 453 992 l 817 0 l 722 0 l 643 226 m 619 299 l 413 876 l 206 299 l 619 299 m 471 1103 l 407 1103 l 263 1293 l 369 1293 l 471 1103 z "},"Ã":{"ha":824,"x_min":8,"x_max":817,"o":"m 643 226 l 182 226 l 103 0 l 8 0 l 372 992 l 453 992 l 817 0 l 722 0 l 643 226 m 619 299 l 413 876 l 206 299 l 619 299 m 261 1128 l 204 1128 q 253 1237 225 1206 q 328 1268 281 1268 q 426 1224 376 1268 q 501 1179 476 1179 q 563 1257 542 1179 l 619 1257 q 573 1147 599 1178 q 500 1117 547 1117 q 448 1126 469 1117 q 397 1163 426 1136 q 324 1207 350 1207 q 261 1128 282 1207 z "},"Õ":{"ha":942,"x_min":131,"x_max":813,"o":"m 131 372 l 131 619 q 149 787 131 722 q 211 901 168 851 q 471 1004 303 1004 q 744 883 653 1004 q 797 776 781 838 q 813 619 813 714 l 813 372 q 794 204 813 269 q 731 90 775 139 q 471 -12 639 -12 q 197 107 289 -12 q 146 216 161 154 q 131 372 131 278 m 217 382 q 231 240 217 292 q 278 144 244 188 q 471 61 343 61 q 675 158 610 61 q 715 250 703 200 q 726 382 726 300 l 726 610 q 713 751 726 697 q 665 847 699 804 q 471 931 599 931 q 267 833 333 931 q 228 742 239 792 q 217 610 217 692 l 217 382 m 321 1128 l 264 1128 q 312 1237 285 1206 q 386 1268 339 1268 q 486 1224 436 1268 q 561 1179 536 1179 q 622 1257 600 1179 l 679 1257 q 632 1147 658 1178 q 558 1117 606 1117 q 508 1126 529 1117 q 457 1163 486 1136 q 382 1207 408 1207 q 321 1128 342 1207 z "},"Œ":{"ha":1374,"x_min":131,"x_max":1292,"o":"m 736 0 l 736 131 q 706 86 731 124 q 611 14 675 40 q 465 -12 547 -12 q 196 108 285 -12 q 146 217 161 156 q 131 369 131 278 l 131 621 q 149 787 131 722 q 210 900 167 851 q 464 1004 300 1004 q 651 957 576 1004 q 690 928 679 940 q 732 872 701 917 l 733 869 q 736 865 735 867 l 736 992 l 1292 992 l 1292 918 l 813 918 l 813 539 l 1221 539 l 1221 465 l 813 465 l 813 74 l 1292 74 l 1292 0 l 736 0 m 726 611 q 709 756 722 706 q 664 847 696 807 q 471 931 597 931 q 267 833 333 931 q 228 742 239 792 q 217 611 217 692 l 217 379 q 231 240 217 293 q 276 144 244 186 q 471 61 343 61 q 671 153 606 61 q 726 379 726 233 l 726 611 z "},"œ":{"ha":1228,"x_min":107,"x_max":1131,"o":"m 625 567 q 861 704 682 704 q 1074 611 1007 704 q 1131 375 1131 531 l 1131 335 l 667 335 l 667 299 q 728 111 667 174 q 878 58 782 58 q 1044 125 986 58 l 1107 88 q 874 -12 1031 -12 q 720 20 779 -12 q 625 126 661 53 q 535 20 590 51 q 383 -11 479 -11 q 107 293 107 -11 l 107 399 q 383 703 107 703 q 533 671 476 703 q 625 567 590 639 m 190 296 q 201 195 192 232 q 233 128 210 158 q 386 60 282 60 q 582 296 582 60 l 582 394 q 386 633 582 633 q 190 394 190 633 l 190 296 m 667 399 l 1051 399 l 1051 408 q 1010 565 1051 507 q 858 633 963 633 q 710 567 758 633 q 667 407 667 510 l 667 399 z "},"–":{"ha":510,"x_min":0,"x_max":538,"o":"m 538 0 l 0 0 l 0 71 l 538 71 l 538 0 z "},"—":{"ha":1131,"x_min":0,"x_max":1158,"o":"m 1158 0 l 0 0 l 0 71 l 1158 71 l 1158 0 z "},"“":{"ha":478,"x_min":50,"x_max":429,"o":"m 429 992 l 376 674 l 288 674 l 361 992 l 429 992 m 192 992 l 140 674 l 50 674 l 125 992 l 192 992 z "},"”":{"ha":478,"x_min":50,"x_max":429,"o":"m 50 674 l 103 992 l 192 992 l 118 674 l 50 674 m 288 674 l 339 992 l 429 992 l 354 674 l 288 674 z "},"‘":{"ha":242,"x_min":50,"x_max":192,"o":"m 192 992 l 140 674 l 50 674 l 125 992 l 192 992 z "},"’":{"ha":242,"x_min":50,"x_max":192,"o":"m 50 674 l 103 992 l 192 992 l 118 674 l 50 674 z "},"÷":{"ha":750,"x_min":44,"x_max":707,"o":"m 44 474 l 44 543 l 707 543 l 707 474 l 44 474 m 336 235 l 336 347 l 414 347 l 414 235 l 336 235 m 336 671 l 336 783 l 414 783 l 414 671 l 336 671 z "},"◊":{"ha":750,"x_min":21,"x_max":731,"o":"m 21 481 l 375 1000 l 731 481 l 375 -37 l 21 481 m 113 481 l 375 92 l 639 481 l 375 871 l 113 481 z "},"ÿ":{"ha":667,"x_min":35,"x_max":622,"o":"m 297 -4 l 35 690 l 119 690 l 342 90 l 538 690 l 622 690 l 340 -136 q 246 -289 300 -254 q 89 -319 197 -319 l 89 -249 q 198 -224 165 -247 q 256 -125 231 -200 l 297 -4 m 161 822 l 161 954 l 239 954 l 239 822 l 161 822 m 426 822 l 426 954 l 504 954 l 504 822 l 426 822 z "},"Ÿ":{"ha":732,"x_min":10,"x_max":725,"o":"m 325 0 l 325 358 l 10 992 l 101 992 l 368 449 l 633 992 l 725 992 l 411 358 l 411 0 l 325 0 m 194 1114 l 194 1247 l 272 1247 l 272 1114 l 194 1114 m 463 1114 l 463 1247 l 539 1247 l 539 1114 l 463 1114 z "},"⁄":{"ha":213,"x_min":-83,"x_max":307,"o":"m -83 0 l 226 992 l 307 992 l -3 0 l -83 0 z "},"¤":{"ha":750,"x_min":40,"x_max":711,"o":"m 86 121 l 40 163 l 158 285 q 96 465 96 367 q 158 646 96 564 l 40 768 l 86 810 l 203 689 q 376 747 285 747 q 549 689 468 747 l 665 810 l 711 768 l 593 646 q 656 465 656 564 q 593 285 656 367 l 711 163 l 665 121 l 549 242 q 376 183 468 183 q 203 242 283 183 l 86 121 m 375 682 q 221 614 279 682 q 171 465 171 554 q 235 301 171 364 q 375 249 292 249 q 531 317 472 249 q 581 465 581 376 q 515 629 581 567 q 375 682 460 682 z "},"‹":{"ha":333,"x_min":57,"x_max":278,"o":"m 153 410 l 278 239 l 229 201 l 57 410 l 229 618 l 278 582 l 153 410 z "},"›":{"ha":333,"x_min":54,"x_max":275,"o":"m 181 410 l 54 582 l 103 618 l 275 410 l 103 201 l 54 239 l 181 410 z "},"ﬁ":{"ha":796,"x_min":74,"x_max":665,"o":"m 163 621 l 74 621 l 74 690 l 163 690 l 163 819 q 206 961 163 926 q 342 992 243 992 l 397 992 l 397 924 l 360 924 q 264 899 285 924 q 246 810 246 876 l 246 690 l 406 690 l 406 621 l 246 621 l 246 0 l 163 0 l 163 621 m 582 861 l 582 994 l 665 994 l 665 861 l 582 861 m 582 0 l 582 690 l 665 690 l 665 0 l 582 0 z "},"ﬂ":{"ha":849,"x_min":74,"x_max":821,"o":"m 163 621 l 74 621 l 74 690 l 163 690 l 163 819 q 206 961 163 926 q 342 992 243 992 l 397 992 l 397 924 l 360 924 q 264 899 285 924 q 246 810 246 876 l 246 690 l 406 690 l 406 621 l 246 621 l 246 0 l 163 0 l 163 621 m 582 992 l 664 992 l 664 194 q 688 97 664 124 q 779 71 713 71 l 821 71 l 821 0 l 776 0 q 617 49 656 0 q 582 201 582 92 l 582 992 z "},"‡":{"ha":750,"x_min":97,"x_max":653,"o":"m 333 603 l 97 603 l 97 675 l 333 675 l 333 992 l 417 992 l 417 675 l 653 675 l 653 603 l 417 603 l 417 363 l 636 363 l 636 290 l 417 290 l 417 -221 l 333 -221 l 333 290 l 114 290 l 114 363 l 333 363 l 333 603 z "},"·":{"ha":383,"x_min":150,"x_max":236,"o":"m 150 449 l 150 569 l 236 569 l 236 449 l 150 449 z "},"‚":{"ha":242,"x_min":50,"x_max":192,"o":"m 50 -197 l 103 121 l 192 121 l 118 -197 l 50 -197 z "},"„":{"ha":478,"x_min":50,"x_max":429,"o":"m 50 -197 l 103 121 l 192 121 l 118 -197 l 50 -197 m 288 -197 l 339 121 l 429 121 l 354 -197 l 288 -197 z "},"‰":{"ha":1678,"x_min":65,"x_max":1613,"o":"m 65 657 l 65 789 q 119 958 65 907 q 264 1003 168 1003 q 417 943 369 1003 q 458 789 458 890 l 458 657 q 404 488 458 539 q 261 443 357 443 q 107 501 154 443 q 65 657 65 554 m 138 665 q 263 501 139 501 q 386 665 386 501 l 386 781 q 263 944 386 944 q 138 781 138 944 l 138 665 m 733 203 l 733 335 q 788 504 733 451 q 929 549 835 549 q 1085 489 1038 549 q 1126 335 1126 438 l 1126 203 q 1071 33 1126 86 q 929 -11 1024 -11 q 774 49 821 -11 q 733 203 733 100 m 806 211 q 929 47 806 47 q 1053 211 1053 47 l 1053 326 q 929 490 1053 490 q 806 326 806 490 l 806 211 m 1219 203 l 1219 335 q 1274 504 1219 453 q 1418 549 1322 549 q 1571 489 1524 549 q 1613 335 1613 438 l 1613 203 q 1558 33 1613 86 q 1415 -11 1510 -11 q 1261 49 1308 -11 q 1219 203 1219 100 m 1292 211 q 1415 47 1293 47 q 1540 211 1540 47 l 1540 326 q 1415 490 1540 490 q 1292 326 1292 490 l 1292 211 m 400 0 l 711 992 l 790 992 l 481 0 l 400 0 z "},"Â":{"ha":824,"x_min":8,"x_max":817,"o":"m 643 226 l 182 226 l 103 0 l 8 0 l 372 992 l 453 992 l 817 0 l 722 0 l 643 226 m 619 299 l 413 876 l 206 299 l 619 299 m 413 1224 l 311 1110 l 217 1110 l 388 1285 l 436 1285 l 608 1110 l 513 1110 l 413 1224 z "},"Ê":{"ha":803,"x_min":154,"x_max":719,"o":"m 154 0 l 154 992 l 719 992 l 719 918 l 240 918 l 240 539 l 650 539 l 650 465 l 240 465 l 240 74 l 719 74 l 719 0 l 154 0 m 443 1224 l 342 1110 l 247 1110 l 418 1285 l 467 1285 l 639 1110 l 543 1110 l 443 1224 z "},"Á":{"ha":824,"x_min":8,"x_max":817,"o":"m 643 226 l 182 226 l 103 0 l 8 0 l 372 992 l 453 992 l 817 0 l 722 0 l 643 226 m 619 299 l 413 876 l 206 299 l 619 299 m 358 1103 l 460 1293 l 567 1293 l 424 1103 l 358 1103 z "},"Ë":{"ha":803,"x_min":154,"x_max":719,"o":"m 154 0 l 154 992 l 719 992 l 719 918 l 240 918 l 240 539 l 650 539 l 650 465 l 240 465 l 240 74 l 719 74 l 719 0 l 154 0 m 269 1114 l 269 1247 l 346 1247 l 346 1114 l 269 1114 m 536 1114 l 536 1247 l 614 1247 l 614 1114 l 536 1114 z "},"È":{"ha":803,"x_min":154,"x_max":719,"o":"m 154 0 l 154 992 l 719 992 l 719 918 l 240 918 l 240 539 l 650 539 l 650 465 l 240 465 l 240 74 l 719 74 l 719 0 l 154 0 m 508 1103 l 444 1103 l 300 1293 l 407 1293 l 508 1103 z "},"Í":{"ha":394,"x_min":139,"x_max":347,"o":"m 151 0 l 151 992 l 238 992 l 238 0 l 151 0 m 139 1103 l 240 1293 l 347 1293 l 203 1103 l 139 1103 z "},"Î":{"ha":394,"x_min":1,"x_max":393,"o":"m 154 0 l 154 992 l 240 992 l 240 0 l 154 0 m 197 1224 l 97 1110 l 1 1110 l 172 1285 l 222 1285 l 393 1110 l 299 1110 l 197 1224 z "},"Ï":{"ha":394,"x_min":25,"x_max":369,"o":"m 154 0 l 154 992 l 240 992 l 240 0 l 154 0 m 25 1114 l 25 1247 l 103 1247 l 103 1114 l 25 1114 m 293 1114 l 293 1247 l 369 1247 l 369 1114 l 293 1114 z "},"Ì":{"ha":394,"x_min":49,"x_max":257,"o":"m 154 0 l 154 992 l 240 992 l 240 0 l 154 0 m 257 1103 l 193 1103 l 49 1293 l 156 1293 l 257 1103 z "},"Ó":{"ha":942,"x_min":131,"x_max":813,"o":"m 131 372 l 131 619 q 149 787 131 722 q 211 901 168 851 q 471 1004 303 1004 q 744 883 653 1004 q 797 776 781 838 q 813 619 813 714 l 813 372 q 794 204 813 269 q 731 90 775 139 q 471 -12 639 -12 q 197 107 289 -12 q 146 216 161 154 q 131 372 131 278 m 217 382 q 231 240 217 292 q 278 144 244 188 q 471 61 343 61 q 675 158 610 61 q 715 250 703 200 q 726 382 726 300 l 726 610 q 713 751 726 697 q 665 847 699 804 q 471 931 599 931 q 267 833 333 931 q 228 742 239 792 q 217 610 217 692 l 217 382 m 413 1103 l 514 1293 l 621 1293 l 476 1103 l 413 1103 z "},"Ô":{"ha":942,"x_min":131,"x_max":813,"o":"m 131 372 l 131 619 q 149 787 131 722 q 211 901 168 851 q 471 1004 303 1004 q 744 883 653 1004 q 797 776 781 838 q 813 619 813 714 l 813 372 q 794 204 813 269 q 731 90 775 139 q 471 -12 639 -12 q 197 107 289 -12 q 146 216 161 154 q 131 372 131 278 m 217 382 q 231 240 217 292 q 278 144 244 188 q 471 61 343 61 q 675 158 610 61 q 715 250 703 200 q 726 382 726 300 l 726 610 q 713 751 726 697 q 665 847 699 804 q 471 931 599 931 q 267 833 333 931 q 228 742 239 792 q 217 610 217 692 l 217 382 m 471 1224 l 371 1110 l 275 1110 l 447 1285 l 496 1285 l 667 1110 l 572 1110 l 471 1224 z "},"Ò":{"ha":942,"x_min":131,"x_max":813,"o":"m 131 372 l 131 619 q 149 787 131 722 q 211 901 168 851 q 471 1004 303 1004 q 744 883 653 1004 q 797 776 781 838 q 813 619 813 714 l 813 372 q 794 204 813 269 q 731 90 775 139 q 471 -12 639 -12 q 197 107 289 -12 q 146 216 161 154 q 131 372 131 278 m 217 382 q 231 240 217 292 q 278 144 244 188 q 471 61 343 61 q 675 158 610 61 q 715 250 703 200 q 726 382 726 300 l 726 610 q 713 751 726 697 q 665 847 699 804 q 471 931 599 931 q 267 833 333 931 q 228 742 239 792 q 217 610 217 692 l 217 382 m 533 1103 l 469 1103 l 325 1293 l 432 1293 l 533 1103 z "},"Ú":{"ha":961,"x_min":150,"x_max":811,"o":"m 150 992 l 236 992 l 236 363 q 245 236 236 281 q 278 157 254 192 q 475 63 340 63 q 609 88 557 63 q 693 172 661 114 q 725 363 725 229 l 725 992 l 811 992 l 811 363 q 799 203 811 258 q 751 104 786 149 q 481 -11 664 -11 q 197 121 282 -11 q 160 215 171 163 q 150 363 150 267 l 150 992 m 432 1103 l 532 1293 l 640 1293 l 496 1103 l 432 1103 z "},"Û":{"ha":961,"x_min":150,"x_max":811,"o":"m 150 992 l 236 992 l 236 363 q 245 236 236 281 q 278 157 254 192 q 475 63 340 63 q 609 88 557 63 q 693 172 661 114 q 725 363 725 229 l 725 992 l 811 992 l 811 363 q 799 203 811 258 q 751 104 786 149 q 481 -11 664 -11 q 197 121 282 -11 q 160 215 171 163 q 150 363 150 267 l 150 992 m 481 1224 l 379 1110 l 285 1110 l 456 1285 l 506 1285 l 676 1110 l 581 1110 l 481 1224 z "},"Ù":{"ha":961,"x_min":150,"x_max":811,"o":"m 150 992 l 236 992 l 236 363 q 245 236 236 281 q 278 157 254 192 q 475 63 340 63 q 609 88 557 63 q 693 172 661 114 q 725 363 725 229 l 725 992 l 811 992 l 811 363 q 799 203 811 258 q 751 104 786 149 q 481 -11 664 -11 q 197 121 282 -11 q 160 215 171 163 q 150 363 150 267 l 150 992 m 561 1103 l 497 1103 l 353 1293 l 460 1293 l 561 1103 z "},"ı":{"ha":343,"x_min":129,"x_max":213,"o":"m 129 0 l 129 690 l 213 690 l 213 0 l 129 0 z "},"ˆ":{"ha":694,"x_min":151,"x_max":543,"o":"m 347 931 l 247 817 l 151 817 l 322 993 l 372 993 l 543 817 l 449 817 l 347 931 z "},"˜":{"ha":694,"x_min":140,"x_max":556,"o":"m 197 835 l 140 835 q 188 944 161 913 q 264 975 215 975 q 363 931 313 975 q 438 886 413 886 q 499 964 478 886 l 556 964 q 508 854 535 885 q 436 824 482 824 q 384 833 406 824 q 333 869 363 843 q 258 914 286 914 q 197 835 219 914 z "},"¯":{"ha":694,"x_min":182,"x_max":513,"o":"m 182 869 l 182 931 l 513 931 l 513 869 l 182 869 z "},"˘":{"ha":694,"x_min":169,"x_max":525,"o":"m 169 985 l 231 985 q 263 897 236 922 q 347 872 289 872 q 432 897 406 872 q 465 985 458 922 l 525 985 q 475 839 519 876 q 347 806 436 806 q 188 885 222 806 q 169 985 174 915 z "},"˙":{"ha":694,"x_min":306,"x_max":388,"o":"m 306 822 l 306 954 l 388 954 l 388 822 l 306 822 z "},"˚":{"ha":694,"x_min":213,"x_max":482,"o":"m 347 1067 q 450 1026 413 1067 q 482 933 482 990 q 440 831 482 868 q 347 799 404 799 q 244 840 282 799 q 213 933 213 876 q 254 1035 213 999 q 347 1067 290 1067 m 347 1019 q 295 997 314 1019 q 276 933 276 974 q 295 869 276 892 q 347 847 314 847 q 401 869 382 847 q 419 933 419 892 q 401 997 419 974 q 347 1019 382 1019 z "},"¸":{"ha":694,"x_min":267,"x_max":433,"o":"m 267 -299 l 342 -100 l 433 -100 l 326 -299 l 267 -299 z "},"˝":{"ha":694,"x_min":225,"x_max":574,"o":"m 225 810 l 306 1000 l 404 1000 l 286 810 l 225 810 m 394 810 l 475 1000 l 574 1000 l 456 810 l 394 810 z "},"˛":{"ha":694,"x_min":282,"x_max":521,"o":"m 414 0 l 497 0 q 391 -74 422 -40 q 360 -144 360 -107 q 433 -203 360 -203 q 513 -192 471 -203 l 521 -244 q 419 -261 469 -261 q 282 -158 282 -261 q 414 0 282 -58 z "},"ˇ":{"ha":694,"x_min":151,"x_max":543,"o":"m 347 878 l 449 992 l 543 992 l 372 815 l 324 815 l 151 992 l 247 992 l 347 878 z "},"Ł":{"ha":735,"x_min":44,"x_max":722,"o":"m 154 0 l 154 318 l 44 243 l 44 325 l 154 401 l 154 992 l 240 992 l 240 454 l 536 657 l 536 575 l 240 371 l 240 74 l 722 74 l 722 0 l 154 0 z "},"ł":{"ha":406,"x_min":0,"x_max":381,"o":"m 133 508 l 133 992 l 217 992 l 217 561 l 381 675 l 381 592 l 217 478 l 217 194 q 241 97 217 124 q 332 71 265 71 l 372 71 l 372 0 l 329 0 q 171 46 211 0 q 133 183 133 86 l 133 425 l 0 332 l 0 415 l 133 508 z "},"Š":{"ha":807,"x_min":78,"x_max":733,"o":"m 78 125 l 146 169 q 400 63 214 63 q 592 121 526 63 q 649 258 649 172 q 583 399 649 351 q 526 429 551 421 q 393 465 501 438 q 167 575 232 504 q 108 740 108 638 q 197 942 108 872 q 404 1003 275 1003 q 679 890 601 1003 l 611 846 q 403 931 553 931 q 242 875 297 931 q 193 746 193 826 q 256 610 193 658 q 435 538 310 568 q 571 500 538 513 q 642 463 604 488 q 733 264 733 399 q 635 51 733 124 q 399 -11 549 -11 q 78 125 165 -11 m 418 1171 l 519 1285 l 614 1285 l 443 1108 l 393 1108 l 222 1285 l 317 1285 l 418 1171 z "},"š":{"ha":647,"x_min":44,"x_max":576,"o":"m 44 83 l 104 126 q 188 74 142 89 q 303 58 233 58 q 494 188 494 58 q 443 285 494 257 q 308 318 407 304 q 199 341 235 329 q 138 375 163 353 q 83 506 83 422 q 149 658 83 607 q 303 703 206 703 q 544 603 465 703 l 481 563 q 408 617 447 600 q 310 633 368 633 q 197 597 235 633 q 165 510 165 565 q 213 419 165 447 q 331 389 243 401 q 449 366 408 378 q 515 333 489 354 q 576 185 576 289 q 306 -12 576 -12 q 44 83 121 -12 m 321 878 l 421 992 l 517 992 l 346 815 l 296 815 l 125 992 l 219 992 l 321 878 z "},"Ž":{"ha":743,"x_min":69,"x_max":665,"o":"m 69 0 l 69 64 l 547 918 l 96 918 l 96 992 l 643 992 l 643 928 l 165 74 l 665 74 l 665 0 l 69 0 m 396 1171 l 497 1285 l 593 1285 l 421 1108 l 372 1108 l 200 1285 l 296 1285 l 396 1171 z "},"ž":{"ha":656,"x_min":67,"x_max":565,"o":"m 67 0 l 67 54 l 439 619 l 94 619 l 94 690 l 543 690 l 543 636 l 171 71 l 565 71 l 565 0 l 67 0 m 338 878 l 438 992 l 533 992 l 363 815 l 313 815 l 142 992 l 236 992 l 338 878 z "},"¦":{"ha":694,"x_min":307,"x_max":388,"o":"m 307 640 l 307 992 l 388 992 l 388 640 l 307 640 m 307 0 l 307 339 l 388 339 l 388 0 l 307 0 z "},"Ð":{"ha":944,"x_min":33,"x_max":815,"o":"m 154 539 l 154 992 l 461 992 q 703 921 617 992 q 790 801 764 871 q 815 617 815 731 l 815 375 q 790 192 815 261 q 703 71 764 122 q 461 0 617 0 l 154 0 l 154 467 l 33 467 l 33 539 l 154 539 m 240 539 l 501 539 l 501 467 l 240 467 l 240 72 l 449 72 q 646 132 582 72 q 710 233 690 174 q 729 385 729 292 l 729 607 q 710 759 729 700 q 646 860 690 818 q 449 919 582 919 l 240 919 l 240 539 z "},"ð":{"ha":772,"x_min":107,"x_max":665,"o":"m 533 647 q 451 807 493 756 l 289 736 l 257 792 l 401 854 q 214 940 322 919 l 225 996 q 358 962 304 986 q 472 886 413 938 l 590 938 l 622 882 l 519 838 q 629 615 589 750 q 665 393 665 499 l 665 292 q 586 53 665 128 q 385 -12 517 -12 q 107 292 107 -12 l 107 393 q 374 697 107 697 q 533 647 472 697 m 190 294 q 246 107 193 163 q 386 58 293 58 q 582 294 582 58 l 582 389 q 386 626 582 626 q 190 389 190 626 l 190 294 z "},"Ý":{"ha":732,"x_min":10,"x_max":725,"o":"m 325 0 l 325 358 l 10 992 l 101 992 l 368 449 l 633 992 l 725 992 l 411 358 l 411 0 l 325 0 m 324 1103 l 425 1293 l 532 1293 l 388 1103 l 324 1103 z "},"ý":{"ha":667,"x_min":35,"x_max":622,"o":"m 297 -4 l 35 690 l 119 690 l 342 90 l 538 690 l 622 690 l 340 -136 q 246 -289 300 -254 q 89 -319 197 -319 l 89 -249 q 198 -224 165 -247 q 256 -125 231 -200 l 297 -4 m 288 810 l 388 1000 l 494 1000 l 351 810 l 288 810 z "},"Þ":{"ha":844,"x_min":156,"x_max":778,"o":"m 242 235 l 242 0 l 156 0 l 156 992 l 242 992 l 242 829 l 469 829 q 612 811 557 829 q 707 750 667 793 q 778 532 778 674 q 694 301 778 379 q 469 235 622 235 l 242 235 m 242 308 l 469 308 q 636 364 583 308 q 692 532 692 422 q 626 710 692 651 q 469 757 575 757 l 242 757 l 242 308 z "},"þ":{"ha":783,"x_min":132,"x_max":676,"o":"m 215 76 l 215 -312 l 132 -312 l 132 992 l 215 992 l 215 615 l 225 626 q 308 685 264 668 q 422 703 353 703 q 676 399 676 703 l 676 293 q 604 53 676 128 q 418 -12 540 -12 q 303 8 349 -12 q 215 76 257 28 m 215 294 q 226 194 217 232 q 257 126 235 157 q 407 58 306 58 q 594 296 594 58 l 594 394 q 407 633 594 633 q 215 396 215 633 l 215 294 z "},"−":{"ha":750,"x_min":44,"x_max":707,"o":"m 44 474 l 44 543 l 707 543 l 707 474 l 44 474 z "},"×":{"ha":750,"x_min":96,"x_max":656,"o":"m 326 508 l 96 740 l 144 789 l 375 558 l 606 789 l 656 740 l 425 508 l 656 278 l 606 229 l 375 460 l 144 229 l 96 278 l 326 508 z "},"¹":{"ha":308,"x_min":4,"x_max":206,"o":"m 135 536 l 135 1058 l 25 1014 l 4 1069 l 154 1131 l 206 1131 l 206 536 l 135 536 z "},"²":{"ha":468,"x_min":51,"x_max":401,"o":"m 63 536 l 63 583 l 238 794 q 331 978 331 906 q 303 1052 331 1025 q 229 1079 276 1079 q 117 989 143 1079 l 51 999 q 109 1106 67 1072 q 232 1139 151 1139 q 401 976 401 1139 q 378 874 401 922 q 292 750 354 825 l 163 594 l 399 594 l 399 536 l 63 536 z "},"³":{"ha":468,"x_min":31,"x_max":408,"o":"m 143 822 l 143 875 l 206 875 q 292 908 258 875 q 322 978 322 938 q 294 1051 322 1024 q 218 1078 265 1078 q 113 1007 136 1078 l 49 1017 q 219 1138 71 1138 q 354 1092 310 1138 q 393 981 393 1051 q 374 901 393 932 q 313 850 356 871 q 408 699 408 807 q 214 529 408 529 q 61 582 110 529 q 31 650 42 601 l 97 664 q 214 589 118 589 q 308 622 275 589 q 338 701 338 653 q 297 792 338 757 q 210 822 261 822 l 143 822 z "},"½":{"ha":1172,"x_min":85,"x_max":1047,"o":"m 215 397 l 215 919 l 106 875 l 85 931 l 235 992 l 286 992 l 286 397 l 215 397 m 314 0 l 624 992 l 704 992 l 394 0 l 314 0 m 707 0 l 707 47 l 883 258 q 976 442 976 369 q 949 516 976 489 q 875 543 922 543 q 763 453 788 543 l 697 463 q 755 569 713 536 q 876 603 797 603 q 1047 440 1047 603 q 1023 338 1047 386 q 936 214 999 289 l 808 58 l 1044 58 l 1044 0 l 707 0 z "},"¼":{"ha":1172,"x_min":89,"x_max":1051,"o":"m 219 397 l 219 919 l 110 875 l 89 931 l 239 992 l 290 992 l 290 397 l 219 397 m 333 0 l 643 992 l 724 992 l 414 0 l 333 0 m 922 0 l 922 118 l 663 118 l 663 163 l 868 594 l 944 594 l 744 176 l 922 176 l 922 313 l 988 313 l 988 176 l 1051 176 l 1051 117 l 988 117 l 988 0 l 922 0 z "},"¾":{"ha":1172,"x_min":43,"x_max":1086,"o":"m 156 683 l 156 736 l 218 736 q 304 769 271 736 q 335 839 335 799 q 306 912 335 885 q 231 939 278 939 q 125 868 149 939 l 61 878 q 232 999 83 999 q 367 953 322 999 q 406 842 406 913 q 387 763 406 793 q 325 711 368 732 q 421 560 421 668 q 226 390 421 390 q 74 443 122 390 q 43 511 54 463 l 110 525 q 226 450 131 450 q 321 483 288 450 q 350 563 350 514 q 310 653 350 618 q 222 683 274 683 l 156 683 m 957 0 l 957 118 l 697 118 l 697 163 l 903 594 l 979 594 l 779 176 l 957 176 l 957 313 l 1022 313 l 1022 176 l 1086 176 l 1086 117 l 1022 117 l 1022 0 l 957 0 m 393 0 l 704 992 l 783 992 l 474 0 l 393 0 z "},"₣":{"ha":1013,"x_min":131,"x_max":993,"o":"m 131 0 l 131 992 l 576 992 l 576 918 l 215 918 l 215 531 l 507 531 l 507 457 l 215 457 l 215 0 l 131 0 m 618 0 l 618 610 l 685 610 l 693 517 q 764 597 721 572 q 872 622 807 622 q 993 592 933 622 l 958 522 q 863 551 910 551 q 733 472 772 551 q 700 258 700 403 l 700 0 l 618 0 z "},"Ğ":{"ha":922,"x_min":131,"x_max":808,"o":"m 500 439 l 500 510 l 808 510 l 808 360 q 791 201 808 263 q 732 92 774 139 q 471 -12 642 -12 q 190 115 278 -12 q 144 227 158 163 q 131 396 131 292 l 131 594 q 147 778 131 710 q 204 896 164 846 q 464 1003 293 1003 q 696 932 613 1003 q 775 765 768 869 l 694 760 q 615 890 682 846 q 465 929 556 929 q 268 839 326 929 q 217 593 217 758 l 217 399 q 285 131 217 208 q 468 61 344 61 q 671 149 604 61 q 711 230 700 186 q 722 344 722 274 l 722 439 l 500 439 m 286 1278 l 347 1278 q 380 1190 354 1215 q 465 1164 406 1164 q 549 1190 524 1164 q 582 1278 575 1215 l 643 1278 q 593 1132 636 1169 q 464 1099 554 1099 q 304 1178 340 1099 q 286 1278 290 1208 z "},"ğ":{"ha":783,"x_min":107,"x_max":651,"o":"m 569 81 q 363 -12 507 -12 q 107 293 107 -12 l 107 399 q 364 703 107 703 q 492 680 442 703 q 579 604 543 657 l 585 690 l 651 690 l 651 -8 q 364 -324 651 -324 q 132 -226 207 -324 l 194 -186 q 361 -256 254 -256 q 569 -17 567 -256 l 569 81 m 569 396 q 558 497 567 460 q 526 564 549 533 q 376 633 478 633 q 190 394 190 633 l 190 296 q 376 58 190 58 q 569 294 569 58 l 569 396 m 229 985 l 289 985 q 322 897 296 922 q 407 872 349 872 q 492 897 465 872 q 525 985 518 922 l 585 985 q 563 875 581 907 q 407 806 524 806 q 246 885 282 806 q 229 985 233 915 z "},"Ş":{"ha":807,"x_min":78,"x_max":733,"o":"m 78 125 l 146 169 q 400 63 214 63 q 592 121 526 63 q 649 258 649 172 q 583 399 649 351 q 526 429 551 421 q 393 465 501 438 q 167 575 232 504 q 108 740 108 638 q 197 942 108 872 q 404 1003 275 1003 q 679 890 601 1003 l 611 846 q 403 931 553 931 q 242 875 297 931 q 193 746 193 826 q 256 610 193 658 q 435 538 310 568 q 571 500 538 513 q 642 463 604 488 q 733 264 733 399 q 635 51 733 124 q 399 -11 549 -11 q 78 125 165 -11 m 289 -299 l 364 -100 l 456 -100 l 350 -299 l 289 -299 z "},"ş":{"ha":647,"x_min":44,"x_max":576,"o":"m 44 83 l 104 126 q 188 74 142 89 q 303 58 233 58 q 494 188 494 58 q 443 285 494 257 q 308 318 407 304 q 199 341 235 329 q 138 375 163 353 q 83 506 83 422 q 149 658 83 607 q 303 703 206 703 q 544 603 465 703 l 481 563 q 408 617 447 600 q 310 633 368 633 q 197 597 235 633 q 165 510 165 565 q 213 419 165 447 q 331 389 243 401 q 449 366 408 378 q 515 333 489 354 q 576 185 576 289 q 306 -12 576 -12 q 44 83 121 -12 m 213 -299 l 288 -100 l 379 -100 l 272 -299 l 213 -299 z "},"Ć":{"ha":882,"x_min":131,"x_max":767,"o":"m 685 232 l 767 222 q 665 43 758 106 q 454 -12 583 -12 q 189 115 272 -12 q 144 227 157 163 q 131 396 131 292 l 131 594 q 147 777 131 708 q 203 896 164 846 q 456 1003 289 1003 q 681 932 600 1003 q 758 765 751 869 l 678 760 q 601 890 667 846 q 457 929 544 929 q 267 839 322 929 q 217 593 217 758 l 217 399 q 282 131 217 208 q 457 61 339 61 q 621 113 560 61 q 685 232 675 157 m 399 1103 l 500 1293 l 607 1293 l 463 1103 l 399 1103 z "},"ć":{"ha":658,"x_min":107,"x_max":607,"o":"m 544 125 l 607 86 q 382 -12 532 -12 q 107 304 107 -12 l 107 368 q 378 703 107 703 q 593 600 526 703 l 528 563 q 466 617 499 601 q 383 633 433 633 q 231 560 278 633 q 190 372 190 496 l 190 294 q 247 111 190 171 q 385 58 296 58 q 544 125 488 58 m 313 810 l 413 1000 l 521 1000 l 376 810 l 313 810 z "},"Č":{"ha":882,"x_min":131,"x_max":767,"o":"m 685 232 l 767 222 q 665 43 758 106 q 454 -12 583 -12 q 189 115 272 -12 q 144 227 157 163 q 131 396 131 292 l 131 594 q 147 777 131 708 q 203 896 164 846 q 456 1003 289 1003 q 681 932 600 1003 q 758 765 751 869 l 678 760 q 601 890 667 846 q 457 929 544 929 q 267 839 322 929 q 217 593 217 758 l 217 399 q 282 131 217 208 q 457 61 339 61 q 621 113 560 61 q 685 232 675 157 m 456 1171 l 557 1285 l 651 1285 l 481 1108 l 431 1108 l 260 1285 l 356 1285 l 456 1171 z "},"č":{"ha":658,"x_min":107,"x_max":607,"o":"m 544 125 l 607 86 q 382 -12 532 -12 q 107 304 107 -12 l 107 368 q 378 703 107 703 q 593 600 526 703 l 528 563 q 466 617 499 601 q 383 633 433 633 q 231 560 278 633 q 190 372 190 496 l 190 294 q 247 111 190 171 q 385 58 296 58 q 544 125 488 58 m 379 878 l 479 992 l 575 992 l 403 815 l 354 815 l 182 992 l 278 992 l 379 878 z "}," ":{"ha":278,"x_min":0,"x_max":0,"o":""},"­":{"ha":665,"x_min":146,"x_max":518,"o":"m 146 472 l 146 546 l 518 546 l 518 472 l 146 472 z "},"Ā":{"ha":824,"x_min":8,"x_max":817,"o":"m 643 226 l 182 226 l 103 0 l 8 0 l 372 992 l 453 992 l 817 0 l 722 0 l 643 226 m 619 299 l 413 876 l 206 299 l 619 299 m 247 1161 l 247 1224 l 578 1224 l 578 1161 l 247 1161 z "},"ā":{"ha":724,"x_min":72,"x_max":597,"o":"m 515 397 l 515 457 q 488 579 515 542 q 349 633 447 633 q 172 563 239 633 l 115 608 q 356 703 197 703 q 567 610 508 703 q 591 545 585 581 q 597 446 597 510 l 597 0 l 531 0 l 524 53 q 444 2 490 17 q 317 -12 399 -12 q 119 39 174 -12 q 72 189 72 85 q 139 357 72 313 q 336 397 199 397 l 515 397 m 515 332 l 342 332 q 190 296 233 332 q 153 189 153 263 q 199 83 153 111 q 333 58 239 58 q 494 108 456 58 q 515 208 515 136 l 515 332 m 197 869 l 197 931 l 528 931 l 528 869 l 197 869 z "},"Ă":{"ha":824,"x_min":8,"x_max":817,"o":"m 643 226 l 182 226 l 103 0 l 8 0 l 372 992 l 453 992 l 817 0 l 722 0 l 643 226 m 619 299 l 413 876 l 206 299 l 619 299 m 233 1278 l 294 1278 q 327 1190 301 1215 q 411 1164 353 1164 q 497 1190 471 1164 q 529 1278 524 1215 l 590 1278 q 540 1132 585 1169 q 413 1099 501 1099 q 251 1178 288 1099 q 233 1278 238 1208 z "},"ă":{"ha":724,"x_min":72,"x_max":597,"o":"m 515 397 l 515 457 q 488 579 515 542 q 349 633 447 633 q 172 563 239 633 l 115 608 q 356 703 197 703 q 567 610 508 703 q 591 545 585 581 q 597 446 597 510 l 597 0 l 531 0 l 524 53 q 444 2 490 17 q 317 -12 399 -12 q 119 39 174 -12 q 72 189 72 85 q 139 357 72 313 q 336 397 199 397 l 515 397 m 515 332 l 342 332 q 190 296 233 332 q 153 189 153 263 q 199 83 153 111 q 333 58 239 58 q 494 108 456 58 q 515 208 515 136 l 515 332 m 188 985 l 247 985 q 281 897 254 922 q 365 872 307 872 q 450 897 424 872 q 483 985 476 922 l 543 985 q 493 839 538 878 q 365 806 454 806 q 226 850 264 806 q 188 985 193 890 z "},"Ą":{"ha":824,"x_min":8,"x_max":840,"o":"m 817 0 q 710 -74 740 -42 q 679 -144 679 -106 q 751 -203 679 -203 q 832 -192 790 -203 l 840 -244 q 739 -261 789 -261 q 601 -158 601 -261 q 637 -67 601 -110 q 733 0 672 -25 l 722 0 l 643 226 l 182 226 l 103 0 l 8 0 l 372 992 l 453 992 l 817 0 m 619 299 l 413 876 l 206 299 l 619 299 z "},"ą":{"ha":724,"x_min":72,"x_max":621,"o":"m 597 0 l 579 -10 q 460 -144 460 -76 q 533 -203 460 -203 q 613 -192 571 -203 l 621 -244 q 521 -261 569 -261 q 382 -158 382 -261 q 529 7 382 -57 l 524 53 q 444 2 490 17 q 317 -12 399 -12 q 119 39 174 -12 q 72 189 72 85 q 139 357 72 313 q 336 397 199 397 l 515 397 l 515 457 q 488 579 515 542 q 349 633 447 633 q 172 563 239 633 l 115 608 q 356 703 197 703 q 567 610 508 703 q 591 545 585 581 q 597 446 597 510 l 597 0 m 515 332 l 342 332 q 190 296 233 332 q 153 189 153 263 q 199 83 153 111 q 333 58 239 58 q 494 108 456 58 q 515 208 515 136 l 515 332 z "},"Ĉ":{"ha":882,"x_min":131,"x_max":767,"o":"m 685 232 l 767 222 q 665 43 758 106 q 454 -12 583 -12 q 189 115 272 -12 q 144 227 157 163 q 131 396 131 292 l 131 594 q 147 777 131 708 q 203 896 164 846 q 456 1003 289 1003 q 681 932 600 1003 q 758 765 751 869 l 678 760 q 601 890 667 846 q 457 929 544 929 q 267 839 322 929 q 217 593 217 758 l 217 399 q 282 131 217 208 q 457 61 339 61 q 621 113 560 61 q 685 232 675 157 m 456 1224 l 356 1110 l 260 1110 l 431 1285 l 481 1285 l 651 1110 l 557 1110 l 456 1224 z "},"ĉ":{"ha":658,"x_min":107,"x_max":607,"o":"m 544 125 l 607 86 q 382 -12 532 -12 q 107 304 107 -12 l 107 368 q 378 703 107 703 q 593 600 526 703 l 528 563 q 466 617 499 601 q 383 633 433 633 q 231 560 278 633 q 190 372 190 496 l 190 294 q 247 111 190 171 q 385 58 296 58 q 544 125 488 58 m 368 931 l 267 817 l 171 817 l 343 993 l 392 993 l 564 817 l 468 817 l 368 931 z "},"Ċ":{"ha":882,"x_min":131,"x_max":767,"o":"m 685 232 l 767 222 q 665 43 758 106 q 454 -12 583 -12 q 189 115 272 -12 q 144 227 157 163 q 131 396 131 292 l 131 594 q 147 777 131 708 q 203 896 164 846 q 456 1003 289 1003 q 681 932 600 1003 q 758 765 751 869 l 678 760 q 601 890 667 846 q 457 929 544 929 q 267 839 322 929 q 217 593 217 758 l 217 399 q 282 131 217 208 q 457 61 339 61 q 621 113 560 61 q 685 232 675 157 m 415 1114 l 415 1247 l 497 1247 l 497 1114 l 415 1114 z "},"ċ":{"ha":658,"x_min":107,"x_max":607,"o":"m 544 125 l 607 86 q 382 -12 532 -12 q 107 304 107 -12 l 107 368 q 378 703 107 703 q 593 600 526 703 l 528 563 q 466 617 499 601 q 383 633 433 633 q 231 560 278 633 q 190 372 190 496 l 190 294 q 247 111 190 171 q 385 58 296 58 q 544 125 488 58 m 331 822 l 331 954 l 413 954 l 413 822 l 331 822 z "},"Ď":{"ha":944,"x_min":154,"x_max":814,"o":"m 154 0 l 154 992 l 461 992 q 701 921 617 992 q 788 801 763 871 q 814 617 814 731 l 814 375 q 788 192 814 261 q 701 71 763 122 q 461 0 617 0 l 154 0 m 240 72 l 449 72 q 644 132 581 72 q 708 233 689 174 q 728 385 728 293 l 728 607 q 708 759 728 700 q 644 860 689 818 q 449 919 581 919 l 240 919 l 240 72 m 429 1171 l 531 1285 l 625 1285 l 454 1108 l 406 1108 l 233 1285 l 329 1285 l 429 1171 z "},"ď":{"ha":867,"x_min":107,"x_max":897,"o":"m 585 0 l 579 82 l 578 81 q 574 75 574 76 q 518 24 543 39 q 368 -12 458 -12 q 163 74 226 -12 q 107 293 107 147 l 107 399 q 365 703 107 703 q 484 682 438 703 q 569 611 531 661 l 569 992 l 651 992 l 651 0 l 585 0 m 569 396 q 558 497 568 460 q 526 564 549 533 q 378 633 478 633 q 190 394 190 633 l 190 296 q 378 58 190 58 q 569 294 569 58 l 569 396 m 775 706 l 807 999 l 897 999 l 833 706 l 775 706 z "},"Đ":{"ha":944,"x_min":33,"x_max":815,"o":"m 154 539 l 154 992 l 461 992 q 703 921 617 992 q 790 801 764 871 q 815 617 815 731 l 815 375 q 790 192 815 261 q 703 71 764 122 q 461 0 617 0 l 154 0 l 154 467 l 33 467 l 33 539 l 154 539 m 240 539 l 501 539 l 501 467 l 240 467 l 240 72 l 449 72 q 646 132 582 72 q 710 233 690 174 q 729 385 729 292 l 729 607 q 710 759 729 700 q 646 860 690 818 q 449 919 582 919 l 240 919 l 240 539 z "},"đ":{"ha":783,"x_min":107,"x_max":768,"o":"m 569 800 l 356 800 l 356 861 l 569 861 l 569 992 l 651 992 l 651 861 l 768 861 l 768 800 l 651 800 l 651 0 l 585 0 l 579 82 l 578 81 q 574 75 574 76 q 518 24 543 39 q 368 -12 458 -12 q 163 74 226 -12 q 107 293 107 147 l 107 399 q 365 703 107 703 q 484 682 438 703 q 569 611 531 661 l 569 800 m 569 396 q 558 497 568 460 q 526 564 549 533 q 378 633 478 633 q 190 394 190 633 l 190 296 q 378 58 190 58 q 569 294 569 58 l 569 396 z "},"Ē":{"ha":803,"x_min":154,"x_max":719,"o":"m 154 0 l 154 992 l 719 992 l 719 918 l 240 918 l 240 539 l 650 539 l 650 465 l 240 465 l 240 74 l 719 74 l 719 0 l 154 0 m 271 1161 l 271 1224 l 601 1224 l 601 1161 l 271 1161 z "},"ē":{"ha":751,"x_min":107,"x_max":656,"o":"m 190 335 l 190 299 q 253 111 190 174 q 403 58 306 58 q 568 125 511 58 l 631 85 q 397 -12 556 -12 q 107 313 107 -12 l 107 375 q 379 703 107 703 q 597 613 531 703 q 656 375 656 532 l 656 335 l 190 335 m 190 399 l 575 399 l 575 408 q 533 565 575 507 q 382 633 486 633 q 233 567 282 633 q 190 407 190 510 l 190 399 m 221 869 l 221 931 l 550 931 l 550 869 l 221 869 z "},"Ĕ":{"ha":803,"x_min":154,"x_max":719,"o":"m 154 0 l 154 992 l 719 992 l 719 918 l 240 918 l 240 539 l 650 539 l 650 465 l 240 465 l 240 74 l 719 74 l 719 0 l 154 0 m 258 1278 l 319 1278 q 352 1190 326 1215 q 436 1164 378 1164 q 522 1190 496 1164 q 554 1278 549 1215 l 615 1278 q 565 1132 610 1169 q 438 1099 526 1099 q 276 1178 313 1099 q 258 1278 263 1208 z "},"ĕ":{"ha":751,"x_min":107,"x_max":656,"o":"m 190 335 l 190 299 q 253 111 190 174 q 403 58 306 58 q 568 125 511 58 l 631 85 q 397 -12 556 -12 q 107 313 107 -12 l 107 375 q 379 703 107 703 q 597 613 531 703 q 656 375 656 532 l 656 335 l 190 335 m 190 399 l 575 399 l 575 408 q 533 565 575 507 q 382 633 486 633 q 233 567 282 633 q 190 407 190 510 l 190 399 m 204 985 l 265 985 q 298 897 272 922 q 382 872 324 872 q 468 897 442 872 q 500 985 494 922 l 561 985 q 511 839 556 876 q 383 806 472 806 q 222 885 258 806 q 204 985 208 915 z "},"Ė":{"ha":803,"x_min":154,"x_max":719,"o":"m 154 0 l 154 992 l 719 992 l 719 918 l 240 918 l 240 539 l 650 539 l 650 465 l 240 465 l 240 74 l 719 74 l 719 0 l 154 0 m 403 1114 l 403 1247 l 485 1247 l 485 1114 l 403 1114 z "},"ė":{"ha":751,"x_min":107,"x_max":656,"o":"m 190 335 l 190 299 q 253 111 190 174 q 403 58 306 58 q 568 125 511 58 l 631 85 q 397 -12 556 -12 q 107 313 107 -12 l 107 375 q 379 703 107 703 q 597 613 531 703 q 656 375 656 532 l 656 335 l 190 335 m 190 399 l 575 399 l 575 408 q 533 565 575 507 q 382 633 486 633 q 233 567 282 633 q 190 407 190 510 l 190 399 m 346 822 l 346 954 l 428 954 l 428 822 l 346 822 z "},"Ę":{"ha":803,"x_min":154,"x_max":742,"o":"m 154 0 l 154 992 l 719 992 l 719 918 l 240 918 l 240 539 l 650 539 l 650 465 l 240 465 l 240 74 l 719 74 l 719 0 q 613 -74 644 -40 q 582 -144 582 -107 q 654 -203 582 -203 q 735 -192 693 -203 l 742 -244 q 643 -261 689 -261 q 504 -158 504 -261 q 635 0 504 -58 l 154 0 z "},"ę":{"ha":751,"x_min":107,"x_max":656,"o":"m 190 335 l 190 299 q 253 111 190 174 q 403 58 306 58 q 568 125 511 58 l 631 86 q 521 6 589 29 q 418 -69 447 -36 q 389 -144 389 -103 q 461 -203 389 -203 q 542 -192 500 -203 l 549 -244 q 450 -261 494 -261 q 311 -157 311 -261 q 333 -80 311 -114 q 404 -12 354 -46 q 390 -12 399 -12 q 107 313 107 -12 l 107 375 q 382 704 107 704 q 597 613 531 704 q 656 375 656 532 l 656 335 l 190 335 m 190 399 l 575 399 l 575 408 q 533 565 575 507 q 382 633 486 633 q 233 567 282 633 q 190 407 190 510 l 190 399 z "},"Ě":{"ha":803,"x_min":154,"x_max":719,"o":"m 154 0 l 154 992 l 719 992 l 719 918 l 240 918 l 240 539 l 650 539 l 650 465 l 240 465 l 240 74 l 719 74 l 719 0 l 154 0 m 444 1171 l 546 1285 l 640 1285 l 469 1108 l 419 1108 l 249 1285 l 344 1285 l 444 1171 z "},"ě":{"ha":751,"x_min":107,"x_max":656,"o":"m 190 335 l 190 299 q 253 111 190 174 q 403 58 306 58 q 568 125 511 58 l 631 85 q 397 -12 556 -12 q 107 313 107 -12 l 107 375 q 379 703 107 703 q 597 613 531 703 q 656 375 656 532 l 656 335 l 190 335 m 190 399 l 575 399 l 575 408 q 533 565 575 507 q 382 633 486 633 q 233 567 282 633 q 190 407 190 510 l 190 399 m 389 878 l 489 992 l 585 992 l 413 815 l 364 815 l 192 992 l 288 992 l 389 878 z "},"Ĝ":{"ha":922,"x_min":131,"x_max":808,"o":"m 500 439 l 500 510 l 808 510 l 808 360 q 791 201 808 263 q 732 92 774 139 q 471 -12 642 -12 q 190 115 278 -12 q 144 227 158 163 q 131 396 131 292 l 131 594 q 147 778 131 710 q 204 896 164 846 q 464 1003 293 1003 q 696 932 613 1003 q 775 765 768 869 l 694 760 q 615 890 682 846 q 465 929 556 929 q 268 839 326 929 q 217 593 217 758 l 217 399 q 285 131 217 208 q 468 61 344 61 q 671 149 604 61 q 711 230 700 186 q 722 344 722 274 l 722 439 l 500 439 m 461 1224 l 361 1110 l 265 1110 l 438 1285 l 486 1285 l 658 1110 l 563 1110 l 461 1224 z "},"ĝ":{"ha":783,"x_min":107,"x_max":651,"o":"m 569 81 q 363 -12 507 -12 q 107 293 107 -12 l 107 399 q 364 703 107 703 q 492 680 442 703 q 579 604 543 657 l 585 690 l 651 690 l 651 -8 q 364 -324 651 -324 q 132 -226 207 -324 l 194 -186 q 361 -256 254 -256 q 569 -17 567 -256 l 569 81 m 569 396 q 558 497 567 460 q 526 564 549 533 q 376 633 478 633 q 190 394 190 633 l 190 296 q 376 58 190 58 q 569 294 569 58 l 569 396 m 397 931 l 296 817 l 201 817 l 372 993 l 421 993 l 593 817 l 497 817 l 397 931 z "},"Ġ":{"ha":922,"x_min":131,"x_max":808,"o":"m 500 439 l 500 510 l 808 510 l 808 360 q 791 201 808 263 q 732 92 774 139 q 471 -12 642 -12 q 190 115 278 -12 q 144 227 158 163 q 131 396 131 292 l 131 594 q 147 778 131 710 q 204 896 164 846 q 464 1003 293 1003 q 696 932 613 1003 q 775 765 768 869 l 694 760 q 615 890 682 846 q 465 929 556 929 q 268 839 326 929 q 217 593 217 758 l 217 399 q 285 131 217 208 q 468 61 344 61 q 671 149 604 61 q 711 230 700 186 q 722 344 722 274 l 722 439 l 500 439 m 422 1114 l 422 1247 l 504 1247 l 504 1114 l 422 1114 z "},"ġ":{"ha":783,"x_min":107,"x_max":651,"o":"m 569 81 q 363 -12 507 -12 q 107 293 107 -12 l 107 399 q 364 703 107 703 q 492 680 442 703 q 579 604 543 657 l 585 690 l 651 690 l 651 -8 q 364 -324 651 -324 q 132 -226 207 -324 l 194 -186 q 361 -256 254 -256 q 569 -17 567 -256 l 569 81 m 569 396 q 558 497 567 460 q 526 564 549 533 q 376 633 478 633 q 190 394 190 633 l 190 296 q 376 58 190 58 q 569 294 569 58 l 569 396 m 367 822 l 367 954 l 449 954 l 449 822 l 367 822 z "},"Ģ":{"ha":922,"x_min":131,"x_max":808,"o":"m 500 439 l 500 510 l 808 510 l 808 360 q 791 201 808 263 q 732 92 774 139 q 471 -12 642 -12 q 190 115 278 -12 q 144 227 158 163 q 131 396 131 292 l 131 594 q 147 778 131 710 q 204 896 164 846 q 464 1003 293 1003 q 696 932 613 1003 q 775 765 768 869 l 694 760 q 615 890 682 846 q 465 929 556 929 q 268 839 326 929 q 217 593 217 758 l 217 399 q 285 131 217 208 q 468 61 344 61 q 671 149 604 61 q 711 230 700 186 q 722 344 722 274 l 722 439 l 500 439 m 364 -299 l 439 -100 l 531 -100 l 424 -299 l 364 -299 z "},"ģ":{"ha":783,"x_min":107,"x_max":651,"o":"m 569 81 q 363 -12 507 -12 q 107 293 107 -12 l 107 399 q 364 703 107 703 q 492 680 442 703 q 579 604 543 657 l 585 690 l 651 690 l 651 -8 q 364 -324 651 -324 q 132 -226 207 -324 l 194 -186 q 361 -256 254 -256 q 569 -17 567 -256 l 569 81 m 569 396 q 558 497 567 460 q 526 564 549 533 q 376 633 478 633 q 190 394 190 633 l 190 296 q 376 58 190 58 q 569 294 569 58 l 569 396 m 340 810 l 485 1000 l 549 1000 l 447 810 l 340 810 z "},"Ĥ":{"ha":946,"x_min":154,"x_max":792,"o":"m 154 0 l 154 992 l 240 992 l 240 539 l 706 539 l 706 992 l 792 992 l 792 0 l 706 0 l 706 465 l 240 465 l 240 0 l 154 0 m 472 1224 l 372 1110 l 276 1110 l 449 1285 l 497 1285 l 669 1110 l 574 1110 l 472 1224 z "},"ĥ":{"ha":782,"x_min":21,"x_max":657,"o":"m 131 0 l 131 992 l 214 992 l 214 611 q 414 703 278 703 q 635 569 583 703 q 657 397 657 514 l 657 0 l 574 0 l 574 390 q 526 582 574 525 q 399 631 485 631 q 251 557 294 631 q 214 353 214 492 l 214 0 l 131 0 m 217 1224 l 117 1110 l 21 1110 l 192 1285 l 242 1285 l 413 1110 l 318 1110 l 217 1224 z "},"Ħ":{"ha":946,"x_min":68,"x_max":878,"o":"m 154 0 l 154 690 l 68 690 l 68 756 l 154 756 l 154 992 l 240 992 l 240 756 l 706 756 l 706 992 l 792 992 l 792 756 l 878 756 l 878 690 l 792 690 l 792 0 l 706 0 l 706 465 l 240 465 l 240 0 l 154 0 m 240 539 l 706 539 l 706 690 l 240 690 l 240 539 z "},"ħ":{"ha":782,"x_min":15,"x_max":657,"o":"m 131 800 l 15 800 l 15 861 l 131 861 l 131 992 l 214 992 l 214 861 l 428 861 l 428 800 l 214 800 l 214 611 q 294 681 247 660 q 414 703 342 703 q 636 569 585 703 q 657 397 657 514 l 657 0 l 574 0 l 574 390 q 526 582 574 525 q 400 631 486 631 q 251 557 294 631 q 214 353 214 492 l 214 0 l 131 0 l 131 800 z "},"Ĩ":{"ha":394,"x_min":-10,"x_max":406,"o":"m 154 0 l 154 992 l 240 992 l 240 0 l 154 0 m 47 1128 l -10 1128 q 38 1237 11 1206 q 114 1268 65 1268 q 213 1224 163 1268 q 288 1179 263 1179 q 349 1257 328 1179 l 406 1257 q 358 1147 385 1178 q 286 1117 332 1117 q 234 1126 256 1117 q 183 1163 213 1136 q 108 1207 136 1207 q 47 1128 69 1207 z "},"ĩ":{"ha":343,"x_min":-36,"x_max":379,"o":"m 131 0 l 131 690 l 213 690 l 213 0 l 131 0 m 21 835 l -36 835 q 12 944 -15 913 q 88 975 39 975 q 186 931 136 975 q 261 886 236 886 q 322 964 301 886 l 379 964 q 332 854 358 885 q 260 824 306 824 q 208 833 229 824 q 157 869 186 843 q 82 914 110 914 q 21 835 43 914 z "},"Ī":{"ha":394,"x_min":33,"x_max":364,"o":"m 156 0 l 156 992 l 242 992 l 242 0 l 156 0 m 33 1161 l 33 1224 l 364 1224 l 364 1161 l 33 1161 z "},"ī":{"ha":343,"x_min":7,"x_max":338,"o":"m 131 0 l 131 690 l 213 690 l 213 0 l 131 0 m 7 869 l 7 931 l 338 931 l 338 869 l 7 869 z "},"Ĭ":{"ha":394,"x_min":19,"x_max":375,"o":"m 154 0 l 154 992 l 240 992 l 240 0 l 154 0 m 19 1278 l 81 1278 q 113 1190 86 1215 q 197 1164 139 1164 q 282 1190 256 1164 q 315 1278 308 1215 l 375 1278 q 325 1132 369 1169 q 197 1099 286 1099 q 38 1178 72 1099 q 19 1278 24 1208 z "},"ĭ":{"ha":343,"x_min":-7,"x_max":349,"o":"m 129 0 l 129 690 l 213 690 l 213 0 l 129 0 m -7 985 l 54 985 q 86 897 60 922 q 171 872 113 872 q 256 897 229 872 q 289 985 282 922 l 349 985 q 299 839 343 876 q 171 806 260 806 q 11 885 46 806 q -7 985 -3 915 z "},"Į":{"ha":394,"x_min":54,"x_max":286,"o":"m 242 0 q 132 -137 132 -62 q 200 -203 132 -203 q 278 -192 236 -203 l 286 -244 q 186 -261 236 -261 q 54 -151 54 -261 q 165 0 54 -54 l 156 0 l 156 992 l 242 992 l 242 0 z "},"į":{"ha":343,"x_min":28,"x_max":257,"o":"m 213 0 q 130 -69 154 -37 q 106 -140 106 -101 q 174 -203 106 -203 q 250 -192 208 -203 l 257 -244 q 158 -261 208 -261 q 28 -154 28 -261 q 131 0 28 -60 l 129 0 l 129 690 l 213 690 l 213 0 m 129 861 l 129 994 l 213 994 l 213 861 l 129 861 z "},"İ":{"ha":394,"x_min":153,"x_max":239,"o":"m 153 0 l 153 992 l 239 992 l 239 0 l 153 0 m 154 1114 l 154 1247 l 236 1247 l 236 1114 l 154 1114 z "},"Ĳ":{"ha":790,"x_min":154,"x_max":636,"o":"m 154 0 l 154 992 l 240 992 l 240 0 l 154 0 m 550 992 l 636 992 l 636 61 q 629 -119 636 -64 q 601 -215 622 -175 q 368 -336 536 -336 q 253 -318 314 -336 l 279 -249 q 364 -262 322 -262 q 532 -150 492 -262 q 550 57 550 -101 l 550 992 z "},"ĳ":{"ha":694,"x_min":129,"x_max":563,"o":"m 129 861 l 129 994 l 213 994 l 213 861 l 129 861 m 129 0 l 129 690 l 213 690 l 213 0 l 129 0 m 479 690 l 563 690 l 563 -32 q 549 -181 563 -131 q 500 -264 535 -231 q 427 -306 468 -294 q 304 -319 386 -318 l 304 -247 q 397 -236 368 -247 q 449 -193 425 -225 q 473 -135 467 -167 q 479 -40 479 -104 l 479 690 m 479 861 l 479 994 l 563 994 l 563 861 l 479 861 z "},"Ĵ":{"ha":635,"x_min":-7,"x_max":617,"o":"m 403 992 l 489 992 l 489 386 q 481 205 489 260 q 453 110 474 150 q 219 -11 388 -11 q 99 8 151 -11 q -7 75 46 28 l 42 135 q 217 63 117 63 q 385 175 343 63 q 403 382 403 224 l 403 992 m 421 1224 l 319 1110 l 225 1110 l 396 1285 l 444 1285 l 617 1110 l 521 1110 l 421 1224 z "},"ĵ":{"ha":351,"x_min":-42,"x_max":368,"o":"m 133 690 l 217 690 l 217 -32 q 203 -181 217 -131 q 156 -264 190 -231 q 83 -306 124 -294 q -42 -319 42 -318 l -42 -247 q 51 -236 22 -247 q 103 -193 81 -225 q 127 -135 121 -167 q 133 -40 133 -104 l 133 690 m 172 931 l 72 817 l -24 817 l 147 993 l 197 993 l 368 817 l 274 817 l 172 931 z "},"Ķ":{"ha":860,"x_min":156,"x_max":847,"o":"m 156 0 l 156 992 l 242 992 l 242 404 l 707 992 l 808 992 l 488 594 l 847 0 l 749 0 l 432 533 l 242 294 l 242 0 l 156 0 m 357 -299 l 432 -100 l 524 -100 l 418 -299 l 357 -299 z "},"ķ":{"ha":697,"x_min":131,"x_max":675,"o":"m 131 0 l 131 992 l 214 992 l 214 267 l 547 690 l 644 690 l 410 399 l 675 0 l 582 0 l 358 336 l 214 154 l 214 0 l 131 0 m 269 -299 l 343 -100 l 435 -100 l 329 -299 l 269 -299 z "},"ĸ":{"ha":697,"x_min":131,"x_max":675,"o":"m 131 0 l 131 690 l 214 690 l 214 267 l 547 690 l 644 690 l 410 399 l 675 0 l 582 0 l 358 336 l 214 154 l 214 0 l 131 0 z "},"Ĺ":{"ha":735,"x_min":154,"x_max":722,"o":"m 154 0 l 154 992 l 240 992 l 240 74 l 722 74 l 722 0 l 154 0 m 176 1103 l 278 1293 l 385 1293 l 240 1103 l 176 1103 z "},"ĺ":{"ha":396,"x_min":129,"x_max":368,"o":"m 129 992 l 213 992 l 213 194 q 237 97 213 124 q 328 71 261 71 l 368 71 l 368 0 l 325 0 q 164 49 204 0 q 129 201 129 92 l 129 992 m 140 1103 l 240 1293 l 349 1293 l 204 1103 l 140 1103 z "},"Ļ":{"ha":735,"x_min":154,"x_max":722,"o":"m 154 0 l 154 992 l 240 992 l 240 74 l 722 74 l 722 0 l 154 0 m 318 -299 l 392 -100 l 485 -100 l 378 -299 l 318 -299 z "},"ļ":{"ha":396,"x_min":115,"x_max":365,"o":"m 126 992 l 210 992 l 210 194 q 234 97 210 124 q 325 71 258 71 l 365 71 l 365 0 l 322 0 q 161 49 201 0 q 126 201 126 92 l 126 992 m 115 -299 l 190 -100 l 282 -100 l 175 -299 l 115 -299 z "},"Ľ":{"ha":735,"x_min":154,"x_max":722,"o":"m 154 0 l 154 992 l 240 992 l 240 74 l 722 74 l 722 0 l 154 0 m 389 706 l 421 999 l 511 999 l 447 706 l 389 706 z "},"ľ":{"ha":439,"x_min":129,"x_max":457,"o":"m 129 992 l 213 992 l 213 194 q 237 97 213 124 q 328 71 261 71 l 368 71 l 368 0 l 325 0 q 164 49 204 0 q 129 201 129 92 l 129 992 m 335 706 l 367 999 l 457 999 l 393 706 l 335 706 z "},"Ŀ":{"ha":735,"x_min":154,"x_max":722,"o":"m 154 0 l 154 992 l 240 992 l 240 74 l 722 74 l 722 0 l 154 0 m 513 449 l 513 569 l 590 569 l 590 449 l 513 449 z "},"ŀ":{"ha":422,"x_min":129,"x_max":421,"o":"m 129 992 l 213 992 l 213 194 q 237 97 213 124 q 328 71 261 71 l 368 71 l 368 0 l 325 0 q 164 49 204 0 q 129 201 129 92 l 129 992 m 343 449 l 343 569 l 421 569 l 421 449 l 343 449 z "},"Ń":{"ha":1006,"x_min":154,"x_max":851,"o":"m 154 0 l 154 992 l 236 992 l 767 149 l 767 992 l 851 992 l 851 0 l 769 0 l 239 843 l 239 0 l 154 0 m 468 1103 l 568 1293 l 676 1293 l 532 1103 l 468 1103 z "},"ń":{"ha":782,"x_min":132,"x_max":658,"o":"m 132 0 l 132 690 l 197 690 l 206 597 q 408 703 263 703 q 636 569 585 703 q 658 397 658 514 l 658 0 l 575 0 l 575 390 q 554 538 575 489 q 400 631 514 631 q 253 556 294 631 q 215 349 215 490 l 215 0 l 132 0 m 339 810 l 439 1000 l 547 1000 l 403 810 l 339 810 z "},"Ņ":{"ha":1006,"x_min":154,"x_max":851,"o":"m 154 0 l 154 992 l 236 992 l 767 149 l 767 992 l 851 992 l 851 0 l 769 0 l 239 843 l 239 0 l 154 0 m 408 -299 l 482 -100 l 575 -100 l 468 -299 l 408 -299 z "},"ņ":{"ha":782,"x_min":132,"x_max":658,"o":"m 132 0 l 132 690 l 197 690 l 206 597 q 408 703 263 703 q 636 569 585 703 q 658 397 658 514 l 658 0 l 575 0 l 575 390 q 554 538 575 489 q 400 631 514 631 q 253 556 294 631 q 215 349 215 490 l 215 0 l 132 0 m 292 -299 l 365 -100 l 458 -100 l 351 -299 l 292 -299 z "},"Ň":{"ha":1006,"x_min":154,"x_max":851,"o":"m 154 0 l 154 992 l 236 992 l 767 149 l 767 992 l 851 992 l 851 0 l 769 0 l 239 843 l 239 0 l 154 0 m 524 1171 l 624 1285 l 719 1285 l 547 1108 l 499 1108 l 326 1285 l 422 1285 l 524 1171 z "},"ň":{"ha":782,"x_min":132,"x_max":658,"o":"m 132 0 l 132 690 l 197 690 l 206 597 q 408 703 263 703 q 636 569 585 703 q 658 397 658 514 l 658 0 l 575 0 l 575 390 q 554 538 575 489 q 400 631 514 631 q 253 556 294 631 q 215 349 215 490 l 215 0 l 132 0 m 389 878 l 490 992 l 585 992 l 414 815 l 364 815 l 193 992 l 288 992 l 389 878 z "},"ŉ":{"ha":818,"x_min":25,"x_max":693,"o":"m 167 0 l 167 690 l 233 690 l 240 597 q 443 703 299 703 q 672 569 621 703 q 693 397 693 514 l 693 0 l 610 0 l 610 390 q 589 538 610 489 q 436 631 549 631 q 288 557 329 631 q 250 349 250 490 l 250 0 l 167 0 m 25 672 l 78 992 l 168 992 l 94 672 l 25 672 z "},"Ŋ":{"ha":1006,"x_min":154,"x_max":851,"o":"m 154 0 l 154 992 l 236 992 l 767 150 l 767 992 l 851 992 l 851 -32 q 838 -181 851 -131 q 790 -264 825 -231 q 717 -306 758 -294 q 594 -319 676 -318 l 594 -249 q 687 -237 657 -249 q 739 -193 717 -226 q 763 -136 757 -168 q 769 -44 769 -104 l 769 8 l 239 843 l 239 0 l 154 0 z "},"ŋ":{"ha":782,"x_min":132,"x_max":658,"o":"m 132 0 l 132 690 l 197 690 l 206 597 q 408 703 263 703 q 636 569 585 703 q 658 397 658 514 l 658 -32 q 645 -180 658 -129 q 597 -264 632 -231 q 524 -306 565 -294 q 400 -319 482 -318 l 400 -247 q 493 -236 464 -247 q 544 -193 522 -225 q 569 -135 563 -167 q 575 -40 575 -104 l 575 390 q 554 538 575 489 q 400 631 514 631 q 253 556 294 631 q 215 349 215 490 l 215 0 l 132 0 z "},"Ō":{"ha":942,"x_min":131,"x_max":813,"o":"m 131 372 l 131 619 q 149 787 131 722 q 211 901 168 851 q 471 1004 303 1004 q 744 883 653 1004 q 797 776 781 838 q 813 619 813 714 l 813 372 q 794 204 813 269 q 731 90 775 139 q 471 -12 639 -12 q 197 107 289 -12 q 146 216 161 154 q 131 372 131 278 m 217 382 q 231 240 217 292 q 278 144 244 188 q 471 61 343 61 q 675 158 610 61 q 715 250 703 200 q 726 382 726 300 l 726 610 q 713 751 726 697 q 665 847 699 804 q 471 931 599 931 q 267 833 333 931 q 228 742 239 792 q 217 610 217 692 l 217 382 m 307 1161 l 307 1224 l 638 1224 l 638 1161 l 307 1161 z "},"ō":{"ha":772,"x_min":107,"x_max":665,"o":"m 107 292 l 107 399 q 386 703 107 703 q 665 399 665 703 l 665 292 q 586 53 665 128 q 385 -12 517 -12 q 107 292 107 -12 m 190 294 q 246 107 193 163 q 386 58 293 58 q 582 294 582 58 l 582 394 q 386 633 582 633 q 190 394 190 633 l 190 294 m 221 869 l 221 931 l 551 931 l 551 869 l 221 869 z "},"Ŏ":{"ha":942,"x_min":131,"x_max":813,"o":"m 131 372 l 131 619 q 149 787 131 722 q 211 901 168 851 q 471 1004 303 1004 q 744 883 653 1004 q 797 776 781 838 q 813 619 813 714 l 813 372 q 794 204 813 269 q 731 90 775 139 q 471 -12 639 -12 q 197 107 289 -12 q 146 216 161 154 q 131 372 131 278 m 217 382 q 230 240 217 292 q 276 144 243 188 q 471 61 343 61 q 675 158 610 61 q 715 250 703 200 q 726 382 726 300 l 726 610 q 713 751 726 697 q 665 847 699 804 q 471 931 599 931 q 267 833 333 931 q 228 742 239 792 q 217 610 217 692 l 217 382 m 293 1278 l 354 1278 q 386 1190 360 1215 q 471 1164 413 1164 q 556 1190 529 1164 q 589 1278 582 1215 l 649 1278 q 599 1132 643 1169 q 471 1099 560 1099 q 311 1178 347 1099 q 293 1278 297 1208 z "},"ŏ":{"ha":772,"x_min":107,"x_max":665,"o":"m 107 292 l 107 399 q 386 703 107 703 q 665 399 665 703 l 665 292 q 586 53 665 128 q 385 -12 517 -12 q 107 292 107 -12 m 190 294 q 246 107 193 163 q 386 58 293 58 q 582 294 582 58 l 582 394 q 386 633 582 633 q 190 394 190 633 l 190 294 m 208 985 l 268 985 q 301 897 275 922 q 386 872 328 872 q 471 897 444 872 q 504 985 497 922 l 564 985 q 514 839 558 876 q 386 806 475 806 q 247 850 285 806 q 208 985 214 890 z "},"Ő":{"ha":942,"x_min":131,"x_max":813,"o":"m 131 372 l 131 619 q 149 787 131 722 q 211 901 168 851 q 471 1004 303 1004 q 744 883 653 1004 q 797 776 781 838 q 813 619 813 714 l 813 372 q 794 204 813 269 q 731 90 775 139 q 471 -12 639 -12 q 197 107 289 -12 q 146 216 161 154 q 131 372 131 278 m 217 382 q 231 240 217 292 q 278 144 244 188 q 471 61 343 61 q 675 158 610 61 q 715 250 703 200 q 726 382 726 300 l 726 610 q 713 751 726 697 q 665 847 699 804 q 471 931 599 931 q 267 833 333 931 q 228 742 239 792 q 217 610 217 692 l 217 382 m 349 1103 l 429 1293 l 528 1293 l 410 1103 l 349 1103 m 518 1103 l 599 1293 l 697 1293 l 579 1103 l 518 1103 z "},"ő":{"ha":772,"x_min":107,"x_max":665,"o":"m 107 292 l 107 399 q 386 703 107 703 q 665 399 665 703 l 665 292 q 586 53 665 128 q 385 -12 517 -12 q 107 292 107 -12 m 190 294 q 246 107 193 163 q 386 58 293 58 q 582 294 582 58 l 582 394 q 386 633 582 633 q 190 394 190 633 l 190 294 m 264 810 l 344 1000 l 443 1000 l 325 810 l 264 810 m 433 810 l 514 1000 l 613 1000 l 494 810 l 433 810 z "},"Ŕ":{"ha":899,"x_min":156,"x_max":793,"o":"m 242 440 l 242 0 l 156 0 l 156 992 l 485 992 q 624 975 569 992 q 715 919 678 958 q 786 719 786 849 q 574 450 786 479 l 793 0 l 697 0 l 489 440 l 242 440 m 240 513 l 493 513 q 699 715 699 513 q 478 919 699 919 l 240 919 l 240 513 m 390 1103 l 492 1293 l 599 1293 l 456 1103 l 390 1103 z "},"ŕ":{"ha":511,"x_min":132,"x_max":508,"o":"m 132 0 l 132 690 l 199 690 l 207 601 q 383 703 260 703 q 508 671 447 703 l 474 599 q 375 629 424 629 q 247 550 285 629 q 215 339 215 482 l 215 0 l 132 0 m 246 810 l 347 1000 l 454 1000 l 310 810 l 246 810 z "},"Ŗ":{"ha":899,"x_min":156,"x_max":793,"o":"m 242 440 l 242 0 l 156 0 l 156 992 l 485 992 q 624 975 569 992 q 715 919 678 958 q 786 719 786 849 q 574 450 786 479 l 793 0 l 697 0 l 489 440 l 242 440 m 240 513 l 493 513 q 699 715 699 513 q 478 919 699 919 l 240 919 l 240 513 m 347 -299 l 422 -100 l 514 -100 l 407 -299 l 347 -299 z "},"ŗ":{"ha":511,"x_min":57,"x_max":507,"o":"m 132 0 l 132 690 l 197 690 l 206 601 q 382 703 258 703 q 507 671 447 703 l 472 599 q 374 629 422 629 q 247 550 285 629 q 214 339 214 482 l 214 0 l 132 0 m 57 -299 l 132 -100 l 224 -100 l 117 -299 l 57 -299 z "},"Ř":{"ha":899,"x_min":156,"x_max":793,"o":"m 242 440 l 242 0 l 156 0 l 156 992 l 485 992 q 624 975 569 992 q 715 919 678 958 q 786 719 786 849 q 574 450 786 479 l 793 0 l 697 0 l 489 440 l 242 440 m 240 513 l 493 513 q 699 715 699 513 q 478 919 699 919 l 240 919 l 240 513 m 443 1171 l 544 1285 l 639 1285 l 468 1108 l 418 1108 l 247 1285 l 343 1285 l 443 1171 z "},"ř":{"ha":511,"x_min":106,"x_max":507,"o":"m 132 0 l 132 690 l 199 690 l 206 601 q 276 678 235 654 q 382 703 318 703 q 507 671 447 703 l 474 599 q 375 629 424 629 q 247 551 285 629 q 215 339 215 482 l 215 0 l 132 0 m 301 878 l 403 992 l 497 992 l 326 815 l 278 815 l 106 992 l 201 992 l 301 878 z "},"Ś":{"ha":807,"x_min":78,"x_max":733,"o":"m 78 125 l 146 169 q 400 63 214 63 q 592 121 526 63 q 649 258 649 172 q 583 399 649 351 q 526 429 551 421 q 393 465 501 438 q 167 575 232 504 q 108 740 108 638 q 197 942 108 872 q 404 1003 275 1003 q 679 890 601 1003 l 611 846 q 403 931 553 931 q 242 875 297 931 q 193 746 193 826 q 256 610 193 658 q 435 538 310 568 q 571 500 538 513 q 642 463 604 488 q 733 264 733 399 q 635 51 733 124 q 399 -11 549 -11 q 78 125 165 -11 m 353 1103 l 454 1293 l 561 1293 l 417 1103 l 353 1103 z "},"ś":{"ha":647,"x_min":44,"x_max":576,"o":"m 44 83 l 104 126 q 188 74 142 89 q 303 58 233 58 q 494 188 494 58 q 443 285 494 257 q 308 318 407 304 q 199 341 235 329 q 138 375 163 353 q 83 506 83 422 q 149 658 83 607 q 303 703 206 703 q 544 603 465 703 l 481 563 q 408 617 447 600 q 310 633 368 633 q 197 597 235 633 q 165 510 165 565 q 213 419 165 447 q 331 389 243 401 q 449 366 408 378 q 515 333 489 354 q 576 185 576 289 q 306 -12 576 -12 q 44 83 121 -12 m 265 810 l 367 1000 l 474 1000 l 329 810 l 265 810 z "},"Ŝ":{"ha":807,"x_min":78,"x_max":733,"o":"m 78 125 l 146 169 q 400 63 214 63 q 592 121 526 63 q 649 258 649 172 q 583 399 649 351 q 526 429 551 421 q 393 465 501 438 q 167 575 232 504 q 108 740 108 638 q 197 942 108 872 q 404 1003 275 1003 q 679 890 601 1003 l 611 846 q 403 931 553 931 q 242 875 297 931 q 193 746 193 826 q 256 610 193 658 q 435 538 310 568 q 571 500 538 513 q 642 463 604 488 q 733 264 733 399 q 635 51 733 124 q 399 -11 549 -11 q 78 125 165 -11 m 411 1224 l 310 1110 l 215 1110 l 386 1285 l 435 1285 l 607 1110 l 511 1110 l 411 1224 z "},"ŝ":{"ha":647,"x_min":44,"x_max":576,"o":"m 44 83 l 104 126 q 188 74 142 89 q 303 58 233 58 q 494 188 494 58 q 443 285 494 257 q 308 318 407 304 q 199 341 235 329 q 138 375 163 353 q 83 506 83 422 q 149 658 83 607 q 303 703 206 703 q 544 603 465 703 l 481 563 q 408 617 447 600 q 310 633 368 633 q 197 597 235 633 q 165 510 165 565 q 213 419 165 447 q 331 389 243 401 q 449 366 408 378 q 515 333 489 354 q 576 185 576 289 q 306 -12 576 -12 q 44 83 121 -12 m 317 931 l 217 817 l 121 817 l 292 993 l 342 993 l 513 817 l 418 817 l 317 931 z "},"Ţ":{"ha":769,"x_min":50,"x_max":719,"o":"m 343 0 l 343 918 l 50 918 l 50 992 l 719 992 l 719 918 l 429 918 l 429 0 l 343 0 m 274 -299 l 347 -100 l 439 -100 l 333 -299 l 274 -299 z "},"ţ":{"ha":457,"x_min":69,"x_max":381,"o":"m 156 621 l 69 621 l 69 690 l 156 690 l 158 919 l 239 919 l 239 690 l 374 690 l 374 621 l 239 621 l 239 194 q 263 97 239 124 q 354 71 288 71 l 381 71 l 381 0 l 354 0 q 190 47 229 0 q 156 201 156 89 l 156 621 m 149 -299 l 224 -100 l 315 -100 l 208 -299 l 149 -299 z "},"Ť":{"ha":769,"x_min":50,"x_max":719,"o":"m 343 0 l 343 918 l 50 918 l 50 992 l 719 992 l 719 918 l 429 918 l 429 0 l 343 0 m 385 1171 l 485 1285 l 581 1285 l 408 1108 l 360 1108 l 188 1285 l 283 1285 l 385 1171 z "},"ť":{"ha":493,"x_min":69,"x_max":524,"o":"m 156 621 l 69 621 l 69 690 l 156 690 l 158 919 l 239 919 l 239 690 l 374 690 l 374 621 l 239 621 l 239 194 q 263 97 239 124 q 354 71 288 71 l 381 71 l 381 0 l 354 0 q 190 47 229 0 q 156 201 156 89 l 156 621 m 403 767 l 433 1040 l 524 1040 l 461 767 l 403 767 z "},"Ŧ":{"ha":769,"x_min":50,"x_max":719,"o":"m 343 0 l 343 467 l 140 467 l 140 539 l 343 539 l 343 918 l 50 918 l 50 992 l 719 992 l 719 918 l 429 918 l 429 539 l 629 539 l 629 467 l 429 467 l 429 0 l 343 0 z "},"ŧ":{"ha":458,"x_min":71,"x_max":382,"o":"m 157 621 l 71 621 l 71 690 l 157 690 l 161 919 l 240 919 l 240 690 l 375 690 l 375 621 l 240 621 l 240 485 l 375 485 l 375 424 l 240 424 l 240 189 q 265 96 240 121 q 356 71 290 71 l 382 71 l 382 0 l 357 0 q 193 46 235 0 q 157 189 157 86 l 157 424 l 71 424 l 71 485 l 157 485 l 157 621 z "},"Ũ":{"ha":961,"x_min":150,"x_max":811,"o":"m 150 992 l 236 992 l 236 363 q 245 236 236 281 q 278 157 254 192 q 475 63 340 63 q 609 88 557 63 q 693 172 661 114 q 725 363 725 229 l 725 992 l 811 992 l 811 363 q 799 203 811 258 q 751 104 786 149 q 481 -11 664 -11 q 197 121 282 -11 q 160 215 171 163 q 150 363 150 267 l 150 992 m 329 1128 l 274 1128 q 322 1237 294 1206 q 396 1268 349 1268 q 494 1224 444 1268 q 571 1179 544 1179 q 632 1257 610 1179 l 688 1257 q 642 1148 668 1179 q 568 1117 615 1117 q 517 1126 539 1117 q 467 1163 494 1136 q 392 1207 418 1207 q 329 1128 350 1207 z "},"ũ":{"ha":767,"x_min":125,"x_max":636,"o":"m 125 690 l 208 690 l 208 300 q 229 153 208 203 q 375 60 267 60 q 518 135 476 60 q 553 342 553 200 l 553 690 l 636 690 l 636 0 l 571 0 l 563 93 q 368 -12 508 -12 q 146 121 196 -12 q 125 293 125 178 l 125 690 m 233 835 l 176 835 q 224 944 197 913 q 300 975 251 975 q 399 931 349 975 q 474 886 449 886 q 535 964 514 886 l 592 964 q 544 854 571 885 q 472 824 518 824 q 420 833 442 824 q 369 869 399 843 q 294 914 322 914 q 233 835 254 914 z "},"Ū":{"ha":961,"x_min":150,"x_max":811,"o":"m 150 992 l 236 992 l 236 363 q 245 236 236 281 q 278 157 254 192 q 475 63 340 63 q 609 88 557 63 q 693 172 661 114 q 725 363 725 229 l 725 992 l 811 992 l 811 363 q 799 203 811 258 q 751 104 786 149 q 481 -11 664 -11 q 197 121 282 -11 q 160 215 171 163 q 150 363 150 267 l 150 992 m 315 1161 l 315 1224 l 646 1224 l 646 1161 l 315 1161 z "},"ū":{"ha":767,"x_min":125,"x_max":636,"o":"m 125 690 l 208 690 l 208 300 q 229 153 208 203 q 375 60 267 60 q 518 135 476 60 q 553 342 553 200 l 553 690 l 636 690 l 636 0 l 571 0 l 563 93 q 368 -12 508 -12 q 146 121 196 -12 q 125 293 125 178 l 125 690 m 219 869 l 219 931 l 550 931 l 550 869 l 219 869 z "},"Ŭ":{"ha":961,"x_min":150,"x_max":811,"o":"m 150 992 l 236 992 l 236 363 q 245 236 236 281 q 278 157 254 192 q 475 63 340 63 q 609 88 557 63 q 693 172 661 114 q 725 363 725 229 l 725 992 l 811 992 l 811 363 q 799 203 811 258 q 751 104 786 149 q 481 -11 664 -11 q 197 121 282 -11 q 160 215 171 163 q 150 363 150 267 l 150 992 m 303 1278 l 363 1278 q 396 1190 369 1215 q 481 1164 422 1164 q 565 1190 539 1164 q 599 1278 592 1215 l 658 1278 q 608 1132 653 1171 q 481 1099 569 1099 q 342 1143 379 1099 q 303 1278 308 1182 z "},"ŭ":{"ha":767,"x_min":125,"x_max":636,"o":"m 125 690 l 208 690 l 208 300 q 229 153 208 203 q 375 60 267 60 q 518 135 476 60 q 553 342 553 200 l 553 690 l 636 690 l 636 0 l 571 0 l 563 93 q 368 -12 508 -12 q 146 121 196 -12 q 125 293 125 178 l 125 690 m 206 985 l 267 985 q 299 897 272 922 q 383 872 325 872 q 468 897 442 872 q 501 985 494 922 l 563 985 q 513 839 556 876 q 383 806 474 806 q 224 885 260 806 q 206 985 210 915 z "},"Ů":{"ha":961,"x_min":150,"x_max":811,"o":"m 150 992 l 236 992 l 236 363 q 245 236 236 281 q 278 157 254 192 q 475 63 340 63 q 609 88 557 63 q 693 172 661 114 q 725 363 725 229 l 725 992 l 811 992 l 811 363 q 799 203 811 258 q 751 104 786 149 q 481 -11 664 -11 q 197 121 282 -11 q 160 215 171 163 q 150 363 150 267 l 150 992 m 481 1360 q 583 1318 546 1360 q 615 1226 615 1283 q 574 1124 615 1161 q 481 1092 538 1092 q 378 1133 415 1092 q 346 1226 346 1169 q 388 1328 346 1292 q 481 1360 424 1360 m 481 1311 q 427 1289 446 1311 q 408 1225 408 1267 q 428 1162 408 1185 q 481 1139 447 1139 q 533 1162 514 1139 q 551 1225 551 1185 q 533 1289 551 1267 q 481 1311 514 1311 z "},"ů":{"ha":767,"x_min":125,"x_max":636,"o":"m 125 690 l 208 690 l 208 300 q 229 153 208 203 q 375 60 267 60 q 518 135 476 60 q 553 342 553 200 l 553 690 l 636 690 l 636 0 l 571 0 l 563 93 q 368 -12 508 -12 q 146 121 196 -12 q 125 293 125 178 l 125 690 m 383 1067 q 486 1026 450 1067 q 518 933 518 990 q 476 831 518 868 q 383 799 440 799 q 281 840 318 799 q 249 933 249 876 q 290 1035 249 999 q 383 1067 326 1067 m 383 1019 q 331 997 350 1019 q 313 933 313 974 q 331 869 313 892 q 383 847 350 847 q 437 869 418 847 q 456 933 456 892 q 437 997 456 974 q 383 1019 418 1019 z "},"Ű":{"ha":961,"x_min":150,"x_max":811,"o":"m 150 992 l 236 992 l 236 363 q 245 236 236 281 q 278 157 254 192 q 475 63 340 63 q 609 88 557 63 q 693 172 661 114 q 725 363 725 229 l 725 992 l 811 992 l 811 363 q 799 203 811 258 q 751 104 786 149 q 481 -11 664 -11 q 197 121 282 -11 q 160 215 171 163 q 150 363 150 267 l 150 992 m 361 1103 l 442 1293 l 540 1293 l 422 1103 l 361 1103 m 531 1103 l 611 1293 l 710 1293 l 592 1103 l 531 1103 z "},"ű":{"ha":767,"x_min":125,"x_max":636,"o":"m 125 690 l 208 690 l 208 300 q 229 153 208 203 q 375 60 267 60 q 518 135 476 60 q 553 342 553 200 l 553 690 l 636 690 l 636 0 l 571 0 l 563 93 q 368 -12 508 -12 q 146 121 196 -12 q 125 293 125 178 l 125 690 m 261 810 l 342 1000 l 440 1000 l 322 810 l 261 810 m 431 810 l 511 1000 l 610 1000 l 492 810 l 431 810 z "},"Ų":{"ha":961,"x_min":150,"x_max":811,"o":"m 150 992 l 236 992 l 236 363 q 245 236 236 281 q 278 157 254 192 q 475 63 340 63 q 609 88 557 63 q 693 172 661 114 q 725 363 725 229 l 725 992 l 811 992 l 811 363 q 796 192 811 250 q 736 85 781 135 q 614 6 686 29 q 519 -69 546 -36 q 493 -143 493 -103 q 567 -203 493 -203 q 646 -192 604 -203 l 654 -244 q 554 -261 600 -261 q 415 -156 415 -261 q 501 -10 415 -75 q 467 -11 482 -11 q 197 121 282 -11 q 160 215 171 163 q 150 363 150 267 l 150 992 z "},"ų":{"ha":767,"x_min":125,"x_max":660,"o":"m 636 0 l 618 -10 q 499 -144 499 -76 q 571 -203 499 -203 q 651 -192 610 -203 l 660 -244 q 558 -261 608 -261 q 421 -158 421 -261 q 569 8 421 -57 l 563 93 q 368 -12 508 -12 q 146 121 196 -12 q 125 293 125 178 l 125 690 l 208 690 l 208 300 q 229 153 208 203 q 375 60 267 60 q 518 135 476 60 q 553 342 553 200 l 553 690 l 636 690 l 636 0 z "},"Ŵ":{"ha":1193,"x_min":43,"x_max":1149,"o":"m 292 0 l 43 992 l 131 992 l 332 144 l 568 992 l 625 992 l 861 144 l 1063 992 l 1149 992 l 900 0 l 829 0 l 596 832 l 363 0 l 292 0 m 596 1224 l 496 1110 l 400 1110 l 571 1285 l 621 1285 l 792 1110 l 697 1110 l 596 1224 z "},"ŵ":{"ha":1067,"x_min":60,"x_max":1008,"o":"m 275 0 l 60 690 l 144 690 l 313 118 l 506 690 l 563 690 l 756 118 l 924 690 l 1008 690 l 793 0 l 728 0 l 533 558 l 340 0 l 275 0 m 533 931 l 433 817 l 338 817 l 510 993 l 558 993 l 731 817 l 635 817 l 533 931 z "},"Ŷ":{"ha":732,"x_min":10,"x_max":725,"o":"m 325 0 l 325 358 l 10 992 l 101 992 l 368 449 l 633 992 l 725 992 l 411 358 l 411 0 l 325 0 m 367 1224 l 267 1110 l 171 1110 l 342 1285 l 392 1285 l 563 1110 l 468 1110 l 367 1224 z "},"ŷ":{"ha":667,"x_min":35,"x_max":622,"o":"m 297 -4 l 35 690 l 119 690 l 342 90 l 538 690 l 622 690 l 340 -136 q 246 -289 300 -254 q 89 -319 197 -319 l 89 -249 q 198 -224 165 -247 q 256 -125 231 -200 l 297 -4 m 333 931 l 232 817 l 138 817 l 308 993 l 357 993 l 529 817 l 433 817 l 333 931 z "},"Ź":{"ha":743,"x_min":69,"x_max":665,"o":"m 69 0 l 69 64 l 547 918 l 96 918 l 96 992 l 643 992 l 643 928 l 165 74 l 665 74 l 665 0 l 69 0 m 344 1103 l 446 1293 l 553 1293 l 408 1103 l 344 1103 z "},"ź":{"ha":656,"x_min":67,"x_max":565,"o":"m 67 0 l 67 54 l 439 619 l 94 619 l 94 690 l 543 690 l 543 636 l 171 71 l 565 71 l 565 0 l 67 0 m 283 810 l 383 1000 l 492 1000 l 347 810 l 283 810 z "},"Ż":{"ha":743,"x_min":69,"x_max":665,"o":"m 69 0 l 69 64 l 547 918 l 96 918 l 96 992 l 643 992 l 643 928 l 165 74 l 665 74 l 665 0 l 69 0 m 344 1114 l 344 1247 l 426 1247 l 426 1114 l 344 1114 z "},"ż":{"ha":656,"x_min":67,"x_max":565,"o":"m 67 0 l 67 54 l 439 619 l 94 619 l 94 690 l 543 690 l 543 636 l 171 71 l 565 71 l 565 0 l 67 0 m 288 822 l 288 954 l 368 954 l 368 822 l 288 822 z "},"Ơ":{"ha":968,"x_min":131,"x_max":965,"o":"m 881 1004 l 958 1004 q 965 957 965 979 q 883 806 965 868 q 800 751 857 786 q 813 619 813 692 l 813 372 q 794 204 813 269 q 731 90 775 139 q 471 -12 639 -12 q 197 107 289 -12 q 146 216 161 154 q 131 372 131 278 l 131 619 q 149 787 131 722 q 211 901 168 851 q 472 1004 303 1004 q 786 808 708 1004 q 873 877 851 850 q 894 949 894 904 q 881 1004 894 975 m 217 382 q 231 240 217 292 q 278 144 244 188 q 471 61 343 61 q 675 158 610 61 q 715 250 703 200 q 726 382 726 300 l 726 610 q 713 751 726 697 q 665 847 699 804 q 471 931 599 931 q 267 833 333 931 q 228 742 239 792 q 217 610 217 692 l 217 382 z "},"ơ":{"ha":793,"x_min":107,"x_max":813,"o":"m 728 703 l 806 703 q 813 653 813 676 q 776 546 813 593 q 661 456 740 499 q 665 389 665 415 l 665 292 q 586 53 665 128 q 385 -12 517 -12 q 107 292 107 -12 l 107 399 q 386 703 107 703 q 653 515 608 703 l 656 518 q 661 521 660 519 q 724 579 707 553 q 742 646 742 606 q 728 703 742 675 m 190 294 q 246 107 193 163 q 386 58 293 58 q 582 294 582 58 l 582 394 q 386 633 582 633 q 190 394 190 633 l 190 294 z "},"Ư":{"ha":1000,"x_min":150,"x_max":1024,"o":"m 150 992 l 236 992 l 236 363 q 245 236 236 281 q 278 157 254 192 q 475 63 340 63 q 609 88 557 63 q 693 172 661 114 q 725 363 725 229 l 725 992 l 811 992 l 811 788 q 920 860 889 825 q 951 947 951 896 q 939 1004 951 976 l 1015 1004 q 1024 954 1024 978 q 971 828 1024 881 q 811 725 925 782 l 811 363 q 799 203 811 258 q 751 104 786 149 q 481 -11 664 -11 q 197 121 282 -11 q 160 215 171 163 q 150 363 150 267 l 150 992 z "},"ư":{"ha":807,"x_min":125,"x_max":849,"o":"m 125 690 l 208 690 l 208 300 q 229 153 208 203 q 375 60 267 60 q 518 135 476 60 q 553 342 553 200 l 553 690 l 636 690 l 636 486 q 746 560 715 525 q 776 646 776 594 q 764 703 776 675 l 842 703 q 849 653 849 676 q 751 489 849 560 q 636 424 721 467 l 636 0 l 571 0 l 563 93 q 368 -12 508 -12 q 146 121 196 -12 q 125 293 125 178 l 125 690 z "},"Ǆ":{"ha":1629,"x_min":154,"x_max":1551,"o":"m 154 0 l 154 992 l 461 992 q 701 921 617 992 q 788 801 763 871 q 814 617 814 731 l 814 375 q 788 192 814 261 q 701 71 763 122 q 461 0 617 0 l 154 0 m 240 72 l 449 72 q 644 132 581 72 q 708 233 689 174 q 728 385 728 293 l 728 607 q 708 759 728 700 q 644 860 689 818 q 449 919 581 919 l 240 919 l 240 72 m 956 0 l 956 64 l 1435 918 l 983 918 l 983 992 l 1529 992 l 1529 928 l 1051 74 l 1551 74 l 1551 0 l 956 0 m 1267 1171 l 1367 1285 l 1463 1285 l 1292 1108 l 1242 1108 l 1071 1285 l 1165 1285 l 1267 1171 z "},"ǅ":{"ha":1542,"x_min":154,"x_max":1453,"o":"m 154 0 l 154 992 l 461 992 q 701 921 617 992 q 788 801 763 871 q 814 617 814 731 l 814 375 q 788 192 814 261 q 701 71 763 122 q 461 0 617 0 l 154 0 m 240 72 l 449 72 q 644 132 581 72 q 708 233 689 174 q 728 385 728 293 l 728 607 q 708 759 728 700 q 644 860 689 818 q 449 919 581 919 l 240 919 l 240 72 m 954 0 l 954 54 l 1326 619 l 982 619 l 982 690 l 1431 690 l 1431 636 l 1058 71 l 1453 71 l 1453 0 l 954 0 m 1217 878 l 1317 992 l 1413 992 l 1240 815 l 1192 815 l 1019 992 l 1115 992 l 1217 878 z "},"ǆ":{"ha":1439,"x_min":107,"x_max":1350,"o":"m 585 0 l 579 82 l 578 81 q 574 75 574 76 q 518 24 543 39 q 368 -12 458 -12 q 163 74 226 -12 q 107 293 107 147 l 107 399 q 365 703 107 703 q 484 682 438 703 q 569 611 531 661 l 569 992 l 651 992 l 651 0 l 585 0 m 569 396 q 558 497 568 460 q 526 564 549 533 q 378 633 478 633 q 190 394 190 633 l 190 296 q 378 58 190 58 q 569 294 569 58 l 569 396 m 851 0 l 851 54 l 1222 619 l 879 619 l 879 690 l 1328 690 l 1328 636 l 956 71 l 1350 71 l 1350 0 l 851 0 m 1118 878 l 1219 992 l 1314 992 l 1143 815 l 1094 815 l 922 992 l 1018 992 l 1118 878 z "},"Ǉ":{"ha":1129,"x_min":154,"x_max":976,"o":"m 154 0 l 154 992 l 240 992 l 240 74 l 722 74 l 722 0 l 154 0 m 890 992 l 976 992 l 976 61 q 969 -120 976 -65 q 940 -215 963 -175 q 708 -336 876 -336 q 592 -318 653 -336 l 619 -249 q 703 -262 663 -262 q 872 -150 832 -262 q 890 57 890 -101 l 890 992 z "},"ǈ":{"ha":1086,"x_min":154,"x_max":954,"o":"m 154 0 l 154 992 l 240 992 l 240 74 l 722 74 l 722 0 l 154 0 m 871 861 l 871 994 l 954 994 l 954 861 l 871 861 m 871 690 l 954 690 l 954 -32 q 941 -181 954 -131 q 893 -264 928 -231 q 820 -306 861 -294 q 696 -319 779 -318 l 696 -247 q 789 -236 760 -247 q 840 -193 818 -225 q 865 -135 858 -167 q 871 -40 871 -104 l 871 690 z "},"ǉ":{"ha":747,"x_min":129,"x_max":615,"o":"m 129 992 l 213 992 l 213 194 q 237 97 213 124 q 328 71 261 71 l 368 71 l 368 0 l 325 0 q 164 49 204 0 q 129 201 129 92 l 129 992 m 532 861 l 532 994 l 615 994 l 615 861 l 532 861 m 532 690 l 615 690 l 615 -32 q 602 -181 615 -131 q 554 -264 589 -231 q 481 -306 522 -294 q 357 -319 440 -318 l 357 -247 q 450 -236 421 -247 q 501 -193 479 -225 q 526 -135 519 -167 q 532 -40 532 -104 l 532 690 z "},"Ǌ":{"ha":1401,"x_min":154,"x_max":1249,"o":"m 154 0 l 154 992 l 236 992 l 767 149 l 767 992 l 851 992 l 851 0 l 769 0 l 239 843 l 239 0 l 154 0 m 1163 992 l 1249 992 l 1249 61 q 1241 -119 1249 -64 q 1213 -215 1233 -175 q 979 -336 1147 -336 q 864 -318 925 -336 l 892 -249 q 975 -262 933 -262 q 1144 -150 1103 -262 q 1163 57 1163 -101 l 1163 992 z "},"ǋ":{"ha":1358,"x_min":154,"x_max":1226,"o":"m 154 0 l 154 992 l 236 992 l 767 149 l 767 992 l 851 992 l 851 0 l 769 0 l 239 843 l 239 0 l 154 0 m 1143 690 l 1226 690 l 1226 -32 q 1213 -181 1226 -131 q 1164 -264 1199 -231 q 1091 -306 1132 -294 q 968 -319 1050 -318 l 968 -247 q 1061 -236 1032 -247 q 1113 -193 1090 -225 q 1137 -135 1131 -167 q 1143 -40 1143 -104 l 1143 690 m 1143 861 l 1143 994 l 1226 994 l 1226 861 l 1143 861 z "},"ǌ":{"ha":1135,"x_min":132,"x_max":1003,"o":"m 132 0 l 132 690 l 197 690 l 206 597 q 408 703 263 703 q 636 569 585 703 q 658 397 658 514 l 658 0 l 575 0 l 575 390 q 554 538 575 489 q 400 631 514 631 q 253 556 294 631 q 215 349 215 490 l 215 0 l 132 0 m 919 690 l 1003 690 l 1003 -32 q 990 -180 1003 -129 q 942 -264 976 -231 q 869 -306 910 -294 q 744 -319 828 -318 l 744 -247 q 838 -236 808 -247 q 889 -193 867 -225 q 913 -135 907 -167 q 919 -40 919 -104 l 919 690 m 919 861 l 919 994 l 1003 994 l 1003 861 l 919 861 z "},"Ǎ":{"ha":824,"x_min":8,"x_max":817,"o":"m 643 226 l 182 226 l 103 0 l 8 0 l 372 992 l 453 992 l 817 0 l 722 0 l 643 226 m 619 299 l 413 876 l 206 299 l 619 299 m 413 1171 l 513 1285 l 608 1285 l 436 1108 l 388 1108 l 217 1285 l 311 1285 l 413 1171 z "},"ǎ":{"ha":724,"x_min":72,"x_max":597,"o":"m 515 397 l 515 457 q 488 579 515 542 q 349 633 447 633 q 172 563 239 633 l 115 608 q 356 703 197 703 q 567 610 508 703 q 591 545 585 581 q 597 446 597 510 l 597 0 l 531 0 l 524 53 q 444 2 490 17 q 317 -12 399 -12 q 119 39 174 -12 q 72 189 72 85 q 139 357 72 313 q 336 397 199 397 l 515 397 m 515 332 l 342 332 q 190 296 233 332 q 153 189 153 263 q 199 83 153 111 q 333 58 239 58 q 494 108 456 58 q 515 208 515 136 l 515 332 m 365 878 l 467 992 l 561 992 l 390 815 l 340 815 l 169 992 l 265 992 l 365 878 z "},"Ǐ":{"ha":394,"x_min":1,"x_max":393,"o":"m 154 0 l 154 992 l 240 992 l 240 0 l 154 0 m 197 1171 l 299 1285 l 393 1285 l 222 1108 l 174 1108 l 1 1285 l 97 1285 l 197 1171 z "},"ǐ":{"ha":343,"x_min":-25,"x_max":367,"o":"m 129 0 l 129 690 l 213 690 l 213 0 l 129 0 m 171 878 l 272 992 l 367 992 l 196 815 l 147 815 l -25 992 l 71 992 l 171 878 z "},"Ǒ":{"ha":942,"x_min":131,"x_max":813,"o":"m 131 372 l 131 619 q 149 787 131 722 q 211 901 168 851 q 471 1004 303 1004 q 744 883 653 1004 q 797 776 781 838 q 813 619 813 714 l 813 372 q 794 204 813 269 q 731 90 775 139 q 471 -12 639 -12 q 197 107 289 -12 q 146 216 161 154 q 131 372 131 278 m 217 382 q 230 240 217 292 q 276 144 243 188 q 471 61 343 61 q 675 158 610 61 q 715 250 703 200 q 726 382 726 300 l 726 610 q 713 751 726 697 q 665 847 699 804 q 471 931 599 931 q 267 833 333 931 q 228 742 239 792 q 217 610 217 692 l 217 382 m 471 1171 l 572 1285 l 667 1285 l 496 1108 l 447 1108 l 275 1285 l 371 1285 l 471 1171 z "},"ǒ":{"ha":772,"x_min":107,"x_max":665,"o":"m 107 292 l 107 399 q 386 703 107 703 q 665 399 665 703 l 665 292 q 586 53 665 128 q 385 -12 517 -12 q 107 292 107 -12 m 190 294 q 246 107 193 163 q 386 58 293 58 q 582 294 582 58 l 582 394 q 386 633 582 633 q 190 394 190 633 l 190 294 m 386 878 l 488 992 l 582 992 l 411 815 l 361 815 l 190 992 l 286 992 l 386 878 z "},"Ǔ":{"ha":961,"x_min":150,"x_max":811,"o":"m 150 992 l 236 992 l 236 363 q 245 236 236 281 q 278 157 254 192 q 475 63 340 63 q 609 88 557 63 q 693 172 661 114 q 725 363 725 229 l 725 992 l 811 992 l 811 363 q 799 203 811 258 q 751 104 786 149 q 481 -11 664 -11 q 197 121 282 -11 q 160 215 171 163 q 150 363 150 267 l 150 992 m 481 1171 l 582 1285 l 676 1285 l 506 1108 l 456 1108 l 285 1285 l 379 1285 l 481 1171 z "},"ǔ":{"ha":767,"x_min":125,"x_max":636,"o":"m 125 690 l 208 690 l 208 300 q 229 153 208 203 q 375 60 267 60 q 518 135 476 60 q 553 342 553 200 l 553 690 l 636 690 l 636 0 l 571 0 l 563 93 q 368 -12 508 -12 q 146 121 196 -12 q 125 293 125 178 l 125 690 m 383 878 l 485 992 l 581 992 l 408 815 l 360 815 l 188 992 l 283 992 l 383 878 z "},"Ǧ":{"ha":922,"x_min":131,"x_max":808,"o":"m 500 439 l 500 510 l 808 510 l 808 360 q 791 201 808 263 q 732 92 774 139 q 471 -12 642 -12 q 190 115 278 -12 q 144 227 158 163 q 131 396 131 292 l 131 594 q 147 778 131 710 q 204 896 164 846 q 464 1003 293 1003 q 696 932 613 1003 q 775 765 768 869 l 694 760 q 615 890 682 846 q 465 929 556 929 q 268 839 326 929 q 217 593 217 758 l 217 399 q 285 131 217 208 q 468 61 344 61 q 671 149 604 61 q 711 230 700 186 q 722 344 722 274 l 722 439 l 500 439 m 465 1171 l 565 1285 l 661 1285 l 489 1108 l 440 1108 l 268 1285 l 364 1285 l 465 1171 z "},"ǧ":{"ha":783,"x_min":107,"x_max":651,"o":"m 569 81 q 363 -12 507 -12 q 107 293 107 -12 l 107 399 q 364 703 107 703 q 492 680 442 703 q 579 604 543 657 l 585 690 l 651 690 l 651 -8 q 364 -324 651 -324 q 132 -226 207 -324 l 194 -186 q 361 -256 254 -256 q 569 -17 567 -256 l 569 81 m 569 396 q 558 497 567 460 q 526 564 549 533 q 376 633 478 633 q 190 394 190 633 l 190 296 q 376 58 190 58 q 569 294 569 58 l 569 396 m 406 878 l 507 992 l 603 992 l 431 815 l 382 815 l 210 992 l 306 992 l 406 878 z "},"Ǫ":{"ha":942,"x_min":131,"x_max":813,"o":"m 599 6 q 485 -144 485 -68 q 557 -203 485 -203 q 636 -192 596 -203 l 644 -244 q 544 -261 594 -261 q 407 -156 407 -261 q 490 -12 407 -78 q 474 -12 481 -12 q 197 107 289 -12 q 146 216 161 154 q 131 372 131 278 l 131 619 q 149 787 131 722 q 211 901 168 851 q 471 1004 303 1004 q 744 883 653 1004 q 797 776 781 838 q 813 619 813 714 l 813 372 q 787 183 813 254 q 700 60 761 113 q 599 6 654 22 m 217 382 q 231 240 217 292 q 278 144 244 188 q 471 61 343 61 q 675 158 610 61 q 715 250 703 200 q 726 382 726 300 l 726 610 q 713 751 726 697 q 665 847 699 804 q 471 931 599 931 q 267 833 333 931 q 228 742 239 792 q 217 610 217 692 l 217 382 z "},"ǫ":{"ha":772,"x_min":107,"x_max":665,"o":"m 500 3 q 399 -143 399 -67 q 472 -203 399 -203 q 551 -192 510 -203 l 560 -244 q 460 -261 510 -261 q 321 -156 321 -261 q 397 -12 321 -76 q 393 -12 396 -12 q 371 -12 383 -12 q 154 92 222 -12 q 107 292 107 163 l 107 399 q 386 703 107 703 q 665 399 665 703 l 665 292 q 500 3 665 54 m 190 294 q 246 107 193 163 q 386 58 293 58 q 582 294 582 58 l 582 394 q 386 633 582 633 q 190 394 190 633 l 190 294 z "},"Ǳ":{"ha":1629,"x_min":154,"x_max":1551,"o":"m 154 0 l 154 992 l 461 992 q 701 921 617 992 q 788 801 763 871 q 814 617 814 731 l 814 375 q 788 192 814 261 q 701 71 763 122 q 461 0 617 0 l 154 0 m 240 72 l 449 72 q 644 132 581 72 q 708 233 689 174 q 728 385 728 293 l 728 607 q 708 759 728 700 q 644 860 689 818 q 449 919 581 919 l 240 919 l 240 72 m 956 0 l 956 64 l 1435 918 l 983 918 l 983 992 l 1529 992 l 1529 928 l 1051 74 l 1551 74 l 1551 0 l 956 0 z "},"ǲ":{"ha":1546,"x_min":158,"x_max":1457,"o":"m 158 0 l 158 992 l 465 992 q 706 921 621 992 q 792 801 767 871 q 818 617 818 731 l 818 375 q 792 192 818 261 q 706 71 767 122 q 465 0 621 0 l 158 0 m 244 72 l 453 72 q 649 132 585 72 q 713 233 693 174 q 732 385 732 293 l 732 607 q 713 759 732 700 q 649 860 693 818 q 453 919 585 919 l 244 919 l 244 72 m 958 0 l 958 54 l 1331 619 l 986 619 l 986 690 l 1435 690 l 1435 636 l 1063 71 l 1457 71 l 1457 0 l 958 0 z "},"ǳ":{"ha":1439,"x_min":107,"x_max":1350,"o":"m 585 0 l 579 82 l 578 81 q 574 75 574 76 q 518 24 543 39 q 368 -12 458 -12 q 163 74 226 -12 q 107 293 107 147 l 107 399 q 365 703 107 703 q 484 682 438 703 q 569 611 531 661 l 569 992 l 651 992 l 651 0 l 585 0 m 569 396 q 558 497 568 460 q 526 564 549 533 q 378 633 478 633 q 190 394 190 633 l 190 296 q 378 58 190 58 q 569 294 569 58 l 569 396 m 851 0 l 851 54 l 1222 619 l 879 619 l 879 690 l 1328 690 l 1328 636 l 956 71 l 1350 71 l 1350 0 l 851 0 z "},"Ǵ":{"ha":922,"x_min":131,"x_max":808,"o":"m 500 439 l 500 510 l 808 510 l 808 360 q 791 201 808 263 q 732 92 774 139 q 471 -12 642 -12 q 190 115 278 -12 q 144 227 158 163 q 131 396 131 292 l 131 594 q 147 778 131 710 q 204 896 164 846 q 464 1003 293 1003 q 696 932 613 1003 q 775 765 768 869 l 694 760 q 615 890 682 846 q 465 929 556 929 q 268 839 326 929 q 217 593 217 758 l 217 399 q 285 131 217 208 q 468 61 344 61 q 671 149 604 61 q 711 230 700 186 q 722 344 722 274 l 722 439 l 500 439 m 411 1103 l 511 1293 l 619 1293 l 475 1103 l 411 1103 z "},"ǵ":{"ha":783,"x_min":107,"x_max":651,"o":"m 569 81 q 363 -12 507 -12 q 107 293 107 -12 l 107 399 q 364 703 107 703 q 492 680 442 703 q 579 604 543 657 l 585 690 l 651 690 l 651 -8 q 364 -324 651 -324 q 132 -226 207 -324 l 194 -186 q 361 -256 254 -256 q 569 -17 567 -256 l 569 81 m 569 396 q 558 497 567 460 q 526 564 549 533 q 376 633 478 633 q 190 394 190 633 l 190 296 q 376 58 190 58 q 569 294 569 58 l 569 396 m 340 810 l 440 1000 l 549 1000 l 404 810 l 340 810 z "},"Ǻ":{"ha":824,"x_min":8,"x_max":817,"o":"m 358 956 q 299 1002 321 968 q 276 1082 276 1036 q 318 1183 276 1147 q 413 1215 354 1215 q 515 1174 478 1215 q 547 1082 547 1139 q 526 1003 547 1036 q 465 956 504 969 l 817 0 l 722 0 l 643 226 l 182 226 l 103 0 l 8 0 l 358 956 m 619 299 l 413 876 l 206 299 l 619 299 m 413 1167 q 359 1144 378 1167 q 340 1081 340 1122 q 359 1017 340 1040 q 413 994 378 994 q 465 1017 446 994 q 483 1081 483 1040 q 465 1144 483 1122 q 413 1167 446 1167 m 368 1242 l 444 1400 l 550 1400 l 424 1242 l 368 1242 z "},"ǻ":{"ha":724,"x_min":72,"x_max":597,"o":"m 515 397 l 515 457 q 488 579 515 542 q 349 633 447 633 q 172 563 239 633 l 115 608 q 356 703 197 703 q 567 610 508 703 q 591 545 585 581 q 597 446 597 510 l 597 0 l 531 0 l 524 53 q 444 2 490 17 q 317 -12 399 -12 q 119 39 174 -12 q 72 189 72 85 q 139 357 72 313 q 336 397 199 397 l 515 397 m 515 332 l 342 332 q 190 296 233 332 q 153 189 153 263 q 199 83 153 111 q 333 58 239 58 q 494 108 456 58 q 515 208 515 136 l 515 332 m 364 1039 q 467 999 431 1039 q 500 906 500 963 q 458 803 500 840 q 365 771 421 771 q 263 813 300 771 q 229 906 229 849 q 271 1007 229 971 q 364 1039 307 1039 m 364 992 q 312 969 331 992 q 293 906 293 946 q 312 842 293 864 q 364 819 331 819 q 417 842 399 819 q 436 906 436 864 q 417 969 436 946 q 364 992 399 992 m 321 1093 l 397 1251 l 501 1251 l 376 1093 l 321 1093 z "},"Ǽ":{"ha":1314,"x_min":-46,"x_max":1232,"o":"m 667 235 l 207 235 l 54 0 l -46 0 l 611 992 l 1232 992 l 1232 918 l 753 918 l 753 539 l 1163 539 l 1163 465 l 753 465 l 753 74 l 1232 74 l 1232 0 l 667 0 l 667 235 m 667 307 l 667 918 l 650 918 l 250 307 l 667 307 m 854 1103 l 954 1293 l 1063 1293 l 918 1103 l 854 1103 z "},"ǽ":{"ha":1161,"x_min":72,"x_max":1064,"o":"m 568 582 q 793 703 626 703 q 1006 611 940 703 q 1064 375 1064 531 l 1064 335 l 600 335 l 600 299 q 661 111 600 174 q 811 58 715 58 q 978 125 921 58 l 1040 85 q 807 -12 964 -12 q 656 19 714 -12 q 561 119 597 51 q 481 19 539 50 q 315 -12 422 -12 q 119 39 172 -12 q 72 189 72 85 q 139 357 72 313 q 336 397 199 397 l 515 397 l 515 457 q 488 579 515 542 q 349 633 447 633 q 172 563 239 633 l 115 606 q 353 703 199 703 q 568 582 521 703 m 515 332 l 342 332 q 190 296 233 332 q 153 189 153 263 q 199 83 153 111 q 331 58 238 58 q 430 71 394 58 q 486 115 465 83 q 509 167 503 139 q 515 250 515 194 l 515 332 m 600 399 l 983 399 l 983 408 q 943 565 983 507 q 792 633 896 633 q 643 567 692 633 q 600 407 600 510 l 600 399 m 522 810 l 622 1000 l 731 1000 l 586 810 l 522 810 z "},"Ǿ":{"ha":940,"x_min":114,"x_max":826,"o":"m 757 864 q 811 619 811 781 l 811 372 q 792 204 811 268 q 729 90 774 140 q 469 -12 638 -12 q 232 69 322 -12 l 171 -22 l 114 19 l 185 125 q 129 372 129 210 l 129 619 q 148 787 129 722 q 210 901 167 851 q 469 1004 301 1004 q 606 984 549 1004 q 711 919 663 964 l 769 1010 l 826 968 l 757 864 m 701 779 l 279 142 q 469 61 349 61 q 674 158 608 61 q 713 250 701 201 q 725 382 725 299 l 725 610 q 701 779 725 715 m 240 210 l 663 847 q 469 931 597 931 q 265 833 332 931 q 227 741 239 792 q 215 610 215 690 l 215 382 q 240 210 215 276 m 413 1103 l 513 1293 l 621 1293 l 476 1103 l 413 1103 z "},"ǿ":{"ha":772,"x_min":106,"x_max":664,"o":"m 613 607 q 664 399 664 535 l 664 293 q 385 -11 664 -11 q 204 38 269 -11 l 158 -25 l 107 14 l 158 85 q 106 293 106 158 l 106 399 q 386 703 106 703 q 565 654 500 703 l 611 717 l 663 676 l 613 607 m 558 531 l 251 104 q 383 60 300 60 q 581 296 581 60 l 581 394 q 558 531 581 476 m 213 161 l 518 588 q 388 633 469 633 q 189 394 189 633 l 189 296 q 213 161 189 217 m 326 810 l 428 1000 l 535 1000 l 390 810 l 326 810 z "},"Ȁ":{"ha":824,"x_min":8,"x_max":817,"o":"m 643 226 l 182 226 l 103 0 l 8 0 l 372 992 l 453 992 l 817 0 l 722 0 l 643 226 m 619 299 l 413 876 l 206 299 l 619 299 m 535 1103 l 474 1103 l 356 1293 l 454 1293 l 535 1103 m 365 1103 l 304 1103 l 186 1293 l 285 1293 l 365 1103 z "},"ȁ":{"ha":724,"x_min":72,"x_max":597,"o":"m 515 397 l 515 457 q 488 579 515 542 q 349 633 447 633 q 172 563 239 633 l 115 608 q 356 703 197 703 q 567 610 508 703 q 591 545 585 581 q 597 446 597 510 l 597 0 l 531 0 l 524 53 q 444 2 490 17 q 317 -12 399 -12 q 119 39 174 -12 q 72 189 72 85 q 139 357 72 313 q 336 397 199 397 l 515 397 m 515 332 l 342 332 q 190 296 233 332 q 153 189 153 263 q 199 83 153 111 q 333 58 239 58 q 494 108 456 58 q 515 208 515 136 l 515 332 m 503 810 l 442 810 l 324 1000 l 421 1000 l 503 810 m 333 810 l 272 810 l 154 1000 l 251 1000 l 333 810 z "},"Ȃ":{"ha":824,"x_min":8,"x_max":817,"o":"m 643 226 l 182 226 l 103 0 l 8 0 l 372 992 l 453 992 l 817 0 l 722 0 l 643 226 m 619 299 l 413 876 l 206 299 l 619 299 m 590 1110 l 529 1110 q 497 1198 522 1172 q 413 1224 471 1224 q 328 1198 354 1224 q 294 1110 301 1172 l 235 1110 q 285 1256 240 1218 q 413 1289 324 1289 q 551 1244 513 1289 q 590 1110 585 1206 z "},"ȃ":{"ha":724,"x_min":72,"x_max":597,"o":"m 515 397 l 515 457 q 488 579 515 542 q 349 633 447 633 q 172 563 239 633 l 115 608 q 356 703 197 703 q 567 610 508 703 q 591 545 585 581 q 597 446 597 510 l 597 0 l 531 0 l 524 53 q 444 2 490 17 q 317 -12 399 -12 q 119 39 174 -12 q 72 189 72 85 q 139 357 72 313 q 336 397 199 397 l 515 397 m 515 332 l 342 332 q 190 296 233 332 q 153 189 153 263 q 199 83 153 111 q 333 58 239 58 q 494 108 456 58 q 515 208 515 136 l 515 332 m 540 817 l 479 817 q 447 905 474 879 q 363 931 421 931 q 278 905 304 931 q 244 817 251 879 l 183 817 q 233 963 190 925 q 363 996 272 996 q 522 917 486 996 q 540 817 536 886 z "},"Ȅ":{"ha":803,"x_min":154,"x_max":719,"o":"m 154 0 l 154 992 l 719 992 l 719 918 l 240 918 l 240 539 l 650 539 l 650 465 l 240 465 l 240 74 l 719 74 l 719 0 l 154 0 m 563 1103 l 501 1103 l 383 1293 l 481 1293 l 563 1103 m 393 1103 l 332 1103 l 214 1293 l 311 1293 l 393 1103 z "},"ȅ":{"ha":751,"x_min":107,"x_max":656,"o":"m 190 335 l 190 299 q 253 111 190 174 q 403 58 306 58 q 568 125 511 58 l 631 85 q 397 -12 556 -12 q 107 313 107 -12 l 107 375 q 379 703 107 703 q 597 613 531 703 q 656 375 656 532 l 656 335 l 190 335 m 190 399 l 575 399 l 575 408 q 533 565 575 507 q 382 633 486 633 q 233 567 282 633 q 190 407 190 510 l 190 399 m 518 810 l 457 810 l 339 1000 l 438 1000 l 518 810 m 349 810 l 288 810 l 169 1000 l 267 1000 l 349 810 z "},"Ȇ":{"ha":803,"x_min":154,"x_max":719,"o":"m 154 0 l 154 992 l 719 992 l 719 918 l 240 918 l 240 539 l 650 539 l 650 465 l 240 465 l 240 74 l 719 74 l 719 0 l 154 0 m 622 1110 l 561 1110 q 529 1198 556 1172 q 444 1224 503 1224 q 360 1198 386 1224 q 326 1110 333 1172 l 265 1110 q 317 1256 272 1218 q 444 1289 356 1289 q 604 1210 568 1289 q 622 1110 618 1179 z "},"ȇ":{"ha":751,"x_min":107,"x_max":656,"o":"m 190 335 l 190 299 q 253 111 190 174 q 403 58 306 58 q 568 125 511 58 l 631 85 q 397 -12 556 -12 q 107 313 107 -12 l 107 375 q 379 703 107 703 q 597 613 531 703 q 656 375 656 532 l 656 335 l 190 335 m 190 399 l 575 399 l 575 408 q 533 565 575 507 q 382 633 486 633 q 233 567 282 633 q 190 407 190 510 l 190 399 m 561 817 l 500 817 q 467 906 493 881 q 383 931 442 931 q 299 906 325 931 q 265 817 272 881 l 206 817 q 256 963 211 925 q 383 996 294 996 q 522 951 485 996 q 561 817 556 913 z "},"Ȉ":{"ha":394,"x_min":-28,"x_max":321,"o":"m 156 0 l 156 992 l 242 992 l 242 0 l 156 0 m 321 1103 l 260 1103 l 142 1293 l 240 1293 l 321 1103 m 151 1103 l 90 1103 l -28 1293 l 71 1293 l 151 1103 z "},"ȉ":{"ha":343,"x_min":-54,"x_max":294,"o":"m 131 0 l 131 690 l 214 690 l 214 0 l 131 0 m 294 810 l 233 810 l 115 1000 l 214 1000 l 294 810 m 125 810 l 64 810 l -54 1000 l 44 1000 l 125 810 z "},"Ȋ":{"ha":394,"x_min":19,"x_max":375,"o":"m 154 0 l 154 992 l 240 992 l 240 0 l 154 0 m 375 1110 l 315 1110 q 282 1198 308 1172 q 197 1224 256 1224 q 113 1198 139 1224 q 81 1110 86 1172 l 19 1110 q 69 1256 25 1218 q 197 1289 108 1289 q 358 1210 322 1289 q 375 1110 372 1179 z "},"ȋ":{"ha":343,"x_min":-7,"x_max":349,"o":"m 129 0 l 129 690 l 213 690 l 213 0 l 129 0 m 349 817 l 289 817 q 256 905 282 879 q 171 931 229 931 q 86 905 113 931 q 54 817 60 879 l -7 817 q 43 963 -1 925 q 171 996 82 996 q 332 917 296 996 q 349 817 346 886 z "},"Ȍ":{"ha":942,"x_min":131,"x_max":813,"o":"m 131 372 l 131 619 q 149 787 131 722 q 211 901 168 851 q 471 1004 303 1004 q 744 883 653 1004 q 797 776 781 838 q 813 619 813 714 l 813 372 q 794 204 813 269 q 731 90 775 139 q 471 -12 639 -12 q 197 107 289 -12 q 146 216 161 154 q 131 372 131 278 m 217 382 q 231 240 217 292 q 278 144 244 188 q 471 61 343 61 q 675 158 610 61 q 715 250 703 200 q 726 382 726 300 l 726 610 q 713 751 726 697 q 665 847 699 804 q 471 931 599 931 q 267 833 333 931 q 228 742 239 792 q 217 610 217 692 l 217 382 m 594 1103 l 533 1103 l 415 1293 l 513 1293 l 594 1103 m 425 1103 l 364 1103 l 246 1293 l 343 1293 l 425 1103 z "},"ȍ":{"ha":772,"x_min":107,"x_max":665,"o":"m 107 292 l 107 399 q 386 703 107 703 q 665 399 665 703 l 665 292 q 586 53 665 128 q 385 -12 517 -12 q 107 292 107 -12 m 190 294 q 246 107 193 163 q 386 58 293 58 q 582 294 582 58 l 582 394 q 386 633 582 633 q 190 394 190 633 l 190 294 m 508 810 l 447 810 l 329 1000 l 428 1000 l 508 810 m 339 810 l 278 810 l 160 1000 l 258 1000 l 339 810 z "},"Ȏ":{"ha":942,"x_min":131,"x_max":813,"o":"m 131 372 l 131 619 q 149 787 131 722 q 211 901 168 851 q 471 1004 303 1004 q 744 883 653 1004 q 797 776 781 838 q 813 619 813 714 l 813 372 q 794 204 813 269 q 731 90 775 139 q 471 -12 639 -12 q 197 107 289 -12 q 146 216 161 154 q 131 372 131 278 m 217 382 q 231 240 217 292 q 278 144 244 188 q 471 61 343 61 q 675 158 610 61 q 715 250 703 200 q 726 382 726 300 l 726 610 q 713 751 726 697 q 665 847 699 804 q 471 931 599 931 q 267 833 333 931 q 228 742 239 792 q 217 610 217 692 l 217 382 m 650 1110 l 589 1110 q 556 1198 582 1172 q 472 1224 529 1224 q 386 1198 413 1224 q 354 1110 360 1172 l 293 1110 q 317 1221 297 1188 q 471 1289 356 1289 q 632 1210 596 1289 q 650 1110 646 1179 z "},"ȏ":{"ha":772,"x_min":107,"x_max":665,"o":"m 107 292 l 107 399 q 386 703 107 703 q 665 399 665 703 l 665 292 q 586 53 665 128 q 385 -12 517 -12 q 107 292 107 -12 m 190 294 q 246 107 193 163 q 386 58 293 58 q 582 294 582 58 l 582 394 q 386 633 582 633 q 190 394 190 633 l 190 294 m 564 817 l 504 817 q 471 906 497 881 q 388 931 444 931 q 301 905 328 931 q 268 817 275 879 l 208 817 q 258 963 214 925 q 386 996 297 996 q 547 917 511 996 q 564 817 560 886 z "},"Ȑ":{"ha":899,"x_min":156,"x_max":793,"o":"m 242 440 l 242 0 l 156 0 l 156 992 l 485 992 q 624 975 569 992 q 715 919 678 958 q 786 719 786 849 q 574 450 786 479 l 793 0 l 697 0 l 489 440 l 242 440 m 240 513 l 493 513 q 699 715 699 513 q 478 919 699 919 l 240 919 l 240 513 m 538 1103 l 476 1103 l 358 1293 l 457 1293 l 538 1103 m 368 1103 l 307 1103 l 189 1293 l 288 1293 l 368 1103 z "},"ȑ":{"ha":511,"x_min":68,"x_max":507,"o":"m 131 0 l 131 690 l 197 690 l 206 601 q 382 703 258 703 q 507 671 446 703 l 472 599 q 374 629 422 629 q 247 550 285 629 q 214 339 214 482 l 214 0 l 131 0 m 417 810 l 356 810 l 238 1000 l 336 1000 l 417 810 m 247 810 l 186 810 l 68 1000 l 167 1000 l 247 810 z "},"Ȓ":{"ha":899,"x_min":156,"x_max":793,"o":"m 242 440 l 242 0 l 156 0 l 156 992 l 485 992 q 624 975 569 992 q 715 919 678 958 q 786 719 786 849 q 574 450 786 479 l 793 0 l 697 0 l 489 440 l 242 440 m 240 513 l 493 513 q 699 715 699 513 q 478 919 699 919 l 240 919 l 240 513 m 585 1110 l 525 1110 q 492 1198 518 1172 q 407 1224 465 1224 q 322 1198 349 1224 q 289 1110 296 1172 l 229 1110 q 279 1256 235 1218 q 407 1289 318 1289 q 568 1210 532 1289 q 585 1110 581 1179 z "},"ȓ":{"ha":511,"x_min":107,"x_max":507,"o":"m 132 0 l 132 690 l 199 690 l 206 601 q 382 703 258 703 q 507 671 447 703 l 472 599 q 374 629 422 629 q 247 551 285 629 q 214 339 214 482 l 214 0 l 132 0 m 463 817 l 403 817 q 369 905 396 879 q 285 931 343 931 q 200 905 226 931 q 168 817 174 879 l 107 817 q 157 963 113 925 q 285 996 196 996 q 446 917 410 996 q 463 817 460 886 z "},"Ȕ":{"ha":961,"x_min":150,"x_max":811,"o":"m 150 992 l 236 992 l 236 363 q 245 236 236 281 q 278 157 254 192 q 475 63 340 63 q 609 88 557 63 q 693 172 661 114 q 725 363 725 229 l 725 992 l 811 992 l 811 363 q 799 203 811 258 q 751 104 786 149 q 481 -11 664 -11 q 197 121 282 -11 q 160 215 171 163 q 150 363 150 267 l 150 992 m 603 1103 l 542 1103 l 424 1293 l 522 1293 l 603 1103 m 433 1103 l 372 1103 l 254 1293 l 353 1293 l 433 1103 z "},"ȕ":{"ha":767,"x_min":125,"x_max":636,"o":"m 125 690 l 208 690 l 208 300 q 229 153 208 203 q 375 60 267 60 q 518 135 476 60 q 553 342 553 200 l 553 690 l 636 690 l 636 0 l 571 0 l 563 93 q 368 -12 508 -12 q 146 121 196 -12 q 125 293 125 178 l 125 690 m 507 810 l 446 810 l 328 1000 l 426 1000 l 507 810 m 338 810 l 276 810 l 158 1000 l 256 1000 l 338 810 z "},"Ȗ":{"ha":961,"x_min":150,"x_max":811,"o":"m 150 992 l 236 992 l 236 363 q 245 236 236 281 q 278 157 254 192 q 475 63 340 63 q 609 88 557 63 q 693 172 661 114 q 725 363 725 229 l 725 992 l 811 992 l 811 363 q 799 203 811 258 q 751 104 786 149 q 481 -11 664 -11 q 197 121 282 -11 q 160 215 171 163 q 150 363 150 267 l 150 992 m 658 1110 l 599 1110 q 565 1198 592 1172 q 481 1224 539 1224 q 396 1198 422 1224 q 363 1110 369 1172 l 303 1110 q 353 1256 308 1218 q 481 1289 392 1289 q 642 1210 606 1289 q 658 1110 654 1179 z "},"ȗ":{"ha":767,"x_min":125,"x_max":636,"o":"m 125 690 l 208 690 l 208 300 q 229 153 208 203 q 375 60 267 60 q 518 135 476 60 q 553 342 553 200 l 553 690 l 636 690 l 636 0 l 571 0 l 563 93 q 368 -12 508 -12 q 146 121 196 -12 q 125 293 125 178 l 125 690 m 563 817 l 501 817 q 469 905 494 879 q 385 931 443 931 q 299 905 325 931 q 267 817 272 879 l 206 817 q 256 963 211 925 q 383 996 294 996 q 544 917 508 996 q 563 817 558 886 z "},"Ș":{"ha":807,"x_min":78,"x_max":733,"o":"m 78 125 l 146 169 q 400 63 214 63 q 592 121 526 63 q 649 258 649 172 q 583 399 649 351 q 526 429 551 421 q 393 465 501 438 q 167 575 232 504 q 108 740 108 638 q 197 942 108 872 q 404 1003 275 1003 q 679 890 601 1003 l 611 846 q 403 931 553 931 q 242 875 297 931 q 193 746 193 826 q 256 610 193 658 q 435 538 310 568 q 571 500 538 513 q 642 463 604 488 q 733 264 733 399 q 635 51 733 124 q 399 -11 549 -11 q 78 125 165 -11 m 304 -299 l 378 -100 l 471 -100 l 364 -299 l 304 -299 z "},"ș":{"ha":647,"x_min":44,"x_max":576,"o":"m 44 83 l 104 126 q 188 74 142 89 q 303 58 233 58 q 494 188 494 58 q 443 285 494 257 q 308 318 407 304 q 199 341 235 329 q 138 375 163 353 q 83 506 83 422 q 149 658 83 607 q 303 703 206 703 q 544 603 465 703 l 481 563 q 408 617 447 600 q 310 633 368 633 q 197 597 235 633 q 165 510 165 565 q 213 419 165 447 q 331 389 243 401 q 449 366 408 378 q 515 333 489 354 q 576 185 576 289 q 306 -12 576 -12 q 44 83 121 -12 m 207 -299 l 282 -100 l 374 -100 l 267 -299 l 207 -299 z "},"Ț":{"ha":769,"x_min":50,"x_max":719,"o":"m 343 0 l 343 918 l 50 918 l 50 992 l 719 992 l 719 918 l 429 918 l 429 0 l 343 0 m 274 -299 l 347 -100 l 439 -100 l 333 -299 l 274 -299 z "},"ț":{"ha":457,"x_min":69,"x_max":381,"o":"m 156 621 l 69 621 l 69 690 l 156 690 l 158 919 l 239 919 l 239 690 l 374 690 l 374 621 l 239 621 l 239 194 q 263 97 239 124 q 354 71 288 71 l 381 71 l 381 0 l 354 0 q 190 47 229 0 q 156 201 156 89 l 156 621 m 149 -299 l 224 -100 l 315 -100 l 208 -299 l 149 -299 z "},"Ȧ":{"ha":824,"x_min":8,"x_max":817,"o":"m 643 226 l 182 226 l 103 0 l 8 0 l 372 992 l 453 992 l 817 0 l 722 0 l 643 226 m 619 299 l 413 876 l 206 299 l 619 299 m 371 1114 l 371 1247 l 451 1247 l 451 1114 l 371 1114 z "},"ȧ":{"ha":724,"x_min":72,"x_max":597,"o":"m 515 397 l 515 457 q 488 579 515 542 q 349 633 447 633 q 172 563 239 633 l 115 608 q 356 703 197 703 q 567 610 508 703 q 591 545 585 581 q 597 446 597 510 l 597 0 l 531 0 l 524 53 q 444 2 490 17 q 317 -12 399 -12 q 119 39 174 -12 q 72 189 72 85 q 139 357 72 313 q 336 397 199 397 l 515 397 m 515 332 l 342 332 q 190 296 233 332 q 153 189 153 263 q 199 83 153 111 q 333 58 239 58 q 494 108 456 58 q 515 208 515 136 l 515 332 m 331 822 l 331 954 l 413 954 l 413 822 l 331 822 z "},"ȷ":{"ha":351,"x_min":-39,"x_max":219,"o":"m 136 690 l 219 690 l 219 -32 q 206 -181 219 -131 q 158 -264 193 -231 q 85 -306 126 -294 q -39 -319 44 -318 l -39 -247 q 54 -236 25 -247 q 106 -193 83 -225 q 130 -135 124 -167 q 136 -40 136 -104 l 136 690 z "},"ʼ":{"ha":242,"x_min":50,"x_max":192,"o":"m 50 674 l 103 992 l 192 992 l 118 674 l 50 674 z "},"ˀ":{"ha":694,"x_min":246,"x_max":443,"o":"m 385 1086 l 321 1086 q 324 1135 321 1121 q 344 1172 328 1149 q 371 1232 371 1213 q 325 1267 371 1267 q 263 1251 299 1267 l 246 1303 q 336 1321 293 1321 q 443 1235 443 1321 q 410 1157 443 1203 q 389 1125 392 1135 q 385 1086 386 1115 z "},"ˉ":{"ha":694,"x_min":182,"x_max":513,"o":"m 182 869 l 182 931 l 513 931 l 513 869 l 182 869 z "},"̉":{"ha":694,"x_min":246,"x_max":443,"o":"m 385 799 l 321 799 q 324 848 321 835 q 344 886 328 861 q 371 944 371 926 q 325 981 371 981 q 263 965 299 981 l 246 1015 q 336 1033 292 1033 q 443 949 443 1033 q 410 871 443 915 q 389 838 392 847 q 385 799 386 828 z "},"̒":{"ha":694,"x_min":257,"x_max":465,"o":"m 257 810 l 401 1000 l 465 1000 l 364 810 l 257 810 z "},"̓":{"ha":83,"x_min":-8,"x_max":114,"o":"m -8 706 l 24 999 l 114 999 l 50 706 l -8 706 z "},"̛":{"ha":83,"x_min":-8,"x_max":114,"o":"m -8 706 l 24 999 l 114 999 l 50 706 l -8 706 z "},"̣":{"ha":694,"x_min":306,"x_max":388,"o":"m 306 -261 l 306 -128 l 388 -128 l 388 -261 l 306 -261 z "},";":{"ha":386,"x_min":89,"x_max":250,"o":"m 89 -261 l 154 121 l 250 121 l 160 -261 l 89 -261 m 157 571 l 157 692 l 243 692 l 243 571 l 157 571 z "},"·":{"ha":383,"x_min":150,"x_max":236,"o":"m 150 449 l 150 569 l 236 569 l 236 449 l 150 449 z "},"Ӕ":{"ha":1314,"x_min":-46,"x_max":1232,"o":"m 667 235 l 207 235 l 54 0 l -46 0 l 611 992 l 1232 992 l 1232 918 l 753 918 l 753 539 l 1163 539 l 1163 465 l 753 465 l 753 74 l 1232 74 l 1232 0 l 667 0 l 667 235 m 667 307 l 667 918 l 650 918 l 250 307 l 667 307 z "},"ӕ":{"ha":1161,"x_min":72,"x_max":1064,"o":"m 568 582 q 793 703 626 703 q 1006 611 940 703 q 1064 375 1064 531 l 1064 335 l 600 335 l 600 299 q 661 111 600 174 q 811 58 715 58 q 978 125 921 58 l 1040 85 q 807 -12 964 -12 q 656 19 714 -12 q 561 119 597 51 q 481 19 539 50 q 315 -12 422 -12 q 119 39 172 -12 q 72 189 72 85 q 139 357 72 313 q 336 397 199 397 l 515 397 l 515 457 q 488 579 515 542 q 349 633 447 633 q 172 563 239 633 l 115 606 q 353 703 199 703 q 568 582 521 703 m 515 332 l 342 332 q 190 296 233 332 q 153 189 153 263 q 199 83 153 111 q 331 58 238 58 q 430 71 394 58 q 486 115 465 83 q 509 167 503 139 q 515 250 515 194 l 515 332 m 600 399 l 983 399 l 983 408 q 943 565 983 507 q 792 633 896 633 q 643 567 692 633 q 600 407 600 510 l 600 399 z "},"،":{"ha":297,"x_min":67,"x_max":229,"o":"m 67 0 l 157 383 l 229 383 l 164 0 l 67 0 z "},"ؕ":{"ha":0,"x_min":-150,"x_max":156,"o":"m -51 1047 l -51 947 q 44 993 -15 993 q 139 947 111 993 q 156 886 156 921 q 53 789 156 789 l -150 789 l -150 840 l -107 840 l -108 1047 l -51 1047 m 47 946 q -15 917 13 946 q -53 840 -43 888 l 61 840 q 88 853 76 840 q 99 888 99 867 q 85 930 99 914 q 47 946 71 946 z "},"؛":{"ha":350,"x_min":119,"x_max":282,"o":"m 119 569 l 210 953 l 282 953 l 217 569 l 119 569 m 126 0 l 126 122 l 215 122 l 215 0 l 126 0 z "},"؟":{"ha":764,"x_min":90,"x_max":685,"o":"m 375 1008 q 685 742 632 1008 l 603 726 q 378 933 558 933 q 228 876 285 933 q 179 754 179 826 q 201 662 179 699 q 299 558 224 625 q 314 544 308 550 q 411 433 386 482 q 436 308 436 385 l 436 261 l 364 261 l 364 303 q 339 399 364 358 q 243 499 314 439 q 125 619 156 572 q 90 750 90 676 q 179 946 90 875 q 375 1008 256 1008 m 357 122 l 443 122 l 443 0 l 357 0 l 357 122 z "},"ء":{"ha":758,"x_min":79,"x_max":681,"o":"m 79 -56 l 79 8 q 258 63 142 49 q 150 308 150 144 q 229 535 150 450 q 421 614 303 614 q 649 494 560 614 l 585 461 q 419 547 519 547 q 279 476 336 547 q 226 317 226 411 q 317 107 226 169 q 457 67 375 67 l 681 67 l 681 0 l 390 0 q 268 -6 311 0 q 89 -57 167 -17 q 82 -60 83 -60 q 79 -56 79 -60 z "},"آ":{"ha":339,"x_min":22,"x_max":306,"o":"m 106 1167 q 163 1149 129 1167 q 171 1144 165 1147 q 222 1125 206 1125 q 264 1160 242 1125 l 306 1133 q 222 1072 271 1072 q 150 1100 197 1072 q 108 1115 125 1115 q 65 1079 85 1115 l 22 1106 q 106 1167 60 1167 m 211 0 l 128 0 l 128 914 l 211 914 l 211 0 z "},"أ":{"ha":339,"x_min":60,"x_max":275,"o":"m 275 1074 l 60 1074 l 60 1126 l 103 1126 q 83 1182 83 1149 q 111 1251 83 1224 q 182 1278 139 1278 q 233 1264 207 1278 q 267 1231 258 1250 l 224 1204 l 222 1206 q 179 1231 206 1231 q 140 1182 140 1231 q 158 1142 140 1158 q 201 1126 175 1126 l 275 1126 l 275 1074 m 211 914 l 211 0 l 128 0 l 128 914 l 211 914 z "},"ؤ":{"ha":778,"x_min":111,"x_max":650,"o":"m 483 839 l 268 839 l 268 892 l 311 892 q 292 947 292 914 q 319 1016 292 989 q 390 1043 347 1043 q 441 1029 415 1043 q 475 996 467 1015 l 432 969 l 431 971 q 388 996 414 996 q 349 947 349 996 q 366 908 349 924 q 410 892 383 892 l 483 892 l 483 839 m 382 682 q 593 600 528 682 q 650 385 650 528 l 650 -37 q 568 -293 650 -214 q 361 -361 497 -361 q 146 -308 242 -361 l 175 -242 q 353 -287 258 -287 q 567 -54 567 -287 l 567 35 q 376 -12 483 -12 q 111 285 111 -12 l 111 385 q 188 619 111 547 q 382 682 254 682 m 381 610 q 233 549 278 610 q 194 390 194 496 l 194 278 q 244 106 194 158 q 381 58 290 58 q 567 117 492 58 l 567 390 q 518 563 567 511 q 381 610 472 610 z "},"إ":{"ha":339,"x_min":61,"x_max":276,"o":"m 211 992 l 211 0 l 128 0 l 128 992 l 211 992 m 276 -365 l 61 -365 l 61 -314 l 104 -314 q 85 -258 85 -290 q 113 -188 85 -215 q 183 -161 140 -161 q 235 -176 210 -161 q 268 -210 260 -190 l 225 -235 q 181 -210 208 -210 q 142 -258 142 -210 q 158 -297 142 -282 q 203 -314 175 -312 l 276 -314 l 276 -365 z "},"ئ":{"ha":1015,"x_min":75,"x_max":935,"o":"m 290 478 l 75 478 l 75 531 l 118 531 q 99 586 99 553 q 126 655 99 628 q 197 682 154 682 q 248 668 222 682 q 282 635 274 654 l 239 608 l 238 610 q 194 635 221 635 q 156 586 156 635 q 173 547 156 563 q 217 531 190 531 l 290 531 l 290 478 m 694 682 q 832 643 764 682 q 922 560 892 610 l 856 524 q 782 586 826 563 q 692 610 738 610 q 539 536 600 610 q 481 354 482 465 q 585 117 482 189 q 739 71 650 71 l 861 71 q 935 3 935 71 q 893 -153 935 -74 q 758 -297 846 -243 q 514 -361 656 -361 q 194 -233 311 -361 q 90 63 90 -118 q 156 318 90 206 l 218 276 q 169 72 169 178 q 279 -207 169 -110 q 515 -287 371 -287 q 786 -167 689 -287 q 831 -90 814 -132 q 849 -17 849 -49 q 832 0 849 0 l 700 0 q 478 107 567 0 q 397 342 397 203 q 486 599 397 506 q 694 682 565 682 z "},"ا":{"ha":339,"x_min":128,"x_max":211,"o":"m 211 992 l 211 0 l 128 0 l 128 992 l 211 992 z "},"ب":{"ha":1219,"x_min":90,"x_max":1090,"o":"m 1090 667 l 1090 281 q 1015 64 1090 138 q 838 0 950 0 l 386 0 q 156 104 239 0 q 90 294 90 185 q 196 589 90 469 l 256 546 q 168 300 168 444 q 233 133 168 199 q 399 71 296 71 l 838 71 q 968 133 924 71 q 1007 275 1007 186 l 1007 667 l 1090 667 m 636 -294 l 553 -294 l 553 -161 l 636 -161 l 636 -294 z "},"ة":{"ha":763,"x_min":111,"x_max":651,"o":"m 329 839 l 254 839 l 254 971 l 329 971 l 329 839 m 510 839 l 435 839 l 435 971 l 510 971 l 510 839 m 382 682 q 593 600 528 682 q 651 385 651 528 l 651 285 q 575 50 651 121 q 382 -12 510 -12 q 169 69 235 -12 q 111 285 111 142 l 111 385 q 188 619 111 547 q 382 682 254 682 m 381 610 q 233 549 278 610 q 194 390 194 496 l 194 278 q 244 106 194 158 q 381 58 290 58 q 529 121 485 58 q 567 278 567 174 l 567 390 q 517 563 567 511 q 381 610 472 610 z "},"ت":{"ha":1219,"x_min":90,"x_max":1090,"o":"m 563 750 l 488 750 l 488 882 l 563 882 l 563 750 m 743 750 l 668 750 l 668 882 l 743 882 l 743 750 m 1090 667 l 1090 281 q 1015 64 1090 138 q 838 0 950 0 l 386 0 q 156 104 239 0 q 90 294 90 185 q 196 589 90 469 l 256 546 q 168 300 168 444 q 233 133 168 199 q 399 71 296 71 l 838 71 q 968 133 924 71 q 1007 275 1007 186 l 1007 667 l 1090 667 z "},"ث":{"ha":1219,"x_min":90,"x_max":1090,"o":"m 650 946 l 579 946 l 579 1061 l 650 1061 l 650 946 m 563 750 l 488 750 l 488 882 l 563 882 l 563 750 m 743 750 l 668 750 l 668 882 l 743 882 l 743 750 m 1090 667 l 1090 281 q 1015 64 1090 138 q 838 0 950 0 l 386 0 q 156 104 239 0 q 90 294 90 185 q 196 589 90 469 l 256 546 q 168 300 168 444 q 233 133 168 199 q 399 71 296 71 l 838 71 q 968 133 924 71 q 1007 275 1007 186 l 1007 667 l 1090 667 z "},"ج":{"ha":954,"x_min":81,"x_max":875,"o":"m 335 -21 q 206 -112 251 -46 q 165 -243 165 -171 q 249 -425 165 -356 q 393 -489 310 -478 q 456 -493 422 -493 q 714 -425 586 -493 l 744 -489 q 453 -567 613 -567 q 403 -565 417 -567 q 172 -468 263 -553 q 81 -249 81 -382 q 133 -71 81 -146 q 281 40 185 3 q 476 71 354 67 l 708 71 q 657 197 672 111 q 640 325 653 221 q 594 506 625 449 q 406 610 542 610 q 222 510 303 610 l 157 550 q 265 647 199 611 q 407 682 332 682 q 671 542 596 682 q 707 452 697 494 q 728 293 717 410 q 764 140 739 193 q 806 85 782 100 q 872 71 829 71 l 875 71 l 875 0 l 501 0 q 335 -21 401 0 m 543 -294 l 460 -294 l 460 -161 l 543 -161 l 543 -294 z "},"ح":{"ha":954,"x_min":81,"x_max":875,"o":"m 335 -21 q 206 -112 251 -46 q 165 -243 165 -171 q 249 -425 165 -356 q 393 -489 310 -478 q 456 -493 422 -493 q 714 -425 586 -493 l 744 -489 q 453 -567 613 -567 q 403 -565 417 -567 q 172 -468 263 -553 q 81 -249 81 -382 q 133 -71 81 -146 q 281 40 185 3 q 476 71 354 67 l 708 71 q 657 197 672 111 q 640 325 653 221 q 594 506 625 449 q 406 610 542 610 q 222 510 303 610 l 157 550 q 265 647 199 611 q 407 682 332 682 q 671 542 596 682 q 707 452 697 494 q 728 293 717 410 q 764 140 739 193 q 806 85 782 100 q 872 71 829 71 l 875 71 l 875 0 l 501 0 q 335 -21 401 0 z "},"خ":{"ha":954,"x_min":81,"x_max":875,"o":"m 458 839 l 375 839 l 375 971 l 458 971 l 458 839 m 335 -21 q 206 -112 251 -46 q 165 -243 165 -171 q 249 -425 165 -356 q 393 -489 310 -478 q 456 -493 422 -493 q 714 -425 586 -493 l 744 -489 q 453 -567 613 -567 q 403 -565 417 -567 q 172 -468 263 -553 q 81 -249 81 -382 q 133 -71 81 -146 q 281 40 185 3 q 476 71 354 67 l 708 71 q 657 197 672 111 q 640 325 653 221 q 594 506 625 449 q 406 610 542 610 q 222 510 303 610 l 157 550 q 265 647 199 611 q 407 682 332 682 q 671 542 596 682 q 707 452 697 494 q 728 293 717 410 q 764 140 739 193 q 806 85 782 100 q 872 71 829 71 l 875 71 l 875 0 l 501 0 q 335 -21 401 0 z "},"د":{"ha":704,"x_min":81,"x_max":614,"o":"m 249 615 l 283 682 q 614 289 614 621 q 346 0 614 0 l 81 0 l 81 71 l 346 71 q 531 286 531 71 q 438 531 531 446 q 249 615 371 590 z "},"ذ":{"ha":704,"x_min":81,"x_max":614,"o":"m 332 839 l 249 839 l 249 971 l 332 971 l 332 839 m 249 615 l 283 682 q 614 289 614 621 q 346 0 614 0 l 81 0 l 81 71 l 346 71 q 531 286 531 71 q 438 531 531 446 q 249 615 371 590 z "},"ر":{"ha":468,"x_min":-51,"x_max":340,"o":"m 340 667 l 340 24 q 331 -153 340 -92 q 294 -260 321 -215 q 94 -361 239 -361 q -51 -331 10 -361 l -24 -264 q 85 -287 24 -287 q 220 -223 183 -287 q 257 13 257 -158 l 257 667 l 340 667 z "},"ز":{"ha":468,"x_min":-51,"x_max":340,"o":"m 340 839 l 257 839 l 257 971 l 340 971 l 340 839 m 340 667 l 340 24 q 331 -153 340 -92 q 294 -260 321 -215 q 94 -361 239 -361 q -51 -331 10 -361 l -24 -264 q 85 -287 24 -287 q 220 -223 183 -287 q 257 13 257 -158 l 257 667 l 340 667 z "},"س":{"ha":1861,"x_min":92,"x_max":1733,"o":"m 1733 665 l 1733 265 q 1658 50 1733 124 q 1481 -12 1593 -12 q 1271 101 1329 -12 q 1064 -12 1215 -12 q 892 63 947 -12 l 892 47 q 769 -271 888 -165 q 496 -361 668 -361 q 300 -314 390 -361 q 151 -175 206 -265 q 92 54 92 -76 q 121 235 92 146 q 201 388 150 325 l 263 346 q 194 213 219 289 q 169 61 169 138 q 285 -212 169 -117 q 497 -287 374 -287 q 732 -192 650 -287 q 808 53 808 -104 l 808 667 l 892 667 l 892 260 q 942 106 892 160 q 1061 58 986 58 q 1192 119 1147 58 q 1229 260 1229 172 l 1229 667 l 1313 667 l 1313 260 q 1361 106 1313 158 q 1481 58 1406 58 q 1611 119 1567 58 q 1650 260 1650 172 l 1650 665 l 1733 665 z "},"ش":{"ha":1861,"x_min":92,"x_max":1733,"o":"m 1306 1035 l 1235 1035 l 1235 1150 l 1306 1150 l 1306 1035 m 1218 839 l 1143 839 l 1143 971 l 1218 971 l 1218 839 m 1399 839 l 1324 839 l 1324 971 l 1399 971 l 1399 839 m 1733 665 l 1733 265 q 1658 50 1733 124 q 1481 -12 1593 -12 q 1271 101 1329 -12 q 1064 -12 1215 -12 q 892 63 947 -12 l 892 47 q 769 -271 888 -165 q 496 -361 668 -361 q 300 -314 390 -361 q 151 -175 206 -265 q 92 54 92 -76 q 121 235 92 146 q 201 388 150 325 l 263 346 q 194 213 219 289 q 169 61 169 138 q 285 -212 169 -117 q 497 -287 374 -287 q 732 -192 650 -287 q 808 53 808 -104 l 808 667 l 892 667 l 892 260 q 942 106 892 160 q 1061 58 986 58 q 1192 119 1147 58 q 1229 260 1229 172 l 1229 667 l 1313 667 l 1313 260 q 1361 106 1313 158 q 1481 58 1406 58 q 1611 119 1567 58 q 1650 260 1650 172 l 1650 665 l 1733 665 z "},"ص":{"ha":1779,"x_min":92,"x_max":1688,"o":"m 892 667 l 892 364 q 1088 614 957 529 q 1325 682 1194 682 q 1614 544 1517 682 q 1688 282 1688 439 q 1611 61 1688 135 q 1435 0 1546 0 l 889 0 q 757 -281 872 -187 q 496 -361 657 -361 q 300 -314 390 -361 q 151 -175 206 -265 q 92 54 92 -76 q 121 235 92 146 q 201 388 150 325 l 263 346 q 194 213 219 289 q 169 61 169 138 q 285 -212 169 -117 q 497 -287 374 -287 q 732 -192 650 -287 q 808 53 808 -104 l 808 667 l 892 667 m 1319 610 q 1006 414 1129 610 q 892 71 911 265 l 1435 71 q 1565 133 1521 71 q 1604 275 1604 186 q 1522 525 1604 435 q 1319 610 1447 610 z "},"ض":{"ha":1779,"x_min":92,"x_max":1688,"o":"m 1350 839 l 1267 839 l 1267 971 l 1350 971 l 1350 839 m 892 667 l 892 364 q 1088 614 957 529 q 1325 682 1194 682 q 1614 544 1517 682 q 1688 282 1688 439 q 1611 61 1688 135 q 1435 0 1546 0 l 889 0 q 757 -281 872 -187 q 496 -361 657 -361 q 300 -314 390 -361 q 151 -175 206 -265 q 92 54 92 -76 q 121 235 92 146 q 201 388 150 325 l 263 346 q 194 213 219 289 q 169 61 169 138 q 285 -212 169 -117 q 497 -287 374 -287 q 732 -192 650 -287 q 808 53 808 -104 l 808 667 l 892 667 m 1319 610 q 1006 414 1129 610 q 892 71 911 265 l 1435 71 q 1565 133 1521 71 q 1604 275 1604 186 q 1522 525 1604 435 q 1319 610 1447 610 z "},"ط":{"ha":1249,"x_min":81,"x_max":1158,"o":"m 363 992 l 363 364 q 558 614 428 529 q 796 682 665 682 q 1085 544 988 682 q 1158 282 1158 439 q 1082 61 1158 135 q 906 0 1017 0 l 81 0 l 81 71 l 279 71 l 279 992 l 363 992 m 789 610 q 475 414 599 610 q 361 71 381 265 l 904 71 q 1035 133 990 71 q 1074 275 1074 186 q 992 525 1074 435 q 789 610 917 610 z "},"ظ":{"ha":1249,"x_min":81,"x_max":1158,"o":"m 363 992 l 363 364 q 558 614 428 529 q 796 682 665 682 q 1085 544 988 682 q 1158 282 1158 439 q 1082 61 1158 135 q 906 0 1017 0 l 81 0 l 81 71 l 279 71 l 279 992 l 363 992 m 824 839 l 740 839 l 740 971 l 824 971 l 824 839 m 789 610 q 475 414 599 610 q 361 71 381 265 l 904 71 q 1035 133 990 71 q 1074 275 1074 186 q 992 525 1074 435 q 789 610 917 610 z "},"ع":{"ha":813,"x_min":81,"x_max":744,"o":"m 213 354 q 317 117 214 188 q 478 71 383 71 l 728 71 l 728 0 l 501 0 q 335 -21 401 0 q 206 -112 251 -46 q 165 -243 165 -171 q 249 -425 165 -356 q 393 -489 310 -476 q 456 -493 421 -493 q 714 -425 586 -493 l 744 -489 q 453 -567 613 -567 q 403 -565 421 -567 q 172 -468 263 -553 q 81 -249 81 -382 q 156 -42 81 -126 q 289 40 211 21 q 168 168 211 79 q 129 342 129 246 q 226 599 129 503 q 446 682 313 682 q 607 640 535 682 q 699 556 667 607 l 631 519 q 442 610 563 610 q 278 535 346 610 q 213 354 213 464 z "},"غ":{"ha":813,"x_min":81,"x_max":744,"o":"m 482 839 l 399 839 l 399 971 l 482 971 l 482 839 m 213 354 q 317 117 214 188 q 478 71 383 71 l 728 71 l 728 0 l 501 0 q 335 -21 401 0 q 206 -112 251 -46 q 165 -243 165 -171 q 249 -425 165 -356 q 393 -489 310 -476 q 456 -493 421 -493 q 714 -425 586 -493 l 744 -489 q 453 -567 613 -567 q 403 -565 421 -567 q 172 -468 263 -553 q 81 -249 81 -382 q 156 -42 81 -126 q 289 40 211 21 q 168 168 211 79 q 129 342 129 246 q 226 599 129 503 q 446 682 313 682 q 607 640 535 682 q 699 556 667 607 l 631 519 q 442 610 563 610 q 278 535 346 610 q 213 354 213 464 z "},"ـ":{"ha":261,"x_min":0,"x_max":289,"o":"m 289 0 l 0 0 l 0 71 l 289 71 l 289 0 z "},"ف":{"ha":1386,"x_min":90,"x_max":1275,"o":"m 1046 839 l 963 839 l 963 971 l 1046 971 l 1046 839 m 1007 682 q 1217 600 1151 682 q 1275 385 1275 526 l 1275 297 q 1200 63 1275 135 q 1007 0 1135 0 l 386 0 q 156 104 239 0 q 90 294 90 185 q 196 589 90 469 l 256 546 q 168 300 168 444 q 233 133 168 199 q 399 71 296 71 l 818 71 q 735 297 735 135 l 735 385 q 811 619 735 547 q 1007 682 878 682 m 1006 610 q 858 549 903 610 q 819 390 819 496 l 819 290 q 869 118 819 171 q 1006 71 915 71 q 1154 133 1110 71 q 1192 290 1192 186 l 1192 390 q 1142 563 1192 511 q 1006 610 1097 610 z "},"ق":{"ha":1051,"x_min":90,"x_max":939,"o":"m 618 839 l 543 839 l 543 971 l 618 971 l 618 839 m 799 839 l 724 839 l 724 971 l 799 971 l 799 839 m 671 682 q 882 600 817 682 q 939 385 939 528 l 939 56 q 900 -129 939 -42 q 768 -292 856 -232 q 514 -361 665 -361 q 194 -233 313 -361 q 90 63 90 -118 q 156 318 90 206 l 218 276 q 169 72 169 178 q 279 -207 169 -110 q 515 -287 371 -287 q 786 -164 693 -287 q 853 33 853 -76 q 665 -12 775 -12 q 400 285 400 -12 l 400 385 q 476 619 400 547 q 671 682 543 682 m 671 610 q 524 549 568 610 q 485 390 485 496 l 485 278 q 535 106 485 158 q 671 58 581 58 q 857 117 782 58 l 857 390 q 808 563 857 511 q 671 610 763 610 z "},"ك":{"ha":1219,"x_min":90,"x_max":1090,"o":"m 1090 992 l 1090 281 q 1015 64 1090 138 q 838 0 950 0 l 386 0 q 156 104 239 0 q 90 294 90 185 q 196 589 90 469 l 256 546 q 168 300 168 444 q 233 133 168 199 q 399 71 296 71 l 838 71 q 968 133 924 71 q 1007 275 1007 186 l 1007 992 l 1090 992 m 622 660 l 640 660 q 721 633 692 660 q 750 560 750 607 q 721 486 750 513 q 640 460 692 460 l 526 460 l 526 511 l 642 511 q 678 524 664 511 q 693 557 693 538 q 679 594 693 581 q 642 607 665 607 l 558 607 l 558 622 q 583 683 558 653 l 622 732 l 682 732 l 622 660 z "},"ل":{"ha":1021,"x_min":92,"x_max":892,"o":"m 892 992 l 892 64 q 774 -265 892 -156 q 496 -361 672 -361 q 300 -314 390 -361 q 151 -175 206 -265 q 92 54 92 -76 q 121 235 92 146 q 201 388 150 325 l 263 346 q 194 213 219 289 q 169 61 169 138 q 285 -212 169 -117 q 497 -287 374 -287 q 732 -192 650 -287 q 808 53 808 -104 l 808 992 l 892 992 z "},"م":{"ha":917,"x_min":83,"x_max":806,"o":"m 538 682 q 747 600 682 682 q 806 385 806 526 l 806 240 q 731 7 806 78 q 538 -56 665 -56 q 292 96 343 -56 q 196 63 225 92 q 167 -26 167 35 l 167 -483 l 83 -483 l 83 -39 q 127 111 83 63 q 271 167 171 160 q 265 240 265 199 l 265 385 q 343 619 265 547 q 538 682 410 682 m 722 235 l 722 390 q 672 563 722 511 q 536 610 628 610 q 389 549 433 610 q 350 390 350 496 l 350 235 q 400 63 350 115 q 536 15 446 15 q 685 78 640 15 q 722 235 722 131 z "},"ن":{"ha":1021,"x_min":92,"x_max":892,"o":"m 540 715 l 457 715 l 457 847 l 540 847 l 540 715 m 892 667 l 892 64 q 774 -265 892 -156 q 496 -361 672 -361 q 300 -314 390 -361 q 151 -175 206 -265 q 92 54 92 -76 q 121 235 92 146 q 201 388 150 325 l 263 346 q 194 213 219 289 q 169 61 169 138 q 285 -212 169 -117 q 497 -287 374 -287 q 732 -192 650 -287 q 808 53 808 -104 l 808 667 l 892 667 z "},"ه":{"ha":763,"x_min":111,"x_max":651,"o":"m 382 682 q 593 600 528 682 q 651 385 651 528 l 651 285 q 575 50 651 121 q 382 -12 510 -12 q 169 69 235 -12 q 111 285 111 142 l 111 385 q 188 619 111 547 q 382 682 254 682 m 381 610 q 233 549 278 610 q 194 390 194 496 l 194 278 q 244 106 194 158 q 381 58 290 58 q 529 121 485 58 q 567 278 567 174 l 567 390 q 517 563 567 511 q 381 610 472 610 z "},"و":{"ha":778,"x_min":111,"x_max":650,"o":"m 382 682 q 593 600 528 682 q 650 385 650 528 l 650 -37 q 568 -293 650 -214 q 361 -361 497 -361 q 146 -308 242 -361 l 175 -242 q 353 -287 258 -287 q 567 -54 567 -287 l 567 35 q 376 -12 483 -12 q 111 285 111 -12 l 111 385 q 188 619 111 547 q 382 682 254 682 m 381 610 q 233 549 278 610 q 194 390 194 496 l 194 278 q 244 106 194 158 q 381 58 290 58 q 567 117 492 58 l 567 390 q 518 563 567 511 q 381 610 472 610 z "},"ى":{"ha":1015,"x_min":90,"x_max":935,"o":"m 694 682 q 832 643 764 682 q 922 560 892 610 l 856 524 q 782 586 826 563 q 692 610 738 610 q 539 536 600 610 q 481 354 482 465 q 585 117 482 189 q 739 71 650 71 l 861 71 q 935 3 935 71 q 893 -153 935 -74 q 758 -297 846 -243 q 514 -361 656 -361 q 194 -233 311 -361 q 90 63 90 -118 q 156 318 90 206 l 218 276 q 169 72 169 178 q 279 -207 169 -110 q 515 -287 371 -287 q 786 -167 689 -287 q 831 -90 814 -132 q 849 -17 849 -49 q 832 0 849 0 l 700 0 q 478 107 567 0 q 397 342 397 203 q 486 599 397 506 q 694 682 565 682 z "},"ي":{"ha":1015,"x_min":90,"x_max":935,"o":"m 694 682 q 832 643 764 682 q 922 560 892 610 l 856 524 q 782 586 826 563 q 692 610 738 610 q 539 536 600 610 q 481 354 482 465 q 585 117 482 189 q 739 71 650 71 l 861 71 q 935 3 935 71 q 893 -153 935 -74 q 758 -297 846 -243 q 514 -361 656 -361 q 194 -233 311 -361 q 90 63 90 -118 q 156 318 90 206 l 218 276 q 169 72 169 178 q 279 -207 169 -110 q 515 -287 371 -287 q 786 -167 689 -287 q 831 -90 814 -132 q 849 -17 849 -49 q 832 0 849 0 l 700 0 q 478 107 567 0 q 397 342 397 203 q 486 599 397 506 q 694 682 565 682 m 460 -646 l 385 -646 l 385 -514 l 460 -514 l 460 -646 m 640 -646 l 565 -646 l 565 -514 l 640 -514 l 640 -646 z "},"ً":{"ha":0,"x_min":-107,"x_max":108,"o":"m 108 932 l -107 932 l -107 983 l 108 983 l 108 932 m 108 782 l -107 782 l -107 833 l 108 833 l 108 782 z "},"ٌ":{"ha":0,"x_min":-175,"x_max":179,"o":"m 75 1010 q 149 980 119 1010 q 179 903 179 950 q 138 804 179 842 q 43 771 101 771 q -79 799 -33 771 q -99 813 -89 804 q -106 817 -104 817 q -112 811 -108 817 l -132 783 l -175 811 l -137 863 q -117 875 -128 875 q -96 865 -110 875 q -94 864 -94 865 q 11 817 -37 819 q -26 906 -26 849 q 2 981 -26 951 q 75 1010 31 1010 m 74 961 q 41 946 54 961 q 26 904 28 931 q 76 824 26 849 q 110 853 96 831 q 125 900 124 875 q 110 944 125 928 q 74 961 96 961 z "},"ٍ":{"ha":0,"x_min":-110,"x_max":106,"o":"m 106 -181 l -110 -181 l -110 -129 l 106 -129 l 106 -181 m 106 -331 l -110 -331 l -110 -278 l 106 -278 l 106 -331 z "},"َ":{"ha":0,"x_min":-107,"x_max":108,"o":"m 108 782 l -107 782 l -107 833 l 108 833 l 108 782 z "},"ُ":{"ha":0,"x_min":-158,"x_max":151,"o":"m 47 1056 q 122 1025 92 1056 q 151 947 151 994 q 124 869 151 897 q 22 814 97 840 q -12 803 10 810 q -137 764 -89 776 l -158 807 q -11 856 -69 832 q -57 950 -57 886 q -27 1026 -57 996 q 47 1056 3 1056 m 44 875 q 81 901 65 881 q 97 944 96 921 q 83 990 97 974 q 47 1007 69 1007 q 13 992 26 1007 q -1 950 0 976 q 44 875 -1 897 z "},"ِ":{"ha":0,"x_min":-107,"x_max":108,"o":"m 108 -183 l -107 -183 l -107 -132 l 108 -132 l 108 -183 z "},"ّ":{"ha":0,"x_min":-179,"x_max":176,"o":"m 176 992 l 176 889 q 69 785 176 785 q -1 808 25 785 q -74 785 -28 785 q -179 889 -179 785 l -179 992 l -124 992 l -124 885 q -76 838 -124 838 q -29 885 -29 838 l -29 972 l 26 972 l 26 885 q 74 838 26 838 q 119 885 119 838 l 119 992 l 176 992 z "},"ْ":{"ha":0,"x_min":-110,"x_max":106,"o":"m -3 999 q 81 961 49 999 q 106 889 106 931 q 72 807 106 839 q -3 779 43 779 q -85 815 -54 779 q -110 889 -110 846 q -76 969 -110 938 q -3 999 -47 999 m -1 951 q -40 934 -25 951 q -56 889 -56 917 q -41 844 -56 861 q -1 828 -26 828 q 38 844 22 828 q 53 889 53 861 q 38 933 53 915 q -1 951 22 951 z "},"ٓ":{"ha":0,"x_min":-144,"x_max":139,"o":"m -61 878 q -4 860 -37 878 q 4 856 -1 858 q 56 836 39 836 q 97 871 75 836 l 139 844 q 56 783 104 783 q -17 811 31 783 q -58 826 -42 826 q -101 790 -82 826 l -144 817 q -61 878 -107 878 z "},"ٔ":{"ha":0,"x_min":-111,"x_max":104,"o":"m 104 786 l -111 786 l -111 839 l -68 839 q -87 894 -87 861 q -60 963 -87 936 q 11 990 -32 990 q 62 976 36 990 q 96 943 88 963 l 53 917 l 51 918 q 8 943 35 943 q -31 894 -31 943 q -13 854 -31 869 q 31 839 4 839 l 104 839 l 104 786 z "},"ٕ":{"ha":0,"x_min":-111,"x_max":104,"o":"m 104 -335 l -111 -335 l -111 -283 l -68 -283 q -87 -228 -87 -258 q -60 -158 -87 -185 q 11 -131 -32 -131 q 63 -144 38 -131 q 96 -179 88 -158 l 53 -204 q 8 -179 36 -179 q -31 -228 -31 -179 q -14 -267 -31 -251 q 31 -283 3 -282 l 104 -283 l 104 -335 z "},"٠":{"ha":381,"x_min":72,"x_max":310,"o":"m 310 379 l 193 264 l 72 385 l 188 501 l 310 379 z "},"١":{"ha":339,"x_min":128,"x_max":211,"o":"m 211 992 l 211 0 l 128 0 l 128 992 l 211 992 z "},"٢":{"ha":696,"x_min":128,"x_max":624,"o":"m 399 1008 q 624 890 556 1008 l 557 853 q 486 919 522 900 q 393 938 450 938 q 260 881 310 938 q 211 736 211 826 l 211 0 l 128 0 l 128 735 q 210 943 128 868 q 399 1008 281 1008 z "},"٣":{"ha":1164,"x_min":128,"x_max":1053,"o":"m 1053 992 l 1053 692 q 978 476 1053 550 q 800 414 913 414 q 593 529 650 414 q 383 414 538 414 q 211 488 269 414 l 211 0 l 128 0 l 128 992 l 211 992 l 211 686 q 261 532 211 585 q 381 485 306 485 q 510 546 465 485 q 549 686 549 599 l 549 992 l 632 992 l 632 686 q 681 532 632 585 q 800 485 725 485 q 931 546 886 485 q 969 686 969 599 l 969 992 l 1053 992 z "},"٤":{"ha":683,"x_min":78,"x_max":611,"o":"m 382 1011 q 515 980 457 1011 q 607 892 574 949 l 539 854 q 469 919 506 900 q 381 939 433 939 q 240 882 293 939 q 190 743 190 829 q 260 597 190 653 q 386 554 315 554 l 542 554 l 542 483 l 368 483 q 221 425 281 483 q 161 279 163 369 q 228 113 161 175 q 367 58 283 58 q 543 142 485 58 l 611 104 q 515 18 579 49 q 367 -12 450 -12 q 146 79 226 -12 q 78 269 78 156 q 128 429 81 363 q 244 519 169 489 q 140 619 175 556 q 108 744 108 675 q 190 943 108 869 q 382 1011 264 1011 z "},"٥":{"ha":685,"x_min":71,"x_max":617,"o":"m 343 833 q 599 536 589 833 l 613 285 q 343 -12 617 -12 q 75 285 71 -12 l 89 536 q 343 833 99 833 m 344 763 q 174 546 179 763 l 158 278 q 344 58 153 58 q 529 278 538 58 l 515 546 q 344 763 510 763 z "},"٦":{"ha":696,"x_min":72,"x_max":568,"o":"m 297 1008 q 506 924 432 1008 q 568 735 568 851 l 568 0 l 485 0 l 485 736 q 424 894 485 840 q 303 938 375 938 q 210 919 246 938 q 139 853 174 900 l 72 890 q 297 1008 140 1008 z "},"٧":{"ha":875,"x_min":72,"x_max":804,"o":"m 489 0 l 386 0 l 72 992 l 163 992 l 438 126 l 714 992 l 804 992 l 489 0 z "},"٨":{"ha":875,"x_min":72,"x_max":804,"o":"m 714 0 l 438 865 l 163 0 l 72 0 l 386 992 l 489 992 l 804 0 l 714 0 z "},"٩":{"ha":757,"x_min":90,"x_max":629,"o":"m 360 1008 q 553 946 489 1008 q 629 732 629 874 l 628 0 l 544 0 l 546 415 l 360 415 q 157 486 219 415 q 90 690 93 557 l 90 732 q 158 938 90 867 q 360 1008 224 1008 m 361 938 q 224 888 268 938 q 175 732 175 835 l 175 692 q 222 536 175 590 q 361 486 267 486 l 546 486 l 546 732 q 499 888 546 836 q 361 938 453 938 z "},"٪":{"ha":575,"x_min":90,"x_max":483,"o":"m 483 992 l 172 0 l 90 0 l 401 992 l 483 992 m 193 946 l 193 832 l 114 832 l 114 946 l 193 946 m 382 46 l 382 160 l 461 160 l 461 46 l 382 46 z "},"٫":{"ha":297,"x_min":67,"x_max":229,"o":"m 229 71 l 139 -311 l 67 -311 l 132 71 l 229 71 z "},"٬":{"ha":297,"x_min":67,"x_max":229,"o":"m 229 383 l 139 0 l 67 0 l 132 383 l 229 383 z "},"ٮ":{"ha":1219,"x_min":90,"x_max":1090,"o":"m 1090 667 l 1090 281 q 1015 64 1090 138 q 838 0 950 0 l 386 0 q 156 104 239 0 q 90 294 90 185 q 196 589 90 469 l 256 546 q 168 300 168 444 q 233 133 168 199 q 399 71 296 71 l 838 71 q 968 133 924 71 q 1007 275 1007 186 l 1007 667 l 1090 667 z "},"ٰ":{"ha":0,"x_min":-28,"x_max":28,"o":"m 28 788 l -28 788 l -28 993 l 28 993 l 28 788 z "},"ٱ":{"ha":339,"x_min":-3,"x_max":342,"o":"m 229 1269 q 315 1238 285 1269 q 342 1172 342 1211 q 315 1096 342 1124 q 239 1068 288 1068 q 151 1094 204 1068 q 143 1099 149 1096 q 85 1115 104 1115 q 40 1079 60 1115 l -3 1106 q 81 1167 33 1167 q 104 1164 93 1167 q 154 1242 121 1214 q 229 1269 188 1269 m 231 1219 q 188 1199 210 1219 q 156 1150 167 1179 q 236 1118 211 1118 q 272 1131 258 1118 q 285 1167 285 1144 q 231 1219 285 1219 m 211 0 l 128 0 l 128 914 l 211 914 l 211 0 z "},"ٹ":{"ha":1219,"x_min":90,"x_max":1090,"o":"m 563 1010 l 563 910 q 658 956 599 956 q 753 910 725 956 q 769 847 769 882 q 667 751 769 751 l 464 751 l 464 803 l 507 803 l 506 1010 l 563 1010 m 661 907 q 599 878 626 907 q 561 803 571 849 l 675 803 q 702 816 692 803 q 713 850 713 829 q 699 892 713 876 q 661 907 685 907 m 1090 667 l 1090 281 q 1015 64 1090 138 q 838 0 950 0 l 386 0 q 156 104 239 0 q 90 294 90 185 q 196 589 90 469 l 256 546 q 168 300 168 444 q 233 133 168 199 q 399 71 296 71 l 838 71 q 968 133 924 71 q 1007 275 1007 186 l 1007 667 l 1090 667 z "},"پ":{"ha":1219,"x_min":90,"x_max":1090,"o":"m 1090 667 l 1090 281 q 1015 64 1090 138 q 838 0 950 0 l 386 0 q 156 104 239 0 q 90 294 90 185 q 196 589 90 469 l 256 546 q 168 300 168 444 q 233 133 168 199 q 399 71 296 71 l 838 71 q 968 133 924 71 q 1007 275 1007 186 l 1007 667 l 1090 667 m 546 -294 l 471 -294 l 471 -162 l 546 -162 l 546 -294 m 726 -294 l 651 -294 l 651 -162 l 726 -162 l 726 -294 m 633 -474 l 563 -474 l 563 -358 l 633 -358 l 633 -474 z "},"چ":{"ha":954,"x_min":81,"x_max":875,"o":"m 407 682 q 671 542 596 682 q 707 452 697 494 q 728 293 717 410 q 764 140 739 193 q 806 85 782 100 q 872 71 829 71 l 875 71 l 875 0 l 501 0 q 335 -21 401 0 q 206 -112 251 -46 q 165 -243 165 -171 q 243 -421 165 -349 q 375 -486 301 -475 q 385 -487 376 -486 q 408 -489 399 -489 l 440 -557 q 408 -558 429 -558 q 344 -553 383 -558 q 154 -449 228 -531 q 81 -249 81 -368 q 133 -71 81 -146 q 281 40 185 3 q 476 71 354 67 l 708 71 q 657 197 672 111 q 640 325 653 221 q 594 506 625 449 q 406 610 542 610 q 222 510 303 610 l 157 550 q 265 647 199 611 q 407 682 332 682 m 538 -281 l 475 -281 l 475 -161 l 538 -161 l 538 -281 m 701 -281 l 639 -281 l 639 -161 l 701 -161 l 701 -281 m 618 -446 l 558 -446 l 558 -342 l 618 -342 l 618 -446 z "},"ڈ":{"ha":704,"x_min":81,"x_max":614,"o":"m 329 1096 l 329 996 q 425 1042 365 1042 q 519 996 492 1042 q 536 935 536 969 q 433 838 536 838 l 231 838 l 231 890 l 274 890 l 272 1096 l 329 1096 m 428 994 q 365 965 393 994 q 328 890 338 936 l 442 890 q 469 903 458 890 q 479 936 479 917 q 465 978 479 963 q 428 994 451 994 m 249 615 l 283 682 q 614 289 614 621 q 346 0 614 0 l 81 0 l 81 71 l 346 71 q 531 286 531 71 q 438 531 531 446 q 249 615 371 590 z "},"ڑ":{"ha":468,"x_min":-51,"x_max":449,"o":"m 242 1097 l 242 997 q 338 1043 278 1043 q 432 997 404 1043 q 449 936 449 971 q 346 839 449 839 l 143 839 l 143 890 l 186 890 l 185 1097 l 242 1097 m 340 996 q 278 967 306 996 q 240 890 250 938 l 354 890 q 381 904 369 890 q 392 938 392 918 q 378 980 392 964 q 340 996 364 996 m 340 667 l 340 24 q 331 -153 340 -92 q 294 -260 321 -215 q 94 -361 239 -361 q -51 -331 10 -361 l -24 -264 q 85 -287 24 -287 q 220 -223 183 -287 q 257 13 257 -158 l 257 667 l 340 667 z "},"ژ":{"ha":468,"x_min":-51,"x_max":426,"o":"m 333 1036 l 263 1036 l 263 1151 l 333 1151 l 333 1036 m 246 840 l 171 840 l 171 972 l 246 972 l 246 840 m 426 840 l 351 840 l 351 972 l 426 972 l 426 840 m 340 667 l 340 24 q 331 -153 340 -92 q 294 -260 321 -215 q 94 -361 239 -361 q -51 -331 10 -361 l -24 -264 q 85 -287 24 -287 q 220 -223 183 -287 q 257 13 257 -158 l 257 667 l 340 667 z "},"ڡ":{"ha":1386,"x_min":90,"x_max":1275,"o":"m 1007 682 q 1217 600 1151 682 q 1275 385 1275 526 l 1275 297 q 1200 63 1275 135 q 1007 0 1135 0 l 386 0 q 156 104 239 0 q 90 294 90 185 q 196 589 90 469 l 256 546 q 168 300 168 444 q 233 133 168 199 q 399 71 296 71 l 818 71 q 735 297 735 135 l 735 385 q 811 619 735 547 q 1007 682 878 682 m 1006 610 q 858 549 903 610 q 819 390 819 496 l 819 290 q 869 118 819 171 q 1006 71 915 71 q 1154 133 1110 71 q 1192 290 1192 186 l 1192 390 q 1142 563 1192 511 q 1006 610 1097 610 z "},"ڤ":{"ha":1386,"x_min":90,"x_max":1275,"o":"m 1040 1035 l 969 1035 l 969 1150 l 1040 1150 l 1040 1035 m 953 839 l 878 839 l 878 971 l 953 971 l 953 839 m 1133 839 l 1058 839 l 1058 971 l 1133 971 l 1133 839 m 1007 682 q 1217 600 1151 682 q 1275 385 1275 526 l 1275 297 q 1200 63 1275 135 q 1007 0 1135 0 l 386 0 q 156 104 239 0 q 90 294 90 185 q 196 589 90 469 l 256 546 q 168 300 168 444 q 233 133 168 199 q 399 71 296 71 l 818 71 q 735 297 735 135 l 735 385 q 811 619 735 547 q 1007 682 878 682 m 1006 610 q 858 549 903 610 q 819 390 819 496 l 819 290 q 869 118 819 171 q 1006 71 915 71 q 1154 133 1110 71 q 1192 290 1192 186 l 1192 390 q 1142 563 1192 511 q 1006 610 1097 610 z "},"ک":{"ha":1203,"x_min":90,"x_max":1090,"o":"m 650 667 l 838 667 q 1033 583 967 667 q 1090 386 1090 511 l 1090 281 q 1015 64 1090 138 q 838 0 950 0 l 386 0 q 156 104 239 0 q 90 294 90 185 q 196 589 90 469 l 256 546 q 168 300 168 444 q 233 133 169 199 q 399 71 297 71 l 838 71 q 968 133 924 71 q 1007 275 1007 186 l 1007 392 q 957 547 1007 493 q 838 594 913 594 l 553 594 l 553 626 q 603 726 553 668 l 821 992 l 917 992 l 650 667 z "},"گ":{"ha":1353,"x_min":90,"x_max":1240,"o":"m 800 667 l 988 667 q 1183 583 1117 667 q 1240 386 1240 511 l 1240 281 q 1165 64 1240 138 q 988 0 1100 0 l 386 0 q 156 104 239 0 q 90 294 90 185 q 199 589 90 468 l 258 546 q 169 301 169 447 q 235 135 169 200 q 399 71 297 71 l 988 71 q 1118 133 1074 71 q 1157 275 1157 186 l 1157 392 q 1107 547 1157 493 q 988 594 1063 594 l 701 594 l 701 628 q 709 667 701 651 q 746 718 717 682 q 753 726 750 724 l 971 992 l 1067 992 l 800 667 m 514 667 l 444 667 l 711 992 l 782 992 l 514 667 z "},"ں":{"ha":1021,"x_min":92,"x_max":892,"o":"m 892 667 l 892 64 q 774 -265 892 -156 q 496 -361 672 -361 q 300 -314 390 -361 q 151 -175 206 -265 q 92 54 92 -76 q 121 235 92 146 q 201 388 150 325 l 263 346 q 194 213 219 289 q 169 61 169 138 q 285 -212 169 -117 q 497 -287 374 -287 q 732 -192 650 -287 q 808 53 808 -104 l 808 667 l 892 667 z "},"ھ":{"ha":763,"x_min":111,"x_max":651,"o":"m 382 682 q 593 600 528 682 q 651 385 651 528 l 651 285 q 575 50 651 121 q 382 -12 510 -12 q 169 69 235 -12 q 111 285 111 142 l 111 385 q 188 619 111 547 q 382 682 254 682 m 381 610 q 233 549 278 610 q 194 390 194 496 l 194 278 q 244 106 194 158 q 381 58 290 58 q 529 121 485 58 q 567 278 567 174 l 567 390 q 517 563 567 511 q 381 610 472 610 z "},"ۀ":{"ha":763,"x_min":111,"x_max":651,"o":"m 483 840 l 268 840 l 268 893 l 311 893 q 292 949 292 915 q 319 1017 292 990 q 390 1044 347 1044 q 441 1031 415 1044 q 475 997 467 1017 l 432 971 l 431 972 q 388 997 414 997 q 349 949 349 997 q 366 909 349 925 q 410 893 383 893 l 483 893 l 483 840 m 382 682 q 593 600 528 682 q 651 385 651 528 l 651 285 q 575 50 651 121 q 382 -12 510 -12 q 169 69 235 -12 q 111 285 111 142 l 111 385 q 188 619 111 547 q 382 682 254 682 m 381 610 q 233 549 278 610 q 194 390 194 496 l 194 278 q 244 106 194 158 q 381 58 290 58 q 529 121 485 58 q 567 278 567 174 l 567 390 q 517 563 567 511 q 381 610 472 610 z "},"ہ":{"ha":763,"x_min":111,"x_max":651,"o":"m 382 682 q 593 600 528 682 q 651 385 651 528 l 651 285 q 575 50 651 121 q 382 -12 510 -12 q 169 69 235 -12 q 111 285 111 142 l 111 385 q 188 619 111 547 q 382 682 254 682 m 381 610 q 233 549 278 610 q 194 390 194 496 l 194 278 q 244 106 194 158 q 381 58 290 58 q 529 121 485 58 q 567 278 567 174 l 567 390 q 517 563 567 511 q 381 610 472 610 z "},"ۂ":{"ha":763,"x_min":111,"x_max":651,"o":"m 483 840 l 268 840 l 268 893 l 311 893 q 292 949 292 915 q 319 1017 292 990 q 390 1044 347 1044 q 441 1031 415 1044 q 475 997 467 1017 l 432 971 l 431 972 q 388 997 414 997 q 349 949 349 997 q 366 909 349 925 q 410 893 383 893 l 483 893 l 483 840 m 382 682 q 593 600 528 682 q 651 385 651 528 l 651 285 q 575 50 651 121 q 382 -12 510 -12 q 169 69 235 -12 q 111 285 111 142 l 111 385 q 188 619 111 547 q 382 682 254 682 m 381 610 q 233 549 278 610 q 194 390 194 496 l 194 278 q 244 106 194 158 q 381 58 290 58 q 529 121 485 58 q 567 278 567 174 l 567 390 q 517 563 567 511 q 381 610 472 610 z "},"ۃ":{"ha":763,"x_min":111,"x_max":651,"o":"m 329 839 l 254 839 l 254 971 l 329 971 l 329 839 m 510 839 l 435 839 l 435 971 l 510 971 l 510 839 m 382 682 q 593 600 528 682 q 651 385 651 528 l 651 285 q 575 50 651 121 q 382 -12 510 -12 q 169 69 235 -12 q 111 285 111 142 l 111 385 q 188 619 111 547 q 382 682 254 682 m 381 610 q 233 549 278 610 q 194 390 194 496 l 194 278 q 244 106 194 158 q 381 58 290 58 q 529 121 485 58 q 567 278 567 174 l 567 390 q 517 563 567 511 q 381 610 472 610 z "},"ی":{"ha":1015,"x_min":90,"x_max":935,"o":"m 694 682 q 832 643 764 682 q 922 560 892 610 l 856 524 q 782 586 826 563 q 692 610 738 610 q 539 536 600 610 q 481 354 482 465 q 585 117 482 189 q 739 71 650 71 l 861 71 q 935 3 935 71 q 893 -153 935 -74 q 758 -297 846 -243 q 514 -361 656 -361 q 194 -233 311 -361 q 90 63 90 -118 q 156 318 90 206 l 218 276 q 169 72 169 178 q 279 -207 169 -110 q 515 -287 371 -287 q 786 -167 689 -287 q 831 -90 814 -132 q 849 -17 849 -49 q 832 0 849 0 l 700 0 q 478 107 567 0 q 397 342 397 203 q 486 599 397 506 q 694 682 565 682 m 461 -647 l 386 -647 l 386 -515 l 461 -515 l 461 -647 m 642 -647 l 567 -647 l 567 -515 l 642 -515 l 642 -647 m 549 -826 l 478 -826 l 478 -711 l 549 -711 l 549 -826 z "},"ے":{"ha":1225,"x_min":111,"x_max":1144,"o":"m 839 992 q 996 949 925 992 q 1086 865 1053 915 l 1018 829 q 826 921 950 921 q 651 833 715 921 q 599 646 599 758 l 599 594 l 364 594 q 233 533 278 594 q 194 392 194 479 l 194 275 q 244 119 194 174 q 364 71 289 71 l 1144 71 l 1144 0 l 364 0 q 168 83 235 0 q 111 281 111 156 l 111 386 q 186 603 111 529 q 364 667 251 667 l 518 667 q 614 911 518 821 q 839 992 700 992 z "},"ۓ":{"ha":1225,"x_min":111,"x_max":1144,"o":"m 368 838 l 153 838 l 153 890 l 196 890 q 176 946 176 913 q 204 1015 176 988 q 275 1042 232 1042 q 326 1028 300 1042 q 360 994 351 1014 l 317 968 l 315 969 q 272 994 299 994 q 233 946 233 994 q 251 906 233 922 q 294 890 268 890 l 368 890 l 368 838 m 839 992 q 996 949 925 992 q 1086 865 1053 915 l 1018 829 q 826 921 950 921 q 651 833 715 921 q 599 646 599 758 l 599 594 l 364 594 q 233 533 278 594 q 194 392 194 479 l 194 275 q 244 119 194 174 q 364 71 289 71 l 1144 71 l 1144 0 l 364 0 q 168 83 235 0 q 111 281 111 156 l 111 386 q 186 603 111 529 q 364 667 251 667 l 518 667 q 614 911 518 821 q 839 992 700 992 z "},"۰":{"ha":381,"x_min":72,"x_max":310,"o":"m 310 379 l 193 264 l 72 385 l 188 501 l 310 379 z "},"۱":{"ha":339,"x_min":128,"x_max":211,"o":"m 211 992 l 211 0 l 128 0 l 128 992 l 211 992 z "},"۲":{"ha":696,"x_min":128,"x_max":624,"o":"m 399 1008 q 624 890 556 1008 l 557 853 q 486 919 522 900 q 393 938 450 938 q 260 881 310 938 q 211 736 211 826 l 211 0 l 128 0 l 128 735 q 210 943 128 868 q 399 1008 281 1008 z "},"۳":{"ha":1164,"x_min":128,"x_max":1053,"o":"m 1053 992 l 1053 692 q 978 476 1053 550 q 800 414 913 414 q 593 529 650 414 q 383 414 538 414 q 211 488 269 414 l 211 0 l 128 0 l 128 992 l 211 992 l 211 686 q 261 532 211 585 q 381 485 306 485 q 510 546 465 485 q 549 686 549 599 l 549 992 l 632 992 l 632 686 q 681 532 632 585 q 800 485 725 485 q 931 546 886 485 q 969 686 969 599 l 969 992 l 1053 992 z "},"۴":{"ha":726,"x_min":128,"x_max":646,"o":"m 214 613 q 411 554 304 554 q 646 621 522 554 l 646 546 q 406 485 528 485 q 214 531 301 485 l 211 0 l 128 0 l 128 992 l 211 992 l 211 903 q 295 980 239 951 q 415 1008 351 1008 q 593 963 514 1008 l 593 882 l 572 892 q 428 933 489 933 q 250 819 304 933 q 214 613 211 739 z "},"۵":{"ha":685,"x_min":64,"x_max":613,"o":"m 340 833 q 596 536 579 833 l 611 244 q 553 44 613 114 q 435 -11 506 -11 q 347 14 392 -11 q 340 18 343 18 q 333 14 338 18 q 244 -12 292 -12 q 110 69 160 -12 q 71 269 64 146 l 85 536 q 340 833 99 833 m 340 763 q 168 546 181 763 l 153 239 q 186 104 153 154 q 269 57 217 57 q 335 88 303 57 q 340 90 338 90 q 346 88 343 90 q 411 58 375 58 q 503 118 472 58 q 526 242 526 167 l 511 546 q 340 763 499 763 z "},"۶":{"ha":790,"x_min":67,"x_max":711,"o":"m 467 488 q 710 563 590 540 l 711 489 q 419 374 513 443 q 157 0 250 247 l 67 0 q 333 413 167 285 q 178 522 240 428 q 124 707 124 606 q 206 931 124 847 q 406 1008 282 1008 q 539 976 478 1008 q 636 886 600 944 l 568 849 q 410 938 501 938 q 257 872 314 938 q 206 713 206 811 q 269 539 206 613 q 401 474 326 474 q 467 488 428 474 z "},"۷":{"ha":875,"x_min":72,"x_max":804,"o":"m 489 0 l 386 0 l 72 992 l 163 992 l 438 126 l 714 992 l 804 992 l 489 0 z "},"۸":{"ha":875,"x_min":72,"x_max":804,"o":"m 714 0 l 438 865 l 163 0 l 72 0 l 386 992 l 489 992 l 804 0 l 714 0 z "},"۹":{"ha":757,"x_min":90,"x_max":629,"o":"m 360 1008 q 553 946 489 1008 q 629 732 629 874 l 628 0 l 544 0 l 546 415 l 360 415 q 157 486 219 415 q 90 690 93 557 l 90 732 q 158 938 90 867 q 360 1008 224 1008 m 361 938 q 224 888 268 938 q 175 732 175 835 l 175 692 q 222 536 175 590 q 361 486 267 486 l 546 486 l 546 732 q 499 888 546 836 q 361 938 453 938 z "},"Ḃ":{"ha":890,"x_min":154,"x_max":804,"o":"m 154 0 l 154 992 l 511 992 q 628 978 583 992 q 710 932 674 964 q 785 739 785 863 q 658 518 785 583 q 743 458 721 485 q 804 265 804 386 q 718 53 804 124 q 641 12 683 24 q 532 0 599 0 l 154 0 m 240 547 l 507 547 q 643 589 596 547 q 697 733 697 639 q 635 883 697 835 q 507 919 589 919 l 240 919 l 240 547 m 240 72 l 526 72 q 663 117 617 72 q 718 271 718 169 q 701 367 718 322 q 656 436 683 411 q 526 475 610 475 l 240 475 l 240 72 m 385 1114 l 385 1247 l 467 1247 l 467 1114 l 385 1114 z "},"ḃ":{"ha":783,"x_min":132,"x_max":676,"o":"m 132 0 l 132 992 l 215 992 l 215 611 q 300 681 253 660 q 419 703 347 703 q 676 399 676 703 l 676 293 q 604 53 676 128 q 418 -12 540 -12 q 297 7 343 -12 q 211 75 251 26 q 206 82 208 78 l 199 0 l 132 0 m 215 294 q 226 194 217 232 q 257 126 235 157 q 407 58 306 58 q 594 296 594 58 l 594 394 q 407 633 594 633 q 215 396 215 633 l 215 294 m 407 822 l 407 954 l 489 954 l 489 822 l 407 822 z "},"Ḍ":{"ha":944,"x_min":154,"x_max":814,"o":"m 154 0 l 154 992 l 461 992 q 701 921 617 992 q 788 801 763 871 q 814 617 814 731 l 814 375 q 788 192 814 261 q 701 71 763 122 q 461 0 617 0 l 154 0 m 240 72 l 449 72 q 644 132 581 72 q 708 233 689 174 q 728 385 728 293 l 728 607 q 708 759 728 700 q 644 860 689 818 q 449 919 581 919 l 240 919 l 240 72 m 390 -261 l 390 -128 l 471 -128 l 471 -261 l 390 -261 z "},"ḍ":{"ha":783,"x_min":107,"x_max":651,"o":"m 585 0 l 579 82 l 578 81 q 574 75 574 76 q 518 24 543 39 q 368 -12 458 -12 q 163 74 226 -12 q 107 293 107 147 l 107 399 q 365 703 107 703 q 484 682 438 703 q 569 611 531 661 l 569 992 l 651 992 l 651 0 l 585 0 m 569 396 q 558 497 568 460 q 526 564 549 533 q 378 633 478 633 q 190 394 190 633 l 190 296 q 378 58 190 58 q 569 294 569 58 l 569 396 m 375 -261 l 375 -128 l 457 -128 l 457 -261 l 375 -261 z "},"Ḟ":{"ha":757,"x_min":154,"x_max":717,"o":"m 154 0 l 154 992 l 717 992 l 717 918 l 240 918 l 240 531 l 646 531 l 646 457 l 240 457 l 240 0 l 154 0 m 401 1114 l 401 1247 l 483 1247 l 483 1114 l 401 1114 z "},"ḟ":{"ha":453,"x_min":74,"x_max":406,"o":"m 163 621 l 74 621 l 74 690 l 163 690 l 163 819 q 206 961 163 926 q 342 992 243 992 l 397 992 l 397 924 l 360 924 q 264 899 285 924 q 246 810 246 876 l 246 690 l 406 690 l 406 621 l 246 621 l 246 0 l 163 0 l 163 621 m 242 1114 l 242 1247 l 324 1247 l 324 1114 l 242 1114 z "},"Ḥ":{"ha":946,"x_min":154,"x_max":792,"o":"m 154 0 l 154 992 l 240 992 l 240 539 l 706 539 l 706 992 l 792 992 l 792 0 l 706 0 l 706 465 l 240 465 l 240 0 l 154 0 m 431 -261 l 431 -128 l 513 -128 l 513 -261 l 431 -261 z "},"ḥ":{"ha":782,"x_min":132,"x_max":658,"o":"m 132 0 l 132 992 l 215 992 l 215 611 q 297 681 250 660 q 414 703 343 703 q 636 569 585 703 q 658 397 658 514 l 658 0 l 575 0 l 575 390 q 528 582 575 526 q 400 631 486 631 q 253 557 296 631 q 215 353 215 492 l 215 0 l 132 0 m 350 -261 l 350 -128 l 432 -128 l 432 -261 l 350 -261 z "},"Ṅ":{"ha":1006,"x_min":154,"x_max":851,"o":"m 154 0 l 154 992 l 236 992 l 767 149 l 767 992 l 851 992 l 851 0 l 769 0 l 239 843 l 239 0 l 154 0 m 478 1114 l 478 1247 l 560 1247 l 560 1114 l 478 1114 z "},"ṅ":{"ha":782,"x_min":132,"x_max":658,"o":"m 132 0 l 132 690 l 197 690 l 206 597 q 408 703 263 703 q 636 569 585 703 q 658 397 658 514 l 658 0 l 575 0 l 575 390 q 554 538 575 489 q 400 631 514 631 q 253 556 294 631 q 215 349 215 490 l 215 0 l 132 0 m 350 822 l 350 954 l 432 954 l 432 822 l 350 822 z "},"Ṛ":{"ha":899,"x_min":156,"x_max":793,"o":"m 242 440 l 242 0 l 156 0 l 156 992 l 485 992 q 624 975 569 992 q 715 919 678 958 q 786 719 786 849 q 574 450 786 479 l 793 0 l 697 0 l 489 440 l 242 440 m 240 513 l 493 513 q 699 715 699 513 q 478 919 699 919 l 240 919 l 240 513 m 407 -261 l 407 -128 l 489 -128 l 489 -261 l 407 -261 z "},"ṛ":{"ha":511,"x_min":132,"x_max":508,"o":"m 132 0 l 132 690 l 199 690 l 207 601 q 383 703 260 703 q 508 671 447 703 l 474 599 q 375 629 424 629 q 247 550 285 629 q 215 339 215 482 l 215 0 l 132 0 m 132 -261 l 132 -128 l 214 -128 l 214 -261 l 132 -261 z "},"Ṣ":{"ha":807,"x_min":78,"x_max":733,"o":"m 78 125 l 146 169 q 400 63 214 63 q 592 121 526 63 q 649 258 649 172 q 583 399 649 351 q 526 429 551 421 q 393 465 501 438 q 167 575 232 504 q 108 740 108 638 q 197 942 108 872 q 404 1003 275 1003 q 679 890 601 1003 l 611 846 q 403 931 553 931 q 242 875 297 931 q 193 746 193 826 q 256 610 193 658 q 435 538 310 568 q 571 500 538 513 q 642 463 604 488 q 733 264 733 399 q 635 51 733 124 q 399 -11 549 -11 q 78 125 165 -11 m 358 -261 l 358 -128 l 440 -128 l 440 -261 l 358 -261 z "},"ṣ":{"ha":647,"x_min":44,"x_max":576,"o":"m 44 83 l 104 126 q 188 74 142 89 q 303 58 233 58 q 494 188 494 58 q 443 285 494 257 q 308 318 407 304 q 199 341 235 329 q 138 375 163 353 q 83 506 83 422 q 149 658 83 607 q 303 703 206 703 q 544 603 465 703 l 481 563 q 408 617 447 600 q 310 633 368 633 q 197 597 235 633 q 165 510 165 565 q 213 419 165 447 q 331 389 243 401 q 449 366 408 378 q 515 333 489 354 q 576 185 576 289 q 306 -12 576 -12 q 44 83 121 -12 m 274 -258 l 274 -126 l 354 -126 l 354 -258 l 274 -258 z "},"Ṭ":{"ha":769,"x_min":50,"x_max":719,"o":"m 343 0 l 343 918 l 50 918 l 50 992 l 719 992 l 719 918 l 429 918 l 429 0 l 343 0 m 342 -261 l 342 -128 l 424 -128 l 424 -261 l 342 -261 z "},"ṭ":{"ha":457,"x_min":69,"x_max":381,"o":"m 156 621 l 69 621 l 69 690 l 156 690 l 158 919 l 239 919 l 239 690 l 374 690 l 374 621 l 239 621 l 239 194 q 263 97 239 124 q 354 71 288 71 l 381 71 l 381 0 l 354 0 q 190 47 229 0 q 156 201 156 89 l 156 621 m 188 -261 l 188 -128 l 268 -128 l 268 -261 l 188 -261 z "},"Ẁ":{"ha":1193,"x_min":43,"x_max":1149,"o":"m 292 0 l 43 992 l 131 992 l 332 144 l 568 992 l 625 992 l 861 144 l 1063 992 l 1149 992 l 900 0 l 829 0 l 596 832 l 363 0 l 292 0 m 658 1103 l 594 1103 l 450 1293 l 557 1293 l 658 1103 z "},"ẁ":{"ha":1067,"x_min":60,"x_max":1008,"o":"m 275 0 l 60 690 l 144 690 l 313 118 l 506 690 l 563 690 l 756 118 l 924 690 l 1008 690 l 793 0 l 728 0 l 533 558 l 340 0 l 275 0 m 596 810 l 532 810 l 388 1000 l 496 1000 l 596 810 z "},"Ẃ":{"ha":1193,"x_min":43,"x_max":1149,"o":"m 292 0 l 43 992 l 131 992 l 332 144 l 568 992 l 625 992 l 861 144 l 1063 992 l 1149 992 l 900 0 l 829 0 l 596 832 l 363 0 l 292 0 m 538 1103 l 639 1293 l 746 1293 l 601 1103 l 538 1103 z "},"ẃ":{"ha":1067,"x_min":60,"x_max":1008,"o":"m 275 0 l 60 690 l 144 690 l 313 118 l 506 690 l 563 690 l 756 118 l 924 690 l 1008 690 l 793 0 l 728 0 l 533 558 l 340 0 l 275 0 m 475 810 l 576 1000 l 683 1000 l 540 810 l 475 810 z "},"Ẅ":{"ha":1193,"x_min":43,"x_max":1149,"o":"m 292 0 l 43 992 l 131 992 l 332 144 l 568 992 l 625 992 l 861 144 l 1063 992 l 1149 992 l 900 0 l 829 0 l 596 832 l 363 0 l 292 0 m 424 1114 l 424 1247 l 501 1247 l 501 1114 l 424 1114 m 692 1114 l 692 1247 l 768 1247 l 768 1114 l 692 1114 z "},"ẅ":{"ha":1067,"x_min":60,"x_max":1008,"o":"m 275 0 l 60 690 l 144 690 l 313 118 l 506 690 l 563 690 l 756 118 l 924 690 l 1008 690 l 793 0 l 728 0 l 533 558 l 340 0 l 275 0 m 363 822 l 363 954 l 439 954 l 439 822 l 363 822 m 628 822 l 628 954 l 706 954 l 706 822 l 628 822 z "},"Ẓ":{"ha":743,"x_min":69,"x_max":665,"o":"m 69 0 l 69 64 l 547 918 l 96 918 l 96 992 l 643 992 l 643 928 l 165 74 l 665 74 l 665 0 l 69 0 m 343 -258 l 343 -126 l 425 -126 l 425 -258 l 343 -258 z "},"ẓ":{"ha":656,"x_min":67,"x_max":565,"o":"m 67 0 l 67 54 l 439 619 l 94 619 l 94 690 l 543 690 l 543 636 l 171 71 l 565 71 l 565 0 l 67 0 m 294 -261 l 294 -128 l 376 -128 l 376 -261 l 294 -261 z "},"Ạ":{"ha":824,"x_min":8,"x_max":817,"o":"m 643 226 l 182 226 l 103 0 l 8 0 l 372 992 l 453 992 l 817 0 l 722 0 l 643 226 m 619 299 l 413 876 l 206 299 l 619 299 m 371 -261 l 371 -128 l 451 -128 l 451 -261 l 371 -261 z "},"ạ":{"ha":724,"x_min":72,"x_max":597,"o":"m 515 397 l 515 457 q 488 579 515 542 q 349 633 447 633 q 172 563 239 633 l 115 608 q 356 703 197 703 q 567 610 508 703 q 591 545 585 581 q 597 446 597 510 l 597 0 l 531 0 l 524 53 q 444 2 490 17 q 317 -12 399 -12 q 119 39 174 -12 q 72 189 72 85 q 139 357 72 313 q 336 397 199 397 l 515 397 m 515 332 l 342 332 q 190 296 233 332 q 153 189 153 263 q 199 83 153 111 q 333 58 239 58 q 494 108 456 58 q 515 208 515 136 l 515 332 m 319 -261 l 319 -128 l 401 -128 l 401 -261 l 319 -261 z "},"Ả":{"ha":824,"x_min":8,"x_max":817,"o":"m 643 226 l 182 226 l 103 0 l 8 0 l 372 992 l 453 992 l 817 0 l 722 0 l 643 226 m 619 299 l 413 876 l 206 299 l 619 299 m 450 1086 l 386 1086 q 390 1135 386 1121 q 410 1172 394 1149 q 436 1232 436 1213 q 390 1267 436 1267 q 328 1251 364 1267 l 311 1303 q 401 1321 358 1321 q 510 1235 510 1321 q 475 1157 510 1203 q 455 1125 458 1135 q 450 1086 451 1115 z "},"ả":{"ha":724,"x_min":72,"x_max":597,"o":"m 515 397 l 515 457 q 488 579 515 542 q 349 633 447 633 q 172 563 239 633 l 115 608 q 356 703 197 703 q 567 610 508 703 q 591 545 585 581 q 597 446 597 510 l 597 0 l 531 0 l 524 53 q 444 2 490 17 q 317 -12 399 -12 q 119 39 174 -12 q 72 189 72 85 q 139 357 72 313 q 336 397 199 397 l 515 397 m 515 332 l 342 332 q 190 296 233 332 q 153 189 153 263 q 199 83 153 111 q 333 58 239 58 q 494 108 456 58 q 515 208 515 136 l 515 332 m 408 799 l 344 799 q 348 848 344 835 q 368 886 351 861 q 394 944 394 926 q 349 981 394 981 q 286 965 322 981 l 269 1015 q 360 1033 317 1033 q 468 949 468 1033 q 433 871 468 915 q 413 838 415 847 q 408 799 410 828 z "},"Ấ":{"ha":824,"x_min":8,"x_max":817,"o":"m 643 226 l 182 226 l 103 0 l 8 0 l 372 992 l 453 992 l 817 0 l 722 0 l 643 226 m 619 299 l 413 876 l 206 299 l 619 299 m 365 1236 l 442 1392 l 532 1392 l 418 1236 l 365 1236 m 413 1139 l 313 1058 l 219 1058 l 389 1199 l 436 1199 l 604 1058 l 513 1058 l 413 1139 z "},"ấ":{"ha":724,"x_min":72,"x_max":597,"o":"m 515 397 l 515 457 q 488 579 515 542 q 349 633 447 633 q 172 563 239 633 l 115 608 q 356 703 197 703 q 567 610 508 703 q 591 545 585 581 q 597 446 597 510 l 597 0 l 531 0 l 524 53 q 444 2 490 17 q 317 -12 399 -12 q 119 39 174 -12 q 72 189 72 85 q 139 357 72 313 q 336 397 199 397 l 515 397 m 515 332 l 342 332 q 190 296 233 332 q 153 189 153 263 q 199 83 153 111 q 333 58 239 58 q 494 108 456 58 q 515 208 515 136 l 515 332 m 328 943 l 406 1100 l 496 1100 l 382 943 l 328 943 m 376 847 l 276 767 l 183 767 l 353 906 l 399 906 l 568 767 l 476 767 l 376 847 z "},"Ầ":{"ha":824,"x_min":8,"x_max":817,"o":"m 643 226 l 182 226 l 103 0 l 8 0 l 372 992 l 453 992 l 817 0 l 722 0 l 643 226 m 619 299 l 413 876 l 206 299 l 619 299 m 458 1236 l 406 1236 l 292 1392 l 382 1392 l 458 1236 m 413 1139 l 313 1058 l 219 1058 l 389 1199 l 436 1199 l 604 1058 l 513 1058 l 413 1139 z "},"ầ":{"ha":724,"x_min":72,"x_max":597,"o":"m 515 397 l 515 457 q 488 579 515 542 q 349 633 447 633 q 172 563 239 633 l 115 608 q 356 703 197 703 q 567 610 508 703 q 591 545 585 581 q 597 446 597 510 l 597 0 l 531 0 l 524 53 q 444 2 490 17 q 317 -12 399 -12 q 119 39 174 -12 q 72 189 72 85 q 139 357 72 313 q 336 397 199 397 l 515 397 m 515 332 l 342 332 q 190 296 233 332 q 153 189 153 263 q 199 83 153 111 q 333 58 239 58 q 494 108 456 58 q 515 208 515 136 l 515 332 m 417 943 l 364 943 l 250 1100 l 340 1100 l 417 943 m 371 847 l 271 767 l 178 767 l 347 906 l 394 906 l 563 767 l 471 767 l 371 847 z "},"Ẩ":{"ha":824,"x_min":8,"x_max":817,"o":"m 643 226 l 182 226 l 103 0 l 8 0 l 372 992 l 453 992 l 817 0 l 722 0 l 643 226 m 619 299 l 413 876 l 206 299 l 619 299 m 443 1218 l 383 1218 q 388 1255 385 1244 q 407 1283 392 1265 q 431 1328 431 1314 q 388 1350 431 1350 q 331 1339 363 1350 l 314 1382 q 399 1397 356 1397 q 497 1331 497 1397 q 465 1271 497 1306 q 447 1247 450 1254 q 443 1218 443 1240 m 408 1139 l 308 1058 l 215 1058 l 385 1194 l 431 1194 l 600 1058 l 507 1058 l 408 1139 z "},"ẩ":{"ha":724,"x_min":72,"x_max":597,"o":"m 515 397 l 515 457 q 488 579 515 542 q 349 633 447 633 q 172 563 239 633 l 115 608 q 356 703 197 703 q 567 610 508 703 q 591 545 585 581 q 597 446 597 510 l 597 0 l 531 0 l 524 53 q 444 2 490 17 q 317 -12 399 -12 q 119 39 174 -12 q 72 189 72 85 q 139 357 72 313 q 336 397 199 397 l 515 397 m 515 332 l 342 332 q 190 296 233 332 q 153 189 153 263 q 199 83 153 111 q 333 58 239 58 q 494 108 456 58 q 515 208 515 136 l 515 332 m 401 925 l 342 925 q 347 962 343 951 q 365 990 350 972 q 389 1035 389 1021 q 346 1057 389 1057 q 289 1046 319 1057 l 272 1089 q 357 1104 314 1104 q 456 1038 456 1104 q 424 978 456 1013 q 405 954 408 961 q 401 925 401 947 m 365 846 l 267 767 l 174 767 l 343 901 l 389 901 l 558 767 l 465 767 l 365 846 z "},"Ẫ":{"ha":824,"x_min":8,"x_max":817,"o":"m 643 226 l 182 226 l 103 0 l 8 0 l 372 992 l 453 992 l 817 0 l 722 0 l 643 226 m 619 299 l 413 876 l 206 299 l 619 299 m 294 1250 l 243 1250 q 288 1349 263 1319 q 356 1379 314 1379 q 435 1338 397 1379 q 494 1296 472 1296 q 542 1368 525 1296 l 593 1368 q 553 1269 576 1297 q 492 1240 531 1240 q 451 1249 468 1240 q 411 1282 433 1258 q 353 1324 375 1324 q 294 1250 317 1324 m 419 1139 l 319 1058 l 226 1058 l 396 1199 l 443 1199 l 611 1058 l 519 1058 l 419 1139 z "},"ẫ":{"ha":724,"x_min":72,"x_max":597,"o":"m 515 397 l 515 457 q 488 579 515 542 q 349 633 447 633 q 172 563 239 633 l 115 608 q 356 703 197 703 q 567 610 508 703 q 591 545 585 581 q 597 446 597 510 l 597 0 l 531 0 l 524 53 q 444 2 490 17 q 317 -12 399 -12 q 119 39 174 -12 q 72 189 72 85 q 139 357 72 313 q 336 397 199 397 l 515 397 m 515 332 l 342 332 q 190 296 233 332 q 153 189 153 263 q 199 83 153 111 q 333 58 239 58 q 494 108 456 58 q 515 208 515 136 l 515 332 m 244 957 l 193 957 q 238 1056 213 1026 q 306 1086 264 1086 q 385 1044 347 1086 q 443 1003 422 1003 q 492 1075 474 1003 l 543 1075 q 503 976 526 1004 q 442 947 481 947 q 400 956 417 947 q 361 989 383 965 q 303 1031 326 1031 q 244 957 265 1031 m 369 847 l 269 767 l 176 767 l 346 906 l 393 906 l 561 767 l 469 767 l 369 847 z "},"Ậ":{"ha":824,"x_min":8,"x_max":817,"o":"m 643 226 l 182 226 l 103 0 l 8 0 l 372 992 l 453 992 l 817 0 l 722 0 l 643 226 m 619 299 l 413 876 l 206 299 l 619 299 m 413 1224 l 311 1110 l 217 1110 l 388 1285 l 436 1285 l 608 1110 l 513 1110 l 413 1224 m 371 -261 l 371 -128 l 451 -128 l 451 -261 l 371 -261 z "},"ậ":{"ha":724,"x_min":72,"x_max":597,"o":"m 515 397 l 515 457 q 488 579 515 542 q 349 633 447 633 q 172 563 239 633 l 115 608 q 356 703 197 703 q 567 610 508 703 q 591 545 585 581 q 597 446 597 510 l 597 0 l 531 0 l 524 53 q 444 2 490 17 q 317 -12 399 -12 q 119 39 174 -12 q 72 189 72 85 q 139 357 72 313 q 336 397 199 397 l 515 397 m 515 332 l 342 332 q 190 296 233 332 q 153 189 153 263 q 199 83 153 111 q 333 58 239 58 q 494 108 456 58 q 515 208 515 136 l 515 332 m 363 931 l 261 817 l 165 817 l 338 993 l 386 993 l 558 817 l 463 817 l 363 931 m 319 -261 l 319 -128 l 401 -128 l 401 -261 l 319 -261 z "},"Ắ":{"ha":824,"x_min":8,"x_max":817,"o":"m 643 226 l 182 226 l 103 0 l 8 0 l 372 992 l 453 992 l 817 0 l 722 0 l 643 226 m 619 299 l 413 876 l 206 299 l 619 299 m 365 1236 l 442 1392 l 532 1392 l 418 1236 l 365 1236 m 238 1217 l 296 1217 q 328 1140 303 1163 q 411 1118 354 1118 q 496 1140 469 1118 q 528 1217 522 1163 l 586 1217 q 538 1085 581 1119 q 411 1054 499 1054 q 275 1096 313 1054 q 238 1217 243 1131 z "}}}
